{
.appVersion = "856";
date = "2015-08-31 06:43:24 +0000";
designer = "Namrata Goyal";
familyName = "Roundel Gurmukhi";
fontMaster = (
{
alignmentZones = (
"{850, 16}",
"{608, 16}",
"{586, 16}",
"{579, 16}",
"{0, -15}",
"{-350, -16}"
);
ascender = 850;
capHeight = 608;
descender = -350;
guideLines = (
{
position = "{227, -7}";
},
{
position = "{515, 486}";
},
{
position = "{-580, 862}";
},
{
position = "{221, 621}";
},
{
position = "{-516, -283}";
}
);
id = "6FDD6D71-1703-4D62-BB36-645A25EBC0A3";
weight = Light;
weightValue = 0;
xHeight = 579;
},
{
ascender = 850;
capHeight = 603;
descender = -350;
guideLines = (
{
position = "{266, -22}";
},
{
position = "{243, 617}";
},
{
position = "{-616, -328}";
}
);
id = "DC46B086-4DC3-4260-9EBF-C204FB70037C";
weight = Bold;
xHeight = 486;
}
);
glyphs = (
{
glyphname = grmAA;
lastChange = "2015-09-07 05:40:39 +0000";
layers = (
{
guideLines = (
{
position = "{24, 300}";
}
);
layerId = "6FDD6D71-1703-4D62-BB36-645A25EBC0A3";
paths = (
{
closed = 1;
nodes = (
"95 608 LINE",
"95 305 LINE",
"126 305 LINE",
"126 608 LINE"
);
},
{
closed = 1;
nodes = (
"-20 579 LINE SMOOTH",
"241 579 LINE",
"241 608 LINE",
"-20 608 LINE SMOOTH"
);
}
);
width = 221;
},
{
guideLines = (
{
position = "{80, 219}";
}
);
layerId = "DC46B086-4DC3-4260-9EBF-C204FB70037C";
paths = (
{
closed = 1;
nodes = (
"45 602 LINE",
"45 249 LINE",
"182 249 LINE",
"182 602 LINE"
);
},
{
closed = 1;
nodes = (
"-20 486 LINE",
"247 486 LINE",
"247 603 LINE",
"-20 603 LINE"
);
}
);
width = 227;
}
);
unicode = 0A3E;
},
{
glyphname = grmI;
lastChange = "2015-09-07 05:40:39 +0000";
layers = (
{
layerId = "6FDD6D71-1703-4D62-BB36-645A25EBC0A3";
paths = (
{
closed = 1;
nodes = (
"105 0 LINE",
"136 0 LINE",
"136 608 LINE",
"105 608 LINE"
);
},
{
closed = 1;
nodes = (
"-20 608 LINE",
"-20 579 LINE",
"261 579 LINE SMOOTH",
"261 608 LINE SMOOTH"
);
},
{
closed = 1;
nodes = (
"336 674 LINE",
"368 674 LINE",
"368 699 LINE",
"368 799 OFFCURVE",
"303 844 OFFCURVE",
"236 844 CURVE SMOOTH",
"167 844 OFFCURVE",
"105 808 OFFCURVE",
"105 699 CURVE",
"105 589 LINE",
"136 589 LINE",
"136 699 LINE",
"136 788 OFFCURVE",
"185 813 OFFCURVE",
"236 813 CURVE",
"288 813 OFFCURVE",
"336 781 OFFCURVE",
"336 699 CURVE"
);
}
);
width = 241;
},
{
guideLines = (
{
angle = 90;
position = "{439, 455}";
}
);
layerId = "DC46B086-4DC3-4260-9EBF-C204FB70037C";
paths = (
{
closed = 1;
nodes = (
"55 0 LINE",
"192 0 LINE",
"192 602 LINE",
"55 602 LINE"
);
},
{
closed = 1;
nodes = (
"-20 603 LINE",
"-20 486 LINE",
"267 486 LINE",
"267 603 LINE"
);
},
{
closed = 1;
nodes = (
"302 642 LINE",
"439 642 LINE",
"439 657 LINE SMOOTH",
"439 747 OFFCURVE",
"373 843 OFFCURVE",
"247 843 CURVE SMOOTH",
"131 843 OFFCURVE",
"55 757 OFFCURVE",
"55 652 CURVE SMOOTH",
"55 594 LINE",
"192 594 LINE",
"192 652 LINE SMOOTH",
"192 690 OFFCURVE",
"210 716 OFFCURVE",
"247 716 CURVE SMOOTH",
"286 716 OFFCURVE",
"302 690 OFFCURVE",
"302 657 CURVE SMOOTH"
);
}
);
width = 247;
},
{
associatedMasterId = "DC46B086-4DC3-4260-9EBF-C204FB70037C";
guideLines = (
{
angle = 90;
position = "{439, 455}";
}
);
layerId = "717B80BF-9551-41C6-9CB4-0AEB5DEEBD89";
name = "Bold Sep 4 15, 15:17";
paths = (
{
closed = 1;
nodes = (
"55 0 LINE",
"192 0 LINE",
"192 602 LINE",
"55 602 LINE"
);
},
{
closed = 1;
nodes = (
"-20 603 LINE",
"-20 486 LINE",
"267 486 LINE",
"267 603 LINE"
);
},
{
closed = 1;
nodes = (
"304 594 LINE",
"441 594 LINE",
"441 652 LINE SMOOTH",
"441 757 OFFCURVE",
"373 843 OFFCURVE",
"247 843 CURVE SMOOTH",
"131 843 OFFCURVE",
"55 757 OFFCURVE",
"55 652 CURVE SMOOTH",
"55 594 LINE",
"192 594 LINE",
"192 642 LINE SMOOTH",
"192 690 OFFCURVE",
"210 716 OFFCURVE",
"247 716 CURVE SMOOTH",
"286 716 OFFCURVE",
"304 690 OFFCURVE",
"304 645 CURVE SMOOTH"
);
}
);
width = 247;
}
);
unicode = 0A3F;
},
{
glyphname = grmII;
lastChange = "2015-09-15 06:44:41 +0000";
layers = (
{
background = {
paths = (
{
closed = 1;
nodes = (
"105 608 LINE",
"105 0 LINE",
"136 0 LINE",
"136 608 LINE"
);
},
{
closed = 1;
nodes = (
"-20 579 LINE SMOOTH",
"261 579 LINE",
"261 608 LINE",
"-20 608 LINE SMOOTH"
);
},
{
closed = 1;
nodes = (
"-95 781 OFFCURVE",
"-47 813 OFFCURVE",
"5 813 CURVE",
"56 813 OFFCURVE",
"105 788 OFFCURVE",
"105 699 CURVE",
"105 589 LINE",
"136 589 LINE",
"136 699 LINE",
"136 808 OFFCURVE",
"74 844 OFFCURVE",
"5 844 CURVE SMOOTH",
"-62 844 OFFCURVE",
"-127 799 OFFCURVE",
"-127 699 CURVE",
"-127 588 LINE",
"-95 588 LINE",
"-95 699 LINE"
);
}
);
};
guideLines = (
{
position = "{-75, 674}";
},
{
position = "{5, 844}";
}
);
layerId = "6FDD6D71-1703-4D62-BB36-645A25EBC0A3";
paths = (
{
closed = 1;
nodes = (
"105 608 LINE",
"105 0 LINE",
"136 0 LINE",
"136 608 LINE"
);
},
{
closed = 1;
nodes = (
"-20 579 LINE SMOOTH",
"261 579 LINE",
"261 608 LINE",
"-20 608 LINE SMOOTH"
);
},
{
closed = 1;
nodes = (
"-95 781 OFFCURVE",
"-47 813 OFFCURVE",
"5 813 CURVE",
"56 813 OFFCURVE",
"105 788 OFFCURVE",
"105 699 CURVE",
"105 589 LINE",
"136 589 LINE",
"136 699 LINE",
"136 808 OFFCURVE",
"74 844 OFFCURVE",
"5 844 CURVE SMOOTH",
"-62 844 OFFCURVE",
"-127 799 OFFCURVE",
"-127 699 CURVE",
"-127 674 LINE",
"-95 674 LINE",
"-95 699 LINE"
);
}
);
width = 241;
},
{
background = {
paths = (
{
closed = 1;
nodes = (
"55 602 LINE",
"55 0 LINE",
"192 0 LINE",
"192 602 LINE"
);
},
{
closed = 1;
nodes = (
"-20 486 LINE",
"267 486 LINE",
"267 603 LINE",
"-20 603 LINE"
);
},
{
closed = 1;
nodes = (
"-57 690 OFFCURVE",
"-39 716 OFFCURVE",
"0 716 CURVE SMOOTH",
"37 716 OFFCURVE",
"55 690 OFFCURVE",
"55 642 CURVE SMOOTH",
"55 594 LINE",
"192 594 LINE",
"192 652 LINE SMOOTH",
"192 757 OFFCURVE",
"116 843 OFFCURVE",
"0 843 CURVE SMOOTH",
"-126 843 OFFCURVE",
"-194 757 OFFCURVE",
"-194 652 CURVE SMOOTH",
"-194 594 LINE",
"-57 594 LINE",
"-57 645 LINE SMOOTH"
);
}
);
};
guideLines = (
{
position = "{-9, 647}";
},
{
position = "{116, 843}";
}
);
layerId = "DC46B086-4DC3-4260-9EBF-C204FB70037C";
paths = (
{
closed = 1;
nodes = (
"55 602 LINE",
"55 0 LINE",
"192 0 LINE",
"192 602 LINE"
);
},
{
closed = 1;
nodes = (
"-20 486 LINE",
"267 486 LINE",
"267 603 LINE",
"-20 603 LINE"
);
},
{
closed = 1;
nodes = (
"-55 690 OFFCURVE",
"-39 716 OFFCURVE",
"0 716 CURVE SMOOTH",
"37 716 OFFCURVE",
"55 690 OFFCURVE",
"55 652 CURVE SMOOTH",
"55 594 LINE",
"192 594 LINE",
"192 652 LINE SMOOTH",
"192 757 OFFCURVE",
"116 843 OFFCURVE",
"0 843 CURVE SMOOTH",
"-126 843 OFFCURVE",
"-192 747 OFFCURVE",
"-192 657 CURVE SMOOTH",
"-192 647 LINE",
"-55 647 LINE",
"-55 657 LINE SMOOTH"
);
}
);
width = 247;
},
{
associatedMasterId = "6FDD6D71-1703-4D62-BB36-645A25EBC0A3";
background = {
paths = (
{
closed = 1;
nodes = (
"105 608 LINE",
"105 0 LINE",
"136 0 LINE",
"136 608 LINE"
);
},
{
closed = 1;
nodes = (
"-20 579 LINE SMOOTH",
"261 579 LINE",
"261 608 LINE",
"-20 608 LINE SMOOTH"
);
},
{
closed = 1;
nodes = (
"-95 781 OFFCURVE",
"-47 813 OFFCURVE",
"5 813 CURVE",
"56 813 OFFCURVE",
"105 788 OFFCURVE",
"105 699 CURVE",
"105 589 LINE",
"136 589 LINE",
"136 699 LINE",
"136 808 OFFCURVE",
"74 844 OFFCURVE",
"5 844 CURVE SMOOTH",
"-62 844 OFFCURVE",
"-127 799 OFFCURVE",
"-127 699 CURVE",
"-127 588 LINE",
"-95 588 LINE",
"-95 699 LINE"
);
}
);
};
layerId = "BB18844D-502B-4FC1-8E54-895D90EDE551";
name = "Light Sep 4 15, 15:24";
paths = (
{
closed = 1;
nodes = (
"105 608 LINE",
"105 0 LINE",
"136 0 LINE",
"136 608 LINE"
);
},
{
closed = 1;
nodes = (
"-20 579 LINE SMOOTH",
"261 579 LINE",
"261 608 LINE",
"-20 608 LINE SMOOTH"
);
},
{
closed = 1;
nodes = (
"-95 781 OFFCURVE",
"-47 813 OFFCURVE",
"5 813 CURVE",
"56 813 OFFCURVE",
"105 788 OFFCURVE",
"105 699 CURVE",
"105 589 LINE",
"136 589 LINE",
"136 699 LINE",
"136 808 OFFCURVE",
"74 844 OFFCURVE",
"5 844 CURVE SMOOTH",
"-62 844 OFFCURVE",
"-127 799 OFFCURVE",
"-127 699 CURVE",
"-127 588 LINE",
"-95 588 LINE",
"-95 699 LINE"
);
}
);
width = 241;
}
);
unicode = 0A40;
},
{
glyphname = grA;
lastChange = "2015-09-07 05:40:39 +0000";
layers = (
{
background = {
paths = (
{
closed = 1;
nodes = (
"484 0 LINE",
"515 0 LINE",
"515 608 LINE",
"484 608 LINE"
);
},
{
closed = 1;
nodes = (
"484 608 LINE",
"484 579 LINE",
"640 579 LINE SMOOTH",
"640 608 LINE SMOOTH"
);
},
{
closed = 1;
nodes = (
"-30 608 LINE",
"-30 579 LINE",
"163 579 LINE SMOOTH",
"163 608 LINE SMOOTH"
);
},
{
closed = 1;
nodes = (
"303 256 LINE SMOOTH",
"303 209 OFFCURVE",
"280 174 OFFCURVE",
"229 174 CURVE",
"229 144 LINE",
"295 144 OFFCURVE",
"334 188 OFFCURVE",
"334 259 CURVE SMOOTH",
"334 488 LINE",
"303 488 LINE"
);
},
{
closed = 1;
nodes = (
"72 265 LINE",
"130 271 OFFCURVE",
"163 313 OFFCURVE",
"163 379 CURVE SMOOTH",
"163 608 LINE",
"132 608 LINE",
"132 376 LINE SMOOTH",
"132 332 OFFCURVE",
"111 298 OFFCURVE",
"66 294 CURVE"
);
}
);
};
guideLines = (
{
position = "{217, 379}";
showMeasurement = 1;
}
);
layerId = "6FDD6D71-1703-4D62-BB36-645A25EBC0A3";
paths = (
{
closed = 1;
nodes = (
"-20 608 LINE",
"-20 579 LINE",
"173 579 LINE SMOOTH",
"173 608 LINE SMOOTH"
);
},
{
closed = 1;
nodes = (
"82 265 LINE",
"140 271 OFFCURVE",
"173 313 OFFCURVE",
"173 379 CURVE SMOOTH",
"173 608 LINE",
"142 608 LINE",
"142 376 LINE SMOOTH",
"142 332 OFFCURVE",
"121 298 OFFCURVE",
"76 294 CURVE"
);
},
{
closed = 1;
nodes = (
"354 435 OFFCURVE",
"324 476 OFFCURVE",
"265 476 CURVE SMOOTH",
"151 476 LINE",
"151 446 LINE",
"260 446 LINE SMOOTH",
"308 446 OFFCURVE",
"323 419 OFFCURVE",
"323 381 CURVE SMOOTH",
"323 256 LINE SMOOTH",
"323 212 OFFCURVE",
"302 178 OFFCURVE",
"257 174 CURVE",
"263 145 LINE",
"321 151 OFFCURVE",
"354 193 OFFCURVE",
"354 259 CURVE SMOOTH",
"354 386 LINE SMOOTH"
);
},
{
closed = 1;
nodes = (
"347 313 LINE",
"523 313 LINE",
"523 343 LINE",
"347 343 LINE"
);
},
{
closed = 1;
nodes = (
"504 0 LINE",
"535 0 LINE",
"535 608 LINE",
"504 608 LINE"
);
},
{
closed = 1;
nodes = (
"504 608 LINE",
"504 579 LINE",
"660 579 LINE SMOOTH",
"660 608 LINE SMOOTH"
);
}
);
width = 640;
},
{
background = {
guideLines = (
{
position = "{364, 432}";
showMeasurement = 1;
}
);
paths = (
{
closed = 1;
nodes = (
"213 534 OFFCURVE",
"153 576 OFFCURVE",
"85 576 CURVE SMOOTH",
"-15 576 LINE",
"-15 469 LINE",
"44 469 LINE SMOOTH",
"72 469 OFFCURVE",
"86 453 OFFCURVE",
"86 429 CURVE SMOOTH",
"86 362 LINE SMOOTH",
"86 338 OFFCURVE",
"68 319 OFFCURVE",
"42 316 CURVE",
"53 188 LINE",
"157 191 OFFCURVE",
"213 265 OFFCURVE",
"213 356 CURVE SMOOTH",
"213 466 LINE SMOOTH"
);
}
);
};
guideLines = (
{
position = "{320, 292}";
showMeasurement = 1;
}
);
layerId = "DC46B086-4DC3-4260-9EBF-C204FB70037C";
paths = (
{
closed = 1;
nodes = (
"-20 603 LINE",
"-20 486 LINE",
"216 486 LINE",
"216 603 LINE"
);
},
{
closed = 1;
nodes = (
"53 188 LINE",
"157 191 OFFCURVE",
"216 263 OFFCURVE",
"216 356 CURVE SMOOTH",
"216 603 LINE",
"86 603 LINE",
"86 362 LINE SMOOTH",
"86 338 OFFCURVE",
"68 319 OFFCURVE",
"42 316 CURVE"
);
},
{
closed = 1;
nodes = (
"423 424 OFFCURVE",
"363 466 OFFCURVE",
"295 466 CURVE SMOOTH",
"195 466 LINE",
"195 359 LINE",
"254 359 LINE SMOOTH",
"282 359 OFFCURVE",
"296 343 OFFCURVE",
"296 319 CURVE SMOOTH",
"296 252 LINE SMOOTH",
"296 228 OFFCURVE",
"278 209 OFFCURVE",
"252 206 CURVE",
"263 78 LINE",
"367 81 OFFCURVE",
"423 155 OFFCURVE",
"423 246 CURVE SMOOTH",
"423 356 LINE SMOOTH"
);
},
{
closed = 1;
nodes = (
"381 219 LINE",
"586 219 LINE",
"586 326 LINE",
"381 326 LINE"
);
},
{
closed = 1;
nodes = (
"503 0 LINE",
"640 0 LINE",
"640 603 LINE SMOOTH",
"503 603 LINE"
);
},
{
closed = 1;
nodes = (
"503 603 LINE",
"503 486 LINE",
"715 486 LINE",
"715 603 LINE"
);
}
);
width = 695;
},
{
associatedMasterId = "6FDD6D71-1703-4D62-BB36-645A25EBC0A3";
background = {
paths = (
{
closed = 1;
nodes = (
"494 0 LINE",
"525 0 LINE",
"525 608 LINE",
"494 608 LINE"
);
},
{
closed = 1;
nodes = (
"494 608 LINE",
"494 579 LINE",
"650 579 LINE SMOOTH",
"650 608 LINE SMOOTH"
);
},
{
closed = 1;
nodes = (
"-20 608 LINE",
"-20 579 LINE",
"173 579 LINE SMOOTH",
"173 608 LINE SMOOTH"
);
},
{
closed = 1;
nodes = (
"82 265 LINE",
"140 271 OFFCURVE",
"173 313 OFFCURVE",
"173 379 CURVE SMOOTH",
"173 608 LINE",
"142 608 LINE",
"142 376 LINE SMOOTH",
"142 332 OFFCURVE",
"121 298 OFFCURVE",
"76 294 CURVE"
);
},
{
closed = 1;
nodes = (
"292 453 OFFCURVE",
"313 419 OFFCURVE",
"313 375 CURVE SMOOTH",
"313 185 LINE",
"344 155 LINE",
"344 372 LINE SMOOTH",
"344 438 OFFCURVE",
"311 480 OFFCURVE",
"253 486 CURVE",
"247 457 LINE"
);
},
{
closed = 1;
nodes = (
"337 323 LINE",
"513 323 LINE",
"513 353 LINE",
"337 353 LINE"
);
},
{
closed = 1;
nodes = (
"847 401 OFFCURVE",
"866 419 OFFCURVE",
"866 443 CURVE SMOOTH",
"866 467 OFFCURVE",
"847 486 OFFCURVE",
"824 486 CURVE SMOOTH",
"800 486 OFFCURVE",
"780 467 OFFCURVE",
"780 443 CURVE SMOOTH",
"780 419 OFFCURVE",
"800 401 OFFCURVE",
"824 401 CURVE SMOOTH"
);
},
{
closed = 1;
nodes = (
"818 383 OFFCURVE",
"835 399 OFFCURVE",
"835 419 CURVE SMOOTH",
"835 439 OFFCURVE",
"818 456 OFFCURVE",
"799 456 CURVE SMOOTH",
"778 456 OFFCURVE",
"761 439 OFFCURVE",
"761 419 CURVE SMOOTH",
"761 399 OFFCURVE",
"778 383 OFFCURVE",
"799 383 CURVE SMOOTH"
);
}
);
};
guideLines = (
{
position = "{227, 414}";
showMeasurement = 1;
}
);
layerId = "1FF11E66-C5CF-4DF8-B752-EA539ED6BFA9";
name = "Light Aug 31 15, 17:04";
paths = (
{
closed = 1;
nodes = (
"494 0 LINE",
"525 0 LINE",
"525 608 LINE",
"494 608 LINE"
);
},
{
closed = 1;
nodes = (
"494 608 LINE",
"494 579 LINE",
"650 579 LINE SMOOTH",
"650 608 LINE SMOOTH"
);
},
{
closed = 1;
nodes = (
"-20 608 LINE",
"-20 579 LINE",
"173 579 LINE SMOOTH",
"173 608 LINE SMOOTH"
);
},
{
closed = 1;
nodes = (
"82 265 LINE",
"140 271 OFFCURVE",
"173 313 OFFCURVE",
"173 379 CURVE SMOOTH",
"173 608 LINE",
"142 608 LINE",
"142 376 LINE SMOOTH",
"142 332 OFFCURVE",
"121 298 OFFCURVE",
"76 294 CURVE"
);
},
{
closed = 1;
nodes = (
"337 323 LINE",
"513 323 LINE",
"513 353 LINE",
"337 353 LINE"
);
},
{
closed = 1;
nodes = (
"344 445 OFFCURVE",
"314 486 OFFCURVE",
"255 486 CURVE SMOOTH",
"151 486 LINE",
"151 456 LINE",
"250 456 LINE SMOOTH",
"298 456 OFFCURVE",
"313 429 OFFCURVE",
"313 391 CURVE SMOOTH",
"313 266 LINE SMOOTH",
"313 222 OFFCURVE",
"292 188 OFFCURVE",
"247 184 CURVE",
"253 155 LINE",
"311 161 OFFCURVE",
"344 203 OFFCURVE",
"344 269 CURVE SMOOTH",
"344 396 LINE SMOOTH"
);
}
);
width = 630;
},
{
associatedMasterId = "6FDD6D71-1703-4D62-BB36-645A25EBC0A3";
background = {
paths = (
{
closed = 1;
nodes = (
"494 0 LINE",
"525 0 LINE",
"525 608 LINE",
"494 608 LINE"
);
},
{
closed = 1;
nodes = (
"494 608 LINE",
"494 579 LINE",
"650 579 LINE SMOOTH",
"650 608 LINE SMOOTH"
);
},
{
closed = 1;
nodes = (
"-20 608 LINE",
"-20 579 LINE",
"173 579 LINE SMOOTH",
"173 608 LINE SMOOTH"
);
},
{
closed = 1;
nodes = (
"313 256 LINE SMOOTH",
"313 209 OFFCURVE",
"290 174 OFFCURVE",
"239 174 CURVE",
"239 144 LINE",
"305 144 OFFCURVE",
"344 188 OFFCURVE",
"344 259 CURVE SMOOTH",
"344 488 LINE",
"313 488 LINE"
);
},
{
closed = 1;
nodes = (
"82 265 LINE",
"140 271 OFFCURVE",
"173 313 OFFCURVE",
"173 379 CURVE SMOOTH",
"173 608 LINE",
"142 608 LINE",
"142 376 LINE SMOOTH",
"142 332 OFFCURVE",
"121 298 OFFCURVE",
"76 294 CURVE"
);
}
);
};
guideLines = (
{
position = "{227, 414}";
showMeasurement = 1;
}
);
layerId = "03F36321-225D-4C1F-BEBB-13A33E429FEB";
name = "Light Aug 31 15, 17:04 Aug 31 15, 17:06";
paths = (
{
closed = 1;
nodes = (
"494 0 LINE",
"525 0 LINE",
"525 608 LINE",
"494 608 LINE"
);
},
{
closed = 1;
nodes = (
"494 608 LINE",
"494 579 LINE",
"650 579 LINE SMOOTH",
"650 608 LINE SMOOTH"
);
},
{
closed = 1;
nodes = (
"-20 608 LINE",
"-20 579 LINE",
"173 579 LINE SMOOTH",
"173 608 LINE SMOOTH"
);
},
{
closed = 1;
nodes = (
"82 265 LINE",
"140 271 OFFCURVE",
"173 313 OFFCURVE",
"173 379 CURVE SMOOTH",
"173 608 LINE",
"142 608 LINE",
"142 376 LINE SMOOTH",
"142 332 OFFCURVE",
"121 298 OFFCURVE",
"76 294 CURVE"
);
},
{
closed = 1;
nodes = (
"253 155 LINE",
"311 161 OFFCURVE",
"344 203 OFFCURVE",
"344 269 CURVE SMOOTH",
"344 486 LINE",
"158 486 LINE",
"158 456 LINE",
"313 456 LINE",
"313 266 LINE SMOOTH",
"313 222 OFFCURVE",
"292 188 OFFCURVE",
"247 184 CURVE"
);
},
{
closed = 1;
nodes = (
"337 323 LINE",
"513 323 LINE",
"513 353 LINE",
"337 353 LINE"
);
}
);
width = 630;
},
{
associatedMasterId = "6FDD6D71-1703-4D62-BB36-645A25EBC0A3";
background = {
paths = (
{
closed = 1;
nodes = (
"494 0 LINE",
"525 0 LINE",
"525 608 LINE",
"494 608 LINE"
);
},
{
closed = 1;
nodes = (
"494 608 LINE",
"494 579 LINE",
"650 579 LINE SMOOTH",
"650 608 LINE SMOOTH"
);
},
{
closed = 1;
nodes = (
"-20 608 LINE",
"-20 579 LINE",
"173 579 LINE SMOOTH",
"173 608 LINE SMOOTH"
);
},
{
closed = 1;
nodes = (
"313 256 LINE SMOOTH",
"313 209 OFFCURVE",
"290 174 OFFCURVE",
"239 174 CURVE",
"239 144 LINE",
"305 144 OFFCURVE",
"344 188 OFFCURVE",
"344 259 CURVE SMOOTH",
"344 488 LINE",
"313 488 LINE"
);
},
{
closed = 1;
nodes = (
"82 265 LINE",
"140 271 OFFCURVE",
"173 313 OFFCURVE",
"173 379 CURVE SMOOTH",
"173 608 LINE",
"142 608 LINE",
"142 376 LINE SMOOTH",
"142 332 OFFCURVE",
"121 298 OFFCURVE",
"76 294 CURVE"
);
}
);
};
guideLines = (
{
position = "{227, 414}";
showMeasurement = 1;
}
);
layerId = "3832B697-805F-4801-A98E-9C0BA5C59B81";
name = "Light Aug 31 15, 17:12";
paths = (
{
closed = 1;
nodes = (
"494 0 LINE",
"525 0 LINE",
"525 608 LINE",
"494 608 LINE"
);
},
{
closed = 1;
nodes = (
"494 608 LINE",
"494 579 LINE",
"650 579 LINE SMOOTH",
"650 608 LINE SMOOTH"
);
},
{
closed = 1;
nodes = (
"253 155 LINE",
"311 161 OFFCURVE",
"344 203 OFFCURVE",
"344 269 CURVE SMOOTH",
"344 486 LINE",
"158 486 LINE",
"158 456 LINE",
"313 456 LINE",
"313 266 LINE SMOOTH",
"313 222 OFFCURVE",
"292 188 OFFCURVE",
"247 184 CURVE"
);
},
{
closed = 1;
nodes = (
"337 323 LINE",
"513 323 LINE",
"513 353 LINE",
"337 353 LINE"
);
},
{
closed = 1;
nodes = (
"173 570 OFFCURVE",
"159 608 OFFCURVE",
"110 608 CURVE SMOOTH",
"-20 608 LINE",
"-20 579 LINE",
"105 579 LINE SMOOTH",
"130 579 OFFCURVE",
"142 560 OFFCURVE",
"142 537 CURVE SMOOTH",
"142 376 LINE SMOOTH",
"142 332 OFFCURVE",
"121 298 OFFCURVE",
"76 294 CURVE",
"82 265 LINE",
"140 271 OFFCURVE",
"173 313 OFFCURVE",
"173 379 CURVE SMOOTH",
"173 542 LINE SMOOTH"
);
}
);
width = 630;
},
{
associatedMasterId = "DC46B086-4DC3-4260-9EBF-C204FB70037C";
guideLines = (
{
position = "{368, 404}";
showMeasurement = 1;
}
);
layerId = "C8C9A720-2250-446F-A444-88E518D6FC1B";
name = "Bold Aug 31 15, 17:16";
paths = (
{
closed = 1;
nodes = (
"551 0 LINE",
"688 0 LINE",
"688 603 LINE SMOOTH",
"551 603 LINE"
);
},
{
closed = 1;
nodes = (
"84 178 LINE",
"195 178 OFFCURVE",
"254 250 OFFCURVE",
"254 346 CURVE SMOOTH",
"254 603 LINE",
"117 603 LINE",
"117 347 LINE SMOOTH",
"117 323 OFFCURVE",
"99 306 OFFCURVE",
"73 306 CURVE"
);
},
{
closed = 1;
nodes = (
"551 603 LINE",
"551 486 LINE",
"763 486 LINE",
"763 603 LINE"
);
},
{
closed = 1;
nodes = (
"-20 603 LINE",
"-20 486 LINE",
"254 486 LINE",
"254 603 LINE"
);
},
{
closed = 1;
nodes = (
"301 88 LINE",
"412 88 OFFCURVE",
"471 160 OFFCURVE",
"471 256 CURVE SMOOTH",
"471 456 LINE",
"334 456 LINE",
"334 257 LINE SMOOTH",
"334 233 OFFCURVE",
"316 216 OFFCURVE",
"290 216 CURVE"
);
},
{
closed = 1;
nodes = (
"231 456 LINE",
"231 349 LINE",
"471 349 LINE",
"471 456 LINE"
);
},
{
closed = 1;
nodes = (
"422 316 LINE",
"422 209 LINE",
"634 209 LINE",
"634 316 LINE"
);
}
);
width = 743;
}
);
unicode = 0A05;
},
{
glyphname = grKA;
lastChange = "2015-09-15 08:03:48 +0000";
layers = (
{
background = {
paths = (
{
closed = 1;
nodes = (
"-20 608 LINE",
"-20 579 LINE",
"534 579 LINE SMOOTH",
"534 608 LINE SMOOTH"
);
},
{
closed = 1;
nodes = (
"364 273 LINE",
"394 319 OFFCURVE",
"409 387 OFFCURVE",
"409 451 CURVE SMOOTH",
"409 584 LINE",
"378 584 LINE",
"378 447 LINE SMOOTH",
"378 400 OFFCURVE",
"368 349 OFFCURVE",
"349 313 CURVE",
"317 369 OFFCURVE",
"260 410 OFFCURVE",
"185 410 CURVE SMOOTH",
"93 410 OFFCURVE",
"38 353 OFFCURVE",
"38 284 CURVE SMOOTH",
"38 215 OFFCURVE",
"98 158 OFFCURVE",
"185 158 CURVE SMOOTH",
"253 158 OFFCURVE",
"310 196 OFFCURVE",
"347 247 CURVE",
"370 192 OFFCURVE",
"383 133 OFFCURVE",
"383 62 CURVE SMOOTH",
"383 0 LINE",
"414 0 LINE",
"414 62 LINE SMOOTH",
"414 149 OFFCURVE",
"397 225 OFFCURVE",
"364 288 CURVE"
);
},
{
closed = 1;
nodes = (
"119 188 OFFCURVE",
"69 232 OFFCURVE",
"69 284 CURVE SMOOTH",
"69 336 OFFCURVE",
"114 380 OFFCURVE",
"183 380 CURVE SMOOTH",
"255 380 OFFCURVE",
"303 336 OFFCURVE",
"331 280 CURVE",
"298 226 OFFCURVE",
"248 188 OFFCURVE",
"183 188 CURVE SMOOTH"
);
}
);
};
guideLines = (
{
position = "{192, 282}";
}
);
layerId = "6FDD6D71-1703-4D62-BB36-645A25EBC0A3";
paths = (
{
closed = 1;
nodes = (
"393 465 LINE SMOOTH",
"393 324 OFFCURVE",
"325 178 OFFCURVE",
"192 178 CURVE SMOOTH",
"128 178 OFFCURVE",
"69 222 OFFCURVE",
"69 284 CURVE SMOOTH",
"69 346 OFFCURVE",
"123 390 OFFCURVE",
"192 390 CURVE SMOOTH",
"335 390 OFFCURVE",
"398 224 OFFCURVE",
"398 63 CURVE SMOOTH",
"398 0 LINE",
"429 0 LINE",
"429 61 LINE SMOOTH",
"429 244 OFFCURVE",
"355 420 OFFCURVE",
"192 420 CURVE SMOOTH",
"100 420 OFFCURVE",
"38 363 OFFCURVE",
"38 284 CURVE SMOOTH",
"38 205 OFFCURVE",
"105 148 OFFCURVE",
"192 148 CURVE SMOOTH",
"345 148 OFFCURVE",
"424 304 OFFCURVE",
"424 467 CURVE SMOOTH",
"424 608 LINE",
"393 608 LINE"
);
},
{
closed = 1;
nodes = (
"-20 608 LINE",
"-20 579 LINE",
"549 579 LINE SMOOTH",
"549 608 LINE SMOOTH"
);
}
);
width = 529;
},
{
background = {
paths = (
{
closed = 1;
nodes = (
"-97 603 LINE",
"-97 486 LINE",
"638 486 LINE",
"638 603 LINE"
);
},
{
closed = 0;
nodes = (
"439 182 LINE",
"451 163 OFFCURVE",
"462 119 OFFCURVE",
"462 74 CURVE SMOOTH",
"462 0 LINE",
"612 0 LINE",
"612 64 LINE SMOOTH",
"612 205 OFFCURVE",
"582 275 OFFCURVE",
"520 310 CURVE",
"520 276 LINE",
"560 297 OFFCURVE",
"577 357 OFFCURVE",
"577 408 CURVE SMOOTH",
"577 558 LINE",
"441 558 LINE",
"441 445 LINE SMOOTH",
"441 388 OFFCURVE",
"434 378 OFFCURVE",
"431 373 CURVE",
"417 387 OFFCURVE",
"381 420 OFFCURVE",
"316 420 CURVE SMOOTH",
"228 420 OFFCURVE",
"165 355 OFFCURVE",
"165 286 CURVE SMOOTH",
"165 217 OFFCURVE",
"228 152 OFFCURVE",
"316 152 CURVE SMOOTH",
"381 152 OFFCURVE",
"412 169 OFFCURVE",
"439 182 CURVE"
);
}
);
};
guideLines = (
{
position = "{346, 267}";
}
);
layerId = "DC46B086-4DC3-4260-9EBF-C204FB70037C";
paths = (
{
closed = 1;
nodes = (
"336 425 LINE SMOOTH",
"336 322 OFFCURVE",
"300 223 OFFCURVE",
"217 223 CURVE SMOOTH",
"190 223 OFFCURVE",
"167 242 OFFCURVE",
"167 267 CURVE SMOOTH",
"167 292 OFFCURVE",
"190 311 OFFCURVE",
"217 311 CURVE SMOOTH",
"300 311 OFFCURVE",
"347 201 OFFCURVE",
"347 54 CURVE SMOOTH",
"347 0 LINE",
"477 0 LINE",
"477 64 LINE SMOOTH",
"477 271 OFFCURVE",
"365 421 OFFCURVE",
"206 421 CURVE SMOOTH",
"100 421 OFFCURVE",
"32 349 OFFCURVE",
"32 267 CURVE SMOOTH",
"32 185 OFFCURVE",
"100 113 OFFCURVE",
"206 113 CURVE SMOOTH",
"365 113 OFFCURVE",
"472 251 OFFCURVE",
"472 395 CURVE SMOOTH",
"472 603 LINE",
"336 603 LINE"
);
},
{
closed = 1;
nodes = (
"-20 603 LINE",
"-20 486 LINE",
"557 486 LINE",
"557 603 LINE"
);
}
);
width = 537;
},
{
associatedMasterId = "6FDD6D71-1703-4D62-BB36-645A25EBC0A3";
background = {
paths = (
{
closed = 1;
nodes = (
"-20 608 LINE",
"-20 579 LINE",
"534 579 LINE SMOOTH",
"534 608 LINE SMOOTH"
);
},
{
closed = 1;
nodes = (
"364 273 LINE",
"394 319 OFFCURVE",
"409 387 OFFCURVE",
"409 451 CURVE SMOOTH",
"409 584 LINE",
"378 584 LINE",
"378 447 LINE SMOOTH",
"378 400 OFFCURVE",
"368 349 OFFCURVE",
"349 313 CURVE",
"317 369 OFFCURVE",
"260 410 OFFCURVE",
"185 410 CURVE SMOOTH",
"93 410 OFFCURVE",
"38 353 OFFCURVE",
"38 284 CURVE SMOOTH",
"38 215 OFFCURVE",
"98 158 OFFCURVE",
"185 158 CURVE SMOOTH",
"253 158 OFFCURVE",
"310 196 OFFCURVE",
"347 247 CURVE",
"370 192 OFFCURVE",
"383 133 OFFCURVE",
"383 62 CURVE SMOOTH",
"383 0 LINE",
"414 0 LINE",
"414 62 LINE SMOOTH",
"414 149 OFFCURVE",
"397 225 OFFCURVE",
"364 288 CURVE"
);
},
{
closed = 1;
nodes = (
"119 188 OFFCURVE",
"69 232 OFFCURVE",
"69 284 CURVE SMOOTH",
"69 336 OFFCURVE",
"114 380 OFFCURVE",
"183 380 CURVE SMOOTH",
"255 380 OFFCURVE",
"303 336 OFFCURVE",
"331 280 CURVE",
"298 226 OFFCURVE",
"248 188 OFFCURVE",
"183 188 CURVE SMOOTH"
);
}
);
};
guideLines = (
{
position = "{192, 282}";
}
);
layerId = "ADDD42F0-2D62-4BBD-97CE-13B9AD13A0FD";
name = "Light Sep 1 15, 15:16";
paths = (
{
closed = 1;
nodes = (
"-20 608 LINE",
"-20 579 LINE",
"534 579 LINE SMOOTH",
"534 608 LINE SMOOTH"
);
},
{
closed = 1;
nodes = (
"118 188 OFFCURVE",
"69 232 OFFCURVE",
"69 284 CURVE SMOOTH",
"69 336 OFFCURVE",
"113 380 OFFCURVE",
"182 380 CURVE SMOOTH",
"315 380 OFFCURVE",
"383 222 OFFCURVE",
"383 61 CURVE SMOOTH",
"383 0 LINE",
"414 0 LINE",
"414 61 LINE SMOOTH",
"414 242 OFFCURVE",
"338 410 OFFCURVE",
"184 410 CURVE SMOOTH",
"92 410 OFFCURVE",
"38 353 OFFCURVE",
"38 284 CURVE SMOOTH",
"38 215 OFFCURVE",
"97 158 OFFCURVE",
"184 158 CURVE SMOOTH",
"322 158 OFFCURVE",
"409 302 OFFCURVE",
"409 447 CURVE SMOOTH",
"409 608 LINE",
"378 608 LINE",
"378 447 LINE SMOOTH",
"378 321 OFFCURVE",
"301 188 OFFCURVE",
"182 188 CURVE SMOOTH"
);
}
);
width = 514;
},
{
associatedMasterId = "DC46B086-4DC3-4260-9EBF-C204FB70037C";
background = {
paths = (
{
closed = 1;
nodes = (
"-97 603 LINE",
"-97 486 LINE",
"638 486 LINE",
"638 603 LINE"
);
},
{
closed = 0;
nodes = (
"439 182 LINE",
"451 163 OFFCURVE",
"462 119 OFFCURVE",
"462 74 CURVE SMOOTH",
"462 0 LINE",
"612 0 LINE",
"612 64 LINE SMOOTH",
"612 205 OFFCURVE",
"582 275 OFFCURVE",
"520 310 CURVE",
"520 276 LINE",
"560 297 OFFCURVE",
"577 357 OFFCURVE",
"577 408 CURVE SMOOTH",
"577 558 LINE",
"441 558 LINE",
"441 445 LINE SMOOTH",
"441 388 OFFCURVE",
"434 378 OFFCURVE",
"431 373 CURVE",
"417 387 OFFCURVE",
"381 420 OFFCURVE",
"316 420 CURVE SMOOTH",
"228 420 OFFCURVE",
"165 355 OFFCURVE",
"165 286 CURVE SMOOTH",
"165 217 OFFCURVE",
"228 152 OFFCURVE",
"316 152 CURVE SMOOTH",
"381 152 OFFCURVE",
"412 169 OFFCURVE",
"439 182 CURVE"
);
}
);
};
guideLines = (
{
position = "{346, 267}";
}
);
layerId = "5193CF1F-446A-475D-B9F5-A49D3B74D9C3";
name = "Bold Sep 1 15, 15:20";
paths = (
{
closed = 1;
nodes = (
"-20 603 LINE",
"-20 486 LINE",
"552 486 LINE",
"552 603 LINE"
);
},
{
closed = 1;
nodes = (
"342 201 OFFCURVE",
"342 54 CURVE SMOOTH",
"342 0 LINE",
"472 0 LINE",
"472 64 LINE SMOOTH",
"472 271 OFFCURVE",
"360 421 OFFCURVE",
"206 421 CURVE SMOOTH",
"100 421 OFFCURVE",
"32 349 OFFCURVE",
"32 267 CURVE SMOOTH",
"32 185 OFFCURVE",
"100 113 OFFCURVE",
"206 113 CURVE SMOOTH",
"360 113 OFFCURVE",
"467 251 OFFCURVE",
"467 395 CURVE SMOOTH",
"467 603 LINE",
"331 603 LINE",
"331 425 LINE SMOOTH",
"331 322 OFFCURVE",
"295 223 OFFCURVE",
"217 223 CURVE SMOOTH",
"190 223 OFFCURVE",
"167 242 OFFCURVE",
"167 267 CURVE SMOOTH",
"167 292 OFFCURVE",
"190 311 OFFCURVE",
"217 311 CURVE SMOOTH",
"295 311 OFFCURVE"
);
}
);
width = 532;
}
);
unicode = 0A15;
},
{
glyphname = grKHA;
lastChange = "2015-09-07 05:40:39 +0000";
layers = (
{
background = {
paths = (
{
closed = 1;
nodes = (
"56 579 LINE",
"97 569 OFFCURVE",
"124 523 OFFCURVE",
"124 473 CURVE SMOOTH",
"124 428 OFFCURVE",
"105 386 OFFCURVE",
"56 367 CURVE",
"87 349 LINE",
"124 370 OFFCURVE",
"155 415 OFFCURVE",
"155 473 CURVE SMOOTH",
"155 536 OFFCURVE",
"120 594 OFFCURVE",
"58 604 CURVE"
);
},
{
closed = 1;
nodes = (
"403 309 LINE",
"403 221 OFFCURVE",
"341 159 OFFCURVE",
"251 159 CURVE SMOOTH",
"156 159 OFFCURVE",
"87 219 OFFCURVE",
"87 314 CURVE",
"87 367 LINE",
"56 367 LINE",
"56 314 LINE",
"56 200 OFFCURVE",
"139 129 OFFCURVE",
"251 129 CURVE SMOOTH",
"355 129 OFFCURVE",
"418 197 OFFCURVE",
"418 264 CURVE"
);
},
{
closed = 1;
nodes = (
"403 0 LINE",
"434 0 LINE",
"434 608 LINE",
"403 608 LINE"
);
},
{
closed = 1;
nodes = (
"104 398 LINE",
"104 369 LINE",
"408 369 LINE SMOOTH",
"408 398 LINE SMOOTH"
);
},
{
closed = 1;
nodes = (
"-20 608 LINE",
"-20 579 LINE",
"559 579 LINE SMOOTH",
"559 608 LINE SMOOTH"
);
}
);
};
layerId = "6FDD6D71-1703-4D62-BB36-645A25EBC0A3";
paths = (
{
closed = 1;
nodes = (
"-20 608 LINE",
"-20 579 LINE",
"28 579 LINE SMOOTH",
"92 579 OFFCURVE",
"124 529 OFFCURVE",
"124 473 CURVE SMOOTH",
"124 428 OFFCURVE",
"105 386 OFFCURVE",
"56 367 CURVE",
"87 349 LINE",
"124 370 OFFCURVE",
"155 415 OFFCURVE",
"155 473 CURVE SMOOTH",
"155 550 OFFCURVE",
"108 608 OFFCURVE",
"28 608 CURVE SMOOTH"
);
},
{
closed = 1;
nodes = (
"413 309 LINE",
"413 221 OFFCURVE",
"351 159 OFFCURVE",
"251 159 CURVE SMOOTH",
"156 159 OFFCURVE",
"87 219 OFFCURVE",
"87 314 CURVE",
"87 367 LINE",
"56 367 LINE",
"56 314 LINE",
"56 200 OFFCURVE",
"139 129 OFFCURVE",
"251 129 CURVE SMOOTH",
"365 129 OFFCURVE",
"428 197 OFFCURVE",
"428 264 CURVE"
);
},
{
closed = 1;
nodes = (
"413 0 LINE",
"444 0 LINE",
"444 608 LINE",
"413 608 LINE"
);
},
{
closed = 1;
nodes = (
"117 408 LINE",
"117 379 LINE",
"428 379 LINE SMOOTH",
"428 408 LINE SMOOTH"
);
},
{
closed = 1;
nodes = (
"413 608 LINE",
"413 579 LINE",
"569 579 LINE SMOOTH",
"569 608 LINE SMOOTH"
);
}
);
width = 549;
},
{
background = {
paths = (
{
closed = 1;
nodes = (
"56 486 LINE",
"98 486 OFFCURVE",
"118 447 OFFCURVE",
"118 412 CURVE SMOOTH",
"118 377 OFFCURVE",
"100 345 OFFCURVE",
"56 338 CURVE",
"158 274 LINE",
"219 298 OFFCURVE",
"256 348 OFFCURVE",
"256 415 CURVE SMOOTH",
"256 512 OFFCURVE",
"183 590 OFFCURVE",
"88 590 CURVE"
);
},
{
closed = 1;
nodes = (
"428 287 LINE",
"428 213 OFFCURVE",
"373 175 OFFCURVE",
"299 175 CURVE SMOOTH",
"228 175 OFFCURVE",
"191 216 OFFCURVE",
"191 271 CURVE SMOOTH",
"191 338 LINE",
"56 338 LINE",
"56 256 LINE",
"56 137 OFFCURVE",
"162 48 OFFCURVE",
"303 48 CURVE SMOOTH",
"406 48 OFFCURVE",
"484 111 OFFCURVE",
"484 173 CURVE"
);
},
{
closed = 1;
nodes = (
"428 0 LINE",
"565 0 LINE",
"565 574 LINE SMOOTH",
"428 574 LINE"
);
},
{
closed = 1;
nodes = (
"-20 603 LINE",
"-20 486 LINE",
"640 486 LINE",
"640 603 LINE"
);
}
);
};
layerId = "DC46B086-4DC3-4260-9EBF-C204FB70037C";
paths = (
{
closed = 1;
nodes = (
"-20 603 LINE",
"-20 486 LINE",
"56 486 LINE SMOOTH",
"98 486 OFFCURVE",
"118 447 OFFCURVE",
"118 412 CURVE SMOOTH",
"118 377 OFFCURVE",
"100 345 OFFCURVE",
"56 338 CURVE",
"158 274 LINE",
"219 298 OFFCURVE",
"256 360 OFFCURVE",
"256 427 CURVE SMOOTH",
"256 524 OFFCURVE",
"183 603 OFFCURVE",
"56 603 CURVE SMOOTH"
);
},
{
closed = 1;
nodes = (
"421 297 LINE",
"421 223 OFFCURVE",
"371 185 OFFCURVE",
"299 185 CURVE SMOOTH",
"228 185 OFFCURVE",
"191 226 OFFCURVE",
"191 281 CURVE SMOOTH",
"191 338 LINE",
"56 338 LINE",
"56 266 LINE",
"56 147 OFFCURVE",
"162 58 OFFCURVE",
"303 58 CURVE SMOOTH",
"404 58 OFFCURVE",
"477 121 OFFCURVE",
"477 183 CURVE"
);
},
{
closed = 1;
nodes = (
"421 0 LINE",
"558 0 LINE",
"558 603 LINE SMOOTH",
"421 603 LINE"
);
},
{
closed = 1;
nodes = (
"186 409 LINE",
"186 312 LINE",
"501 312 LINE",
"501 409 LINE"
);
},
{
closed = 1;
nodes = (
"428 603 LINE",
"428 486 LINE",
"633 486 LINE",
"633 603 LINE"
);
}
);
width = 613;
}
);
unicode = 0A16;
},
{
glyphname = grGA;
lastChange = "2015-09-07 05:40:39 +0000";
layers = (
{
background = {
paths = (
{
closed = 1;
nodes = (
"339 607 LINE",
"339 167 LINE SMOOTH",
"339 83 OFFCURVE",
"289 24 OFFCURVE",
"206 24 CURVE SMOOTH",
"123 24 OFFCURVE",
"73 88 OFFCURVE",
"73 167 CURVE SMOOTH",
"73 246 OFFCURVE",
"127 310 OFFCURVE",
"211 310 CURVE SMOOTH",
"352 310 LINE",
"352 340 LINE",
"211 340 LINE SMOOTH",
"112 340 OFFCURVE",
"42 269 OFFCURVE",
"42 167 CURVE SMOOTH",
"42 64 OFFCURVE",
"108 -5 OFFCURVE",
"206 -5 CURVE SMOOTH",
"306 -5 OFFCURVE",
"370 67 OFFCURVE",
"370 167 CURVE SMOOTH",
"370 607 LINE"
);
},
{
closed = 1;
nodes = (
"568 0 LINE",
"599 0 LINE",
"599 608 LINE",
"568 608 LINE"
);
},
{
closed = 1;
nodes = (
"-26 608 LINE",
"-26 579 LINE",
"724 579 LINE SMOOTH",
"724 608 LINE SMOOTH"
);
}
);
};
layerId = "6FDD6D71-1703-4D62-BB36-645A25EBC0A3";
paths = (
{
closed = 1;
nodes = (
"346 608 LINE",
"346 172 LINE SMOOTH",
"346 91 OFFCURVE",
"300 29 OFFCURVE",
"214 29 CURVE SMOOTH",
"130 29 OFFCURVE",
"82 90 OFFCURVE",
"82 171 CURVE SMOOTH",
"82 252 OFFCURVE",
"130 313 OFFCURVE",
"224 313 CURVE SMOOTH",
"369 313 LINE",
"369 343 LINE",
"224 343 LINE SMOOTH",
"117 343 OFFCURVE",
"51 275 OFFCURVE",
"51 171 CURVE SMOOTH",
"51 66 OFFCURVE",
"113 0 OFFCURVE",
"214 0 CURVE SMOOTH",
"317 0 OFFCURVE",
"377 67 OFFCURVE",
"377 172 CURVE SMOOTH",
"377 608 LINE"
);
},
{
closed = 1;
nodes = (
"580 0 LINE",
"611 0 LINE",
"611 608 LINE",
"580 608 LINE"
);
},
{
closed = 1;
nodes = (
"-20 608 LINE",
"-20 579 LINE",
"736 579 LINE SMOOTH",
"736 608 LINE SMOOTH"
);
}
);
width = 716;
},
{
background = {
paths = (
{
closed = 1;
nodes = (
"547 0 LINE",
"684 0 LINE",
"684 603 LINE",
"547 603 LINE"
);
},
{
closed = 1;
nodes = (
"293 603 LINE",
"293 184 LINE SMOOTH",
"293 142 OFFCURVE",
"271 115 OFFCURVE",
"231 115 CURVE SMOOTH",
"191 115 OFFCURVE",
"169 142 OFFCURVE",
"169 177 CURVE SMOOTH",
"169 212 OFFCURVE",
"191 239 OFFCURVE",
"231 239 CURVE SMOOTH",
"392 239 LINE",
"392 362 LINE",
"226 362 LINE SMOOTH",
"116 362 OFFCURVE",
"32 287 OFFCURVE",
"32 175 CURVE SMOOTH",
"32 63 OFFCURVE",
"116 -7 OFFCURVE",
"226 -7 CURVE SMOOTH",
"339 -7 OFFCURVE",
"430 63 OFFCURVE",
"430 188 CURVE SMOOTH",
"430 603 LINE"
);
},
{
closed = 1;
nodes = (
"-20 603 LINE",
"-20 486 LINE",
"759 486 LINE",
"759 603 LINE"
);
}
);
};
layerId = "DC46B086-4DC3-4260-9EBF-C204FB70037C";
paths = (
{
closed = 1;
nodes = (
"299 603 LINE",
"299 184 LINE SMOOTH",
"299 142 OFFCURVE",
"277 115 OFFCURVE",
"234 115 CURVE SMOOTH",
"191 115 OFFCURVE",
"169 147 OFFCURVE",
"169 182 CURVE SMOOTH",
"169 217 OFFCURVE",
"191 249 OFFCURVE",
"237 249 CURVE SMOOTH",
"398 249 LINE",
"398 372 LINE",
"232 372 LINE SMOOTH",
"116 372 OFFCURVE",
"32 292 OFFCURVE",
"32 180 CURVE SMOOTH",
"32 68 OFFCURVE",
"116 -7 OFFCURVE",
"232 -7 CURVE SMOOTH",
"345 -7 OFFCURVE",
"436 63 OFFCURVE",
"436 188 CURVE SMOOTH",
"436 603 LINE"
);
},
{
closed = 1;
nodes = (
"553 0 LINE",
"690 0 LINE",
"690 603 LINE",
"553 603 LINE"
);
},
{
closed = 1;
nodes = (
"-20 603 LINE",
"-20 486 LINE",
"765 486 LINE",
"765 603 LINE"
);
}
);
width = 745;
},
{
associatedMasterId = "6FDD6D71-1703-4D62-BB36-645A25EBC0A3";
background = {
paths = (
{
closed = 1;
nodes = (
"345 607 LINE",
"345 167 LINE SMOOTH",
"345 83 OFFCURVE",
"295 24 OFFCURVE",
"212 24 CURVE SMOOTH",
"129 24 OFFCURVE",
"79 88 OFFCURVE",
"79 167 CURVE SMOOTH",
"79 246 OFFCURVE",
"133 310 OFFCURVE",
"217 310 CURVE SMOOTH",
"358 310 LINE",
"358 340 LINE",
"217 340 LINE SMOOTH",
"118 340 OFFCURVE",
"48 269 OFFCURVE",
"48 167 CURVE SMOOTH",
"48 64 OFFCURVE",
"114 -5 OFFCURVE",
"212 -5 CURVE SMOOTH",
"312 -5 OFFCURVE",
"376 67 OFFCURVE",
"376 167 CURVE SMOOTH",
"376 607 LINE"
);
},
{
closed = 1;
nodes = (
"574 0 LINE",
"605 0 LINE",
"605 608 LINE",
"574 608 LINE"
);
},
{
closed = 1;
nodes = (
"-20 608 LINE",
"-20 579 LINE",
"730 579 LINE SMOOTH",
"730 608 LINE SMOOTH"
);
}
);
};
layerId = "527BFC52-27EA-4D14-9C12-E5F66D442C54";
name = "Light Sep 4 15, 12:36";
paths = (
{
closed = 1;
nodes = (
"355 607 LINE",
"355 165 LINE SMOOTH",
"355 81 OFFCURVE",
"307 22 OFFCURVE",
"212 22 CURVE SMOOTH",
"119 22 OFFCURVE",
"69 91 OFFCURVE",
"69 175 CURVE SMOOTH",
"69 259 OFFCURVE",
"119 328 OFFCURVE",
"222 328 CURVE SMOOTH",
"368 328 LINE",
"368 358 LINE",
"222 358 LINE SMOOTH",
"106 358 OFFCURVE",
"38 282 OFFCURVE",
"38 175 CURVE SMOOTH",
"38 67 OFFCURVE",
"102 -7 OFFCURVE",
"212 -7 CURVE SMOOTH",
"324 -7 OFFCURVE",
"386 65 OFFCURVE",
"386 165 CURVE SMOOTH",
"386 607 LINE"
);
},
{
closed = 1;
nodes = (
"584 0 LINE",
"615 0 LINE",
"615 608 LINE",
"584 608 LINE"
);
},
{
closed = 1;
nodes = (
"-20 608 LINE",
"-20 579 LINE",
"740 579 LINE SMOOTH",
"740 608 LINE SMOOTH"
);
}
);
width = 720;
}
);
unicode = 0A17;
},
{
glyphname = grGHA;
lastChange = "2015-09-07 05:40:39 +0000";
layers = (
{
background = {
paths = (
{
closed = 0;
nodes = (
"568 309 LINE",
"568 450 LINE",
"537 450 LINE",
"537 309 LINE",
"537 231 OFFCURVE",
"520 159 OFFCURVE",
"435 159 CURVE SMOOTH",
"350 159 OFFCURVE",
"327 224 OFFCURVE",
"327 314 CURVE",
"327 367 LINE",
"296 367 LINE",
"296 314 LINE",
"296 205 OFFCURVE",
"336 129 OFFCURVE",
"435 129 CURVE SMOOTH",
"534 129 OFFCURVE",
"552 207 OFFCURVE",
"552 264 CURVE"
);
}
);
};
guideLines = (
{
position = "{307, 129}";
}
);
layerId = "6FDD6D71-1703-4D62-BB36-645A25EBC0A3";
paths = (
{
closed = 1;
nodes = (
"-20 608 LINE",
"-20 579 LINE",
"28 579 LINE SMOOTH",
"92 579 OFFCURVE",
"124 529 OFFCURVE",
"124 473 CURVE SMOOTH",
"124 428 OFFCURVE",
"105 386 OFFCURVE",
"56 367 CURVE",
"87 349 LINE",
"124 370 OFFCURVE",
"155 415 OFFCURVE",
"155 473 CURVE SMOOTH",
"155 550 OFFCURVE",
"108 608 OFFCURVE",
"28 608 CURVE SMOOTH"
);
},
{
closed = 1;
nodes = (
"320 204 OFFCURVE",
"353 129 OFFCURVE",
"445 129 CURVE SMOOTH",
"529 129 OFFCURVE",
"564 185 OFFCURVE",
"564 246 CURVE",
"549 295 LINE",
"549 199 OFFCURVE",
"514 159 OFFCURVE",
"445 159 CURVE SMOOTH",
"368 159 OFFCURVE",
"340 224 OFFCURVE",
"340 309 CURVE SMOOTH",
"340 440 LINE",
"309 440 LINE",
"309 309 LINE SMOOTH",
"309 231 OFFCURVE",
"278 159 OFFCURVE",
"198 159 CURVE SMOOTH",
"118 159 OFFCURVE",
"87 224 OFFCURVE",
"87 314 CURVE SMOOTH",
"87 367 LINE",
"56 367 LINE",
"56 314 LINE SMOOTH",
"56 205 OFFCURVE",
"104 129 OFFCURVE",
"198 129 CURVE SMOOTH",
"293 129 OFFCURVE",
"328 204 OFFCURVE",
"328 264 CURVE",
"320 264 LINE"
);
},
{
closed = 1;
nodes = (
"549 0 LINE",
"580 0 LINE",
"580 608 LINE",
"549 608 LINE"
);
},
{
closed = 1;
nodes = (
"549 608 LINE",
"549 579 LINE",
"705 579 LINE SMOOTH",
"705 608 LINE SMOOTH"
);
}
);
width = 685;
},
{
background = {
paths = (
{
closed = 1;
nodes = (
"471 493 LINE",
"334 493 LINE",
"334 274 LINE SMOOTH",
"334 126 OFFCURVE",
"442 58 OFFCURVE",
"542 58 CURVE SMOOTH",
"595 58 OFFCURVE",
"644 76 OFFCURVE",
"658 126 CURVE",
"623 274 LINE",
"623 207 OFFCURVE",
"590 186 OFFCURVE",
"544 186 CURVE SMOOTH",
"511 186 OFFCURVE",
"471 207 OFFCURVE",
"471 274 CURVE"
);
}
);
};
guideLines = (
{
position = "{417, 261}";
showMeasurement = 1;
}
);
layerId = "DC46B086-4DC3-4260-9EBF-C204FB70037C";
paths = (
{
closed = 1;
nodes = (
"-20 603 LINE",
"-20 486 LINE",
"56 486 LINE SMOOTH",
"98 486 OFFCURVE",
"118 447 OFFCURVE",
"118 412 CURVE SMOOTH",
"118 377 OFFCURVE",
"100 345 OFFCURVE",
"56 338 CURVE",
"158 274 LINE",
"219 298 OFFCURVE",
"256 360 OFFCURVE",
"256 427 CURVE SMOOTH",
"256 524 OFFCURVE",
"183 603 OFFCURVE",
"56 603 CURVE SMOOTH"
);
},
{
closed = 1;
nodes = (
"375 120 OFFCURVE",
"422 63 OFFCURVE",
"496 63 CURVE SMOOTH",
"593 63 OFFCURVE",
"611 128 OFFCURVE",
"611 154 CURVE",
"574 287 LINE",
"574 234 OFFCURVE",
"566 193 OFFCURVE",
"516 193 CURVE SMOOTH",
"461 193 OFFCURVE",
"448 231 OFFCURVE",
"448 302 CURVE SMOOTH",
"448 452 LINE",
"333 452 LINE",
"333 302 LINE SMOOTH",
"333 231 OFFCURVE",
"318 190 OFFCURVE",
"262 190 CURVE SMOOTH",
"206 190 OFFCURVE",
"191 231 OFFCURVE",
"191 286 CURVE SMOOTH",
"191 338 LINE",
"56 338 LINE",
"56 266 LINE SMOOTH",
"56 147 OFFCURVE",
"136 63 OFFCURVE",
"252 63 CURVE SMOOTH",
"345 63 OFFCURVE",
"405 120 OFFCURVE",
"405 188 CURVE",
"375 188 LINE"
);
},
{
closed = 1;
nodes = (
"574 0 LINE",
"711 0 LINE",
"711 603 LINE SMOOTH",
"574 603 LINE"
);
},
{
closed = 1;
nodes = (
"574 603 LINE",
"574 486 LINE",
"786 486 LINE",
"786 603 LINE"
);
}
);
width = 766;
},
{
associatedMasterId = "DC46B086-4DC3-4260-9EBF-C204FB70037C";
background = {
paths = (
{
closed = 1;
nodes = (
"471 493 LINE",
"334 493 LINE",
"334 274 LINE SMOOTH",
"334 126 OFFCURVE",
"442 58 OFFCURVE",
"542 58 CURVE SMOOTH",
"595 58 OFFCURVE",
"644 76 OFFCURVE",
"658 126 CURVE",
"623 274 LINE",
"623 207 OFFCURVE",
"590 186 OFFCURVE",
"544 186 CURVE SMOOTH",
"511 186 OFFCURVE",
"471 207 OFFCURVE",
"471 274 CURVE"
);
}
);
};
guideLines = (
{
position = "{417, 261}";
showMeasurement = 1;
}
);
layerId = "EB4C0C6B-2470-444A-A2C4-94B57AF6D851";
name = "Bold Sep 3 15, 15:49";
paths = (
{
closed = 1;
nodes = (
"56 486 LINE",
"98 486 OFFCURVE",
"118 447 OFFCURVE",
"118 412 CURVE SMOOTH",
"118 377 OFFCURVE",
"100 345 OFFCURVE",
"56 338 CURVE",
"158 274 LINE",
"219 298 OFFCURVE",
"256 360 OFFCURVE",
"256 427 CURVE SMOOTH",
"256 524 OFFCURVE",
"183 603 OFFCURVE",
"56 603 CURVE"
);
},
{
closed = 1;
nodes = (
"622 0 LINE",
"759 0 LINE",
"759 603 LINE SMOOTH",
"622 603 LINE"
);
},
{
closed = 1;
nodes = (
"622 603 LINE",
"622 486 LINE",
"834 486 LINE",
"834 603 LINE"
);
},
{
closed = 1;
nodes = (
"-20 603 LINE",
"-20 486 LINE",
"56 486 LINE",
"56 603 LINE"
);
},
{
closed = 1;
nodes = (
"384 116 OFFCURVE",
"430 53 OFFCURVE",
"532 53 CURVE SMOOTH",
"634 53 OFFCURVE",
"659 118 OFFCURVE",
"659 144 CURVE",
"622 277 LINE SMOOTH",
"622 234 OFFCURVE",
"612 183 OFFCURVE",
"552 183 CURVE SMOOTH",
"492 183 OFFCURVE",
"472 221 OFFCURVE",
"472 292 CURVE SMOOTH",
"472 452 LINE",
"357 452 LINE",
"357 292 LINE SMOOTH",
"357 221 OFFCURVE",
"335 180 OFFCURVE",
"274 180 CURVE SMOOTH",
"213 180 OFFCURVE",
"191 221 OFFCURVE",
"191 276 CURVE SMOOTH",
"191 338 LINE",
"56 338 LINE",
"56 256 LINE SMOOTH",
"56 137 OFFCURVE",
"143 53 OFFCURVE",
"264 53 CURVE SMOOTH",
"355 53 OFFCURVE",
"413 116 OFFCURVE",
"413 178 CURVE",
"384 178 LINE"
);
}
);
width = 887;
},
{
associatedMasterId = "6FDD6D71-1703-4D62-BB36-645A25EBC0A3";
layerId = "516A7FD4-0747-48F5-8CD2-6B0BFBE57E95";
name = "Light Sep 3 15, 15:58";
paths = (
{
closed = 1;
nodes = (
"-20 608 LINE",
"-20 579 LINE",
"28 579 LINE SMOOTH",
"92 579 OFFCURVE",
"124 529 OFFCURVE",
"124 473 CURVE SMOOTH",
"124 428 OFFCURVE",
"105 386 OFFCURVE",
"56 367 CURVE",
"87 349 LINE",
"124 370 OFFCURVE",
"155 415 OFFCURVE",
"155 473 CURVE SMOOTH",
"155 550 OFFCURVE",
"108 608 OFFCURVE",
"28 608 CURVE SMOOTH"
);
},
{
closed = 1;
nodes = (
"403 309 LINE",
"403 221 OFFCURVE",
"341 159 OFFCURVE",
"251 159 CURVE SMOOTH",
"156 159 OFFCURVE",
"87 219 OFFCURVE",
"87 314 CURVE",
"87 367 LINE",
"56 367 LINE",
"56 314 LINE",
"56 200 OFFCURVE",
"139 129 OFFCURVE",
"251 129 CURVE SMOOTH",
"355 129 OFFCURVE",
"418 197 OFFCURVE",
"418 264 CURVE"
);
},
{
closed = 1;
nodes = (
"403 0 LINE",
"434 0 LINE",
"434 608 LINE",
"403 608 LINE"
);
},
{
closed = 1;
nodes = (
"403 608 LINE",
"403 579 LINE",
"559 579 LINE SMOOTH",
"559 608 LINE SMOOTH"
);
}
);
width = 600;
}
);
unicode = 0A18;
},
{
glyphname = grNGA;
lastChange = "2015-09-15 08:02:16 +0000";
layers = (
{
layerId = "6FDD6D71-1703-4D62-BB36-645A25EBC0A3";
paths = (
{
closed = 1;
nodes = (
"97 400 LINE",
"128 400 LINE",
"128 608 LINE",
"97 608 LINE"
);
},
{
closed = 1;
nodes = (
"48 65 OFFCURVE",
"106 -4 OFFCURVE",
"220 -4 CURVE SMOOTH",
"366 -4 OFFCURVE",
"454 96 OFFCURVE",
"454 226 CURVE SMOOTH",
"454 354 OFFCURVE",
"363 429 OFFCURVE",
"247 429 CURVE SMOOTH",
"97 429 LINE",
"97 400 LINE",
"247 400 LINE SMOOTH",
"342 400 OFFCURVE",
"423 339 OFFCURVE",
"423 226 CURVE SMOOTH",
"423 107 OFFCURVE",
"343 25 OFFCURVE",
"220 25 CURVE SMOOTH",
"131 25 OFFCURVE",
"79 77 OFFCURVE",
"79 140 CURVE SMOOTH",
"79 202 OFFCURVE",
"123 233 OFFCURVE",
"172 233 CURVE SMOOTH",
"257 233 OFFCURVE",
"301 174 OFFCURVE",
"317 44 CURVE",
"329 -83 LINE",
"356 -79 LINE",
"345 58 LINE",
"332 185 OFFCURVE",
"272 263 OFFCURVE",
"172 263 CURVE SMOOTH",
"104 263 OFFCURVE",
"48 218 OFFCURVE",
"48 140 CURVE SMOOTH"
);
},
{
closed = 1;
nodes = (
"-20 579 LINE SMOOTH",
"522 579 LINE",
"522 608 LINE",
"-20 608 LINE SMOOTH"
);
}
);
width = 502;
},
{
layerId = "DC46B086-4DC3-4260-9EBF-C204FB70037C";
paths = (
{
closed = 1;
nodes = (
"78 336 LINE",
"214 336 LINE",
"214 603 LINE",
"78 603 LINE"
);
},
{
closed = 1;
nodes = (
"32 57 OFFCURVE",
"125 -11 OFFCURVE",
"244 -11 CURVE SMOOTH",
"382 -11 OFFCURVE",
"500 83 OFFCURVE",
"500 218 CURVE SMOOTH",
"500 372 OFFCURVE",
"381 444 OFFCURVE",
"269 444 CURVE SMOOTH",
"78 444 LINE",
"78 336 LINE",
"259 336 LINE SMOOTH",
"320 336 OFFCURVE",
"363 293 OFFCURVE",
"363 221 CURVE SMOOTH",
"363 144 OFFCURVE",
"307 101 OFFCURVE",
"237 101 CURVE SMOOTH",
"183 101 OFFCURVE",
"155 123 OFFCURVE",
"155 148 CURVE SMOOTH",
"155 167 OFFCURVE",
"169 183 OFFCURVE",
"193 183 CURVE SMOOTH",
"226 183 OFFCURVE",
"246 159 OFFCURVE",
"250 92 CURVE SMOOTH",
"259 -76 LINE",
"366 -73 LINE",
"357 123 LINE SMOOTH",
"352 229 OFFCURVE",
"285 295 OFFCURVE",
"188 295 CURVE SMOOTH",
"102 295 OFFCURVE",
"32 243 OFFCURVE",
"32 151 CURVE SMOOTH"
);
},
{
closed = 1;
nodes = (
"-20 486 LINE",
"552 486 LINE",
"552 603 LINE",
"-20 603 LINE"
);
}
);
width = 532;
},
{
associatedMasterId = "6FDD6D71-1703-4D62-BB36-645A25EBC0A3";
layerId = "E1B75BDA-FE79-47D2-83CC-90AD821997C9";
name = "Light Sep 2 15, 12:49";
paths = (
{
closed = 1;
nodes = (
"82 410 LINE",
"113 410 LINE",
"113 608 LINE",
"82 608 LINE"
);
},
{
closed = 1;
nodes = (
"48 65 OFFCURVE",
"106 -4 OFFCURVE",
"220 -4 CURVE SMOOTH",
"356 -4 OFFCURVE",
"449 96 OFFCURVE",
"449 226 CURVE SMOOTH",
"449 354 OFFCURVE",
"353 439 OFFCURVE",
"237 439 CURVE SMOOTH",
"82 439 LINE",
"82 410 LINE",
"237 410 LINE SMOOTH",
"332 410 OFFCURVE",
"418 339 OFFCURVE",
"418 226 CURVE SMOOTH",
"418 107 OFFCURVE",
"333 25 OFFCURVE",
"220 25 CURVE SMOOTH",
"131 25 OFFCURVE",
"79 77 OFFCURVE",
"79 140 CURVE SMOOTH",
"79 202 OFFCURVE",
"123 233 OFFCURVE",
"172 233 CURVE SMOOTH",
"221 233 OFFCURVE",
"265 202 OFFCURVE",
"265 130 CURVE SMOOTH",
"265 -50 LINE",
"295 -50 LINE",
"295 130 LINE SMOOTH",
"295 218 OFFCURVE",
"240 263 OFFCURVE",
"172 263 CURVE SMOOTH",
"104 263 OFFCURVE",
"48 218 OFFCURVE",
"48 140 CURVE SMOOTH"
);
},
{
closed = 1;
nodes = (
"-20 579 LINE SMOOTH",
"507 579 LINE",
"507 608 LINE",
"-20 608 LINE SMOOTH"
);
}
);
width = 600;
},
{
associatedMasterId = "DC46B086-4DC3-4260-9EBF-C204FB70037C";
layerId = "B197747C-40F8-4924-9D0D-FB15B5A19BE2";
name = "Bold Sep 2 15, 13:22";
paths = (
{
closed = 1;
nodes = (
"93 336 LINE",
"229 336 LINE",
"229 603 LINE",
"93 603 LINE"
);
},
{
closed = 1;
nodes = (
"32 57 OFFCURVE",
"125 -11 OFFCURVE",
"244 -11 CURVE SMOOTH",
"382 -11 OFFCURVE",
"500 83 OFFCURVE",
"500 218 CURVE SMOOTH",
"500 372 OFFCURVE",
"381 444 OFFCURVE",
"269 444 CURVE SMOOTH",
"93 444 LINE",
"93 336 LINE",
"259 336 LINE SMOOTH",
"320 336 OFFCURVE",
"363 293 OFFCURVE",
"363 221 CURVE SMOOTH",
"363 144 OFFCURVE",
"307 101 OFFCURVE",
"237 101 CURVE SMOOTH",
"183 101 OFFCURVE",
"155 123 OFFCURVE",
"155 148 CURVE SMOOTH",
"155 167 OFFCURVE",
"169 183 OFFCURVE",
"193 183 CURVE SMOOTH",
"226 183 OFFCURVE",
"248 159 OFFCURVE",
"250 92 CURVE SMOOTH",
"255 -76 LINE",
"362 -73 LINE",
"357 123 LINE SMOOTH",
"354 229 OFFCURVE",
"285 295 OFFCURVE",
"188 295 CURVE SMOOTH",
"102 295 OFFCURVE",
"32 243 OFFCURVE",
"32 151 CURVE SMOOTH"
);
},
{
closed = 1;
nodes = (
"-20 486 LINE",
"552 486 LINE",
"552 603 LINE",
"-20 603 LINE"
);
}
);
width = 600;
},
{
associatedMasterId = "DC46B086-4DC3-4260-9EBF-C204FB70037C";
layerId = "B3AA0A17-D941-476B-9D18-3ED2D5C5E645";
name = "Bold Sep 4 15, 11:42";
paths = (
{
closed = 1;
nodes = (
"93 336 LINE",
"229 336 LINE",
"229 603 LINE",
"93 603 LINE"
);
},
{
closed = 1;
nodes = (
"32 57 OFFCURVE",
"125 -11 OFFCURVE",
"244 -11 CURVE SMOOTH",
"382 -11 OFFCURVE",
"500 83 OFFCURVE",
"500 218 CURVE SMOOTH",
"500 372 OFFCURVE",
"381 444 OFFCURVE",
"269 444 CURVE SMOOTH",
"93 444 LINE",
"93 336 LINE",
"259 336 LINE SMOOTH",
"320 336 OFFCURVE",
"363 293 OFFCURVE",
"363 221 CURVE SMOOTH",
"363 144 OFFCURVE",
"307 101 OFFCURVE",
"237 101 CURVE SMOOTH",
"183 101 OFFCURVE",
"155 123 OFFCURVE",
"155 148 CURVE SMOOTH",
"155 167 OFFCURVE",
"169 183 OFFCURVE",
"193 183 CURVE SMOOTH",
"226 183 OFFCURVE",
"246 159 OFFCURVE",
"250 92 CURVE SMOOTH",
"259 -76 LINE",
"366 -73 LINE",
"357 123 LINE SMOOTH",
"352 229 OFFCURVE",
"285 295 OFFCURVE",
"188 295 CURVE SMOOTH",
"102 295 OFFCURVE",
"32 243 OFFCURVE",
"32 151 CURVE SMOOTH"
);
},
{
closed = 1;
nodes = (
"-20 486 LINE",
"552 486 LINE",
"552 603 LINE",
"-20 603 LINE"
);
}
);
width = 532;
}
);
unicode = 0A19;
},
{
glyphname = grCA;
lastChange = "2015-09-15 08:02:49 +0000";
layers = (
{
background = {
paths = (
{
closed = 1;
nodes = (
"365 348 LINE",
"140 348 LINE SMOOTH",
"116 348 OFFCURVE",
"106 357 OFFCURVE",
"106 381 CURVE",
"82 381 LINE",
"82 343 OFFCURVE",
"99 319 OFFCURVE",
"135 319 CURVE SMOOTH",
"365 319 LINE"
);
},
{
closed = 1;
nodes = (
"106 417 LINE",
"75 417 LINE",
"75 151 LINE SMOOTH",
"75 48 OFFCURVE",
"143 -7 OFFCURVE",
"230 -7 CURVE SMOOTH",
"317 -7 OFFCURVE",
"385 48 OFFCURVE",
"385 151 CURVE SMOOTH",
"385 605 LINE",
"354 605 LINE",
"354 154 LINE SMOOTH",
"354 70 OFFCURVE",
"307 23 OFFCURVE",
"230 23 CURVE SMOOTH",
"153 23 OFFCURVE",
"106 70 OFFCURVE",
"106 154 CURVE SMOOTH"
);
},
{
closed = 1;
nodes = (
"-20 608 LINE",
"-20 579 LINE",
"510 579 LINE SMOOTH",
"510 608 LINE SMOOTH"
);
}
);
};
guideLines = (
{
position = "{146, 299}";
}
);
layerId = "6FDD6D71-1703-4D62-BB36-645A25EBC0A3";
paths = (
{
closed = 1;
nodes = (
"220 339 LINE SMOOTH",
"159 339 OFFCURVE",
"106 364 OFFCURVE",
"106 433 CURVE",
"75 433 LINE",
"75 342 OFFCURVE",
"149 309 OFFCURVE",
"220 309 CURVE SMOOTH",
"375 309 LINE",
"375 339 LINE"
);
},
{
closed = 1;
nodes = (
"75 151 LINE SMOOTH",
"75 48 OFFCURVE",
"143 -7 OFFCURVE",
"230 -7 CURVE SMOOTH",
"317 -7 OFFCURVE",
"385 48 OFFCURVE",
"385 151 CURVE SMOOTH",
"385 608 LINE",
"354 608 LINE",
"354 154 LINE SMOOTH",
"354 70 OFFCURVE",
"307 23 OFFCURVE",
"230 23 CURVE SMOOTH",
"153 23 OFFCURVE",
"106 70 OFFCURVE",
"106 154 CURVE SMOOTH",
"106 437 LINE",
"75 437 LINE"
);
},
{
closed = 1;
nodes = (
"-20 608 LINE",
"-20 579 LINE",
"510 579 LINE SMOOTH",
"510 608 LINE SMOOTH"
);
}
);
width = 490;
},
{
background = {
paths = (
{
closed = 1;
nodes = (
"369 147 LINE",
"359 136 OFFCURVE",
"328 110 OFFCURVE",
"277 110 CURVE SMOOTH",
"213 110 OFFCURVE",
"190 161 OFFCURVE",
"190 202 CURVE SMOOTH",
"190 340 LINE",
"53 340 LINE SMOOTH",
"53 196 LINE SMOOTH",
"53 88 OFFCURVE",
"120 -19 OFFCURVE",
"273 -17 CURVE SMOOTH",
"360 -16 OFFCURVE",
"419 23 OFFCURVE",
"440 46 CURVE"
);
}
);
};
layerId = "DC46B086-4DC3-4260-9EBF-C204FB70037C";
paths = (
{
closed = 1;
nodes = (
"234 358 LINE SMOOTH",
"204 358 OFFCURVE",
"187 374 OFFCURVE",
"187 404 CURVE",
"116 404 LINE",
"116 304 OFFCURVE",
"148 241 OFFCURVE",
"234 241 CURVE SMOOTH",
"445 241 LINE",
"445 358 LINE"
);
},
{
closed = 1;
nodes = (
"50 186 LINE SMOOTH",
"50 38 OFFCURVE",
"148 -17 OFFCURVE",
"255 -17 CURVE SMOOTH",
"371 -17 OFFCURVE",
"460 38 OFFCURVE",
"460 186 CURVE SMOOTH",
"460 603 LINE",
"323 603 LINE",
"323 188 LINE SMOOTH",
"323 144 OFFCURVE",
"306 111 OFFCURVE",
"255 111 CURVE SMOOTH",
"205 111 OFFCURVE",
"187 144 OFFCURVE",
"187 188 CURVE SMOOTH",
"187 421 LINE",
"50 421 LINE"
);
},
{
closed = 1;
nodes = (
"-20 603 LINE",
"-20 486 LINE",
"535 486 LINE",
"535 603 LINE"
);
}
);
width = 515;
},
{
associatedMasterId = "DC46B086-4DC3-4260-9EBF-C204FB70037C";
background = {
paths = (
{
closed = 1;
nodes = (
"187 402 LINE",
"50 402 LINE",
"50 196 LINE SMOOTH",
"50 48 OFFCURVE",
"148 -17 OFFCURVE",
"252 -17 CURVE SMOOTH",
"365 -17 OFFCURVE",
"454 48 OFFCURVE",
"454 196 CURVE SMOOTH",
"454 402 LINE",
"317 402 LINE",
"317 198 LINE SMOOTH",
"317 141 OFFCURVE",
"297 111 OFFCURVE",
"252 111 CURVE SMOOTH",
"208 111 OFFCURVE",
"187 141 OFFCURVE",
"187 198 CURVE SMOOTH"
);
}
);
};
layerId = "D76BD647-EDDB-4C4D-AB11-0B943D6A10E5";
name = "Bold Sep 2 15, 14:03";
paths = (
{
closed = 1;
nodes = (
"439 361 LINE",
"237 361 LINE SMOOTH",
"207 361 OFFCURVE",
"187 377 OFFCURVE",
"187 407 CURVE",
"116 407 LINE",
"116 307 OFFCURVE",
"151 244 OFFCURVE",
"237 244 CURVE SMOOTH",
"439 244 LINE"
);
},
{
closed = 1;
nodes = (
"-20 603 LINE",
"-20 486 LINE",
"529 486 LINE",
"529 603 LINE"
);
},
{
closed = 1;
nodes = (
"187 424 LINE",
"50 424 LINE",
"50 181 LINE SMOOTH",
"50 33 OFFCURVE",
"148 -17 OFFCURVE",
"252 -17 CURVE SMOOTH",
"365 -17 OFFCURVE",
"454 33 OFFCURVE",
"454 181 CURVE SMOOTH",
"454 603 LINE",
"317 603 LINE",
"317 183 LINE SMOOTH",
"317 139 OFFCURVE",
"300 111 OFFCURVE",
"252 111 CURVE SMOOTH",
"205 111 OFFCURVE",
"187 139 OFFCURVE",
"187 183 CURVE SMOOTH"
);
}
);
width = 509;
},
{
associatedMasterId = "DC46B086-4DC3-4260-9EBF-C204FB70037C";
background = {
paths = (
{
closed = 1;
nodes = (
"366 147 LINE",
"356 136 OFFCURVE",
"325 110 OFFCURVE",
"274 110 CURVE SMOOTH",
"210 110 OFFCURVE",
"187 161 OFFCURVE",
"187 202 CURVE SMOOTH",
"187 340 LINE",
"50 340 LINE SMOOTH",
"50 196 LINE SMOOTH",
"50 88 OFFCURVE",
"117 -19 OFFCURVE",
"270 -17 CURVE SMOOTH",
"357 -16 OFFCURVE",
"416 23 OFFCURVE",
"437 46 CURVE"
);
}
);
};
layerId = "8F7AD24B-CBFF-4850-B59D-46555D64AD8C";
name = "Bold Sep 2 15, 14:05";
paths = (
{
closed = 1;
nodes = (
"439 361 LINE",
"237 361 LINE SMOOTH",
"207 361 OFFCURVE",
"187 377 OFFCURVE",
"187 407 CURVE",
"116 407 LINE",
"116 307 OFFCURVE",
"151 244 OFFCURVE",
"237 244 CURVE SMOOTH",
"439 244 LINE"
);
},
{
closed = 1;
nodes = (
"-20 603 LINE",
"-20 486 LINE",
"559 486 LINE",
"559 603 LINE"
);
},
{
closed = 1;
nodes = (
"187 424 LINE",
"50 424 LINE",
"50 221 LINE SMOOTH",
"50 73 OFFCURVE",
"131 -17 OFFCURVE",
"282 -17 CURVE SMOOTH",
"395 -17 OFFCURVE",
"484 33 OFFCURVE",
"484 181 CURVE SMOOTH",
"484 603 LINE",
"347 603 LINE",
"347 183 LINE SMOOTH",
"347 139 OFFCURVE",
"330 111 OFFCURVE",
"282 111 CURVE SMOOTH",
"221 111 OFFCURVE",
"187 155 OFFCURVE",
"187 223 CURVE SMOOTH"
);
}
);
width = 509;
},
{
associatedMasterId = "6FDD6D71-1703-4D62-BB36-645A25EBC0A3";
background = {
paths = (
{
closed = 1;
nodes = (
"351 58 OFFCURVE",
"288 23 OFFCURVE",
"229 23 CURVE SMOOTH",
"166 23 OFFCURVE",
"106 58 OFFCURVE",
"106 147 CURVE SMOOTH",
"106 605 LINE",
"75 605 LINE",
"75 144 LINE SMOOTH",
"75 36 OFFCURVE",
"155 -7 OFFCURVE",
"229 -7 CURVE SMOOTH",
"298 -7 OFFCURVE",
"382 36 OFFCURVE",
"382 144 CURVE SMOOTH",
"382 412 LINE",
"351 412 LINE",
"351 147 LINE SMOOTH"
);
}
);
};
layerId = "1674D6D3-8B45-4AE6-A21B-6FB13CC2132E";
name = "Light Sep 2 15, 14:09";
paths = (
{
closed = 1;
nodes = (
"365 352 LINE",
"140 352 LINE SMOOTH",
"116 352 OFFCURVE",
"106 361 OFFCURVE",
"106 385 CURVE",
"82 385 LINE",
"82 347 OFFCURVE",
"99 323 OFFCURVE",
"135 323 CURVE SMOOTH",
"365 323 LINE"
);
},
{
closed = 1;
nodes = (
"-28 608 LINE",
"-28 579 LINE",
"507 579 LINE SMOOTH",
"507 608 LINE SMOOTH"
);
},
{
closed = 1;
nodes = (
"106 422 LINE",
"75 422 LINE",
"75 166 LINE SMOOTH",
"75 53 OFFCURVE",
"133 -7 OFFCURVE",
"230 -7 CURVE SMOOTH",
"327 -7 OFFCURVE",
"385 53 OFFCURVE",
"385 166 CURVE SMOOTH",
"385 605 LINE",
"354 605 LINE",
"354 169 LINE SMOOTH",
"354 75 OFFCURVE",
"317 23 OFFCURVE",
"230 23 CURVE SMOOTH",
"143 23 OFFCURVE",
"106 75 OFFCURVE",
"106 169 CURVE SMOOTH"
);
}
);
width = 600;
},
{
associatedMasterId = "6FDD6D71-1703-4D62-BB36-645A25EBC0A3";
background = {
paths = (
{
closed = 1;
nodes = (
"297 23 OFFCURVE",
"353 79 OFFCURVE",
"353 147 CURVE SMOOTH",
"353 214 OFFCURVE",
"297 270 OFFCURVE",
"230 270 CURVE SMOOTH",
"162 270 OFFCURVE",
"106 214 OFFCURVE",
"106 147 CURVE SMOOTH",
"106 79 OFFCURVE",
"162 23 OFFCURVE",
"230 23 CURVE SMOOTH"
);
}
);
};
guideLines = (
{
position = "{146, 314}";
}
);
layerId = "1DDD673B-D622-4543-B5A4-843D58A56180";
name = "Light Sep 2 15, 15:52";
paths = (
{
closed = 1;
nodes = (
"365 348 LINE",
"140 348 LINE SMOOTH",
"116 348 OFFCURVE",
"106 357 OFFCURVE",
"106 381 CURVE",
"82 381 LINE",
"82 343 OFFCURVE",
"99 319 OFFCURVE",
"135 319 CURVE SMOOTH",
"365 319 LINE"
);
},
{
closed = 1;
nodes = (
"106 417 LINE",
"75 417 LINE",
"75 151 LINE SMOOTH",
"75 48 OFFCURVE",
"143 -7 OFFCURVE",
"230 -7 CURVE SMOOTH",
"317 -7 OFFCURVE",
"385 48 OFFCURVE",
"385 151 CURVE SMOOTH",
"385 605 LINE",
"354 605 LINE",
"354 154 LINE SMOOTH",
"354 70 OFFCURVE",
"307 23 OFFCURVE",
"230 23 CURVE SMOOTH",
"153 23 OFFCURVE",
"106 70 OFFCURVE",
"106 154 CURVE SMOOTH"
);
},
{
closed = 1;
nodes = (
"-20 608 LINE",
"-20 579 LINE",
"510 579 LINE SMOOTH",
"510 608 LINE SMOOTH"
);
}
);
width = 490;
},
{
associatedMasterId = "6FDD6D71-1703-4D62-BB36-645A25EBC0A3";
background = {
paths = (
{
closed = 1;
nodes = (
"365 348 LINE",
"140 348 LINE SMOOTH",
"116 348 OFFCURVE",
"106 357 OFFCURVE",
"106 381 CURVE",
"82 381 LINE",
"82 343 OFFCURVE",
"99 319 OFFCURVE",
"135 319 CURVE SMOOTH",
"365 319 LINE"
);
},
{
closed = 1;
nodes = (
"106 417 LINE",
"75 417 LINE",
"75 151 LINE SMOOTH",
"75 48 OFFCURVE",
"143 -7 OFFCURVE",
"230 -7 CURVE SMOOTH",
"317 -7 OFFCURVE",
"385 48 OFFCURVE",
"385 151 CURVE SMOOTH",
"385 605 LINE",
"354 605 LINE",
"354 154 LINE SMOOTH",
"354 70 OFFCURVE",
"307 23 OFFCURVE",
"230 23 CURVE SMOOTH",
"153 23 OFFCURVE",
"106 70 OFFCURVE",
"106 154 CURVE SMOOTH"
);
},
{
closed = 1;
nodes = (
"-20 608 LINE",
"-20 579 LINE",
"510 579 LINE SMOOTH",
"510 608 LINE SMOOTH"
);
}
);
};
guideLines = (
{
position = "{146, 314}";
}
);
layerId = "A47EB578-F983-400A-B7F6-FC40CCF454C9";
name = "Light Sep 2 15, 15:54";
paths = (
{
closed = 1;
nodes = (
"106 417 LINE",
"75 417 LINE",
"75 151 LINE SMOOTH",
"75 48 OFFCURVE",
"143 -7 OFFCURVE",
"230 -7 CURVE SMOOTH",
"317 -7 OFFCURVE",
"385 48 OFFCURVE",
"385 151 CURVE SMOOTH",
"385 420 LINE",
"354 420 LINE",
"354 154 LINE SMOOTH",
"354 70 OFFCURVE",
"307 23 OFFCURVE",
"230 23 CURVE SMOOTH",
"153 23 OFFCURVE",
"106 70 OFFCURVE",
"106 154 CURVE SMOOTH"
);
},
{
closed = 1;
nodes = (
"-20 608 LINE",
"-20 579 LINE",
"510 579 LINE SMOOTH",
"510 608 LINE SMOOTH"
);
},
{
closed = 1;
nodes = (
"75 413 LINE",
"75 312 OFFCURVE",
"159 279 OFFCURVE",
"230 279 CURVE SMOOTH",
"302 279 OFFCURVE",
"385 322 OFFCURVE",
"385 420 CURVE SMOOTH",
"385 592 LINE",
"354 592 LINE",
"354 423 LINE SMOOTH",
"354 344 OFFCURVE",
"291 309 OFFCURVE",
"230 309 CURVE SMOOTH",
"169 309 OFFCURVE",
"106 334 OFFCURVE",
"106 413 CURVE"
);
}
);
width = 490;
}
);
unicode = 0A1A;
},
{
glyphname = grCHA;
lastChange = "2015-09-07 05:40:39 +0000";
layers = (
{
background = {
paths = (
{
closed = 1;
nodes = (
"346 608 LINE",
"346 443 LINE",
"377 443 LINE",
"377 608 LINE"
);
},
{
closed = 1;
nodes = (
"7 608 LINE",
"7 579 LINE",
"496 579 LINE SMOOTH",
"496 608 LINE SMOOTH"
);
},
{
closed = 1;
nodes = (
"216 269 LINE SMOOTH",
"137 269 OFFCURVE",
"106 311 OFFCURVE",
"106 360 CURVE SMOOTH",
"106 408 OFFCURVE",
"140 443 OFFCURVE",
"206 443 CURVE SMOOTH",
"377 443 LINE",
"377 473 LINE",
"206 473 LINE SMOOTH",
"119 473 OFFCURVE",
"75 423 OFFCURVE",
"75 360 CURVE SMOOTH",
"75 298 OFFCURVE",
"120 240 OFFCURVE",
"206 240 CURVE SMOOTH",
"280 240 LINE SMOOTH",
"357 240 OFFCURVE",
"400 196 OFFCURVE",
"400 137 CURVE SMOOTH",
"400 77 OFFCURVE",
"357 23 OFFCURVE",
"280 23 CURVE SMOOTH",
"221 23 LINE SMOOTH",
"144 23 OFFCURVE",
"101 77 OFFCURVE",
"101 137 CURVE",
"101 196 OFFCURVE",
"144 240 OFFCURVE",
"233 240 CURVE",
"233 266 LINE",
"131 266 OFFCURVE",
"70 216 OFFCURVE",
"70 137 CURVE",
"70 73 OFFCURVE",
"113 -7 OFFCURVE",
"221 -7 CURVE SMOOTH",
"280 -7 LINE SMOOTH",
"388 -7 OFFCURVE",
"431 73 OFFCURVE",
"431 137 CURVE SMOOTH",
"431 216 OFFCURVE",
"369 268 OFFCURVE",
"280 269 CURVE SMOOTH"
);
}
);
};
guideLines = (
{
angle = 90;
position = "{37, 95}";
showMeasurement = 1;
},
{
position = "{207, 186}";
showMeasurement = 1;
}
);
hints = (
{
horizontal = 1;
origin = "{2, 30}";
target = "{2, 23}";
},
{
horizontal = 1;
origin = "{2, 15}";
target = "{2, 0}";
},
{
horizontal = 1;
origin = "{2, 6}";
target = "{2, 9}";
},
{
horizontal = 1;
origin = "{1, 1}";
target = "{1, 0}";
},
{
origin = "{2, 12}";
target = "{2, 3}";
},
{
origin = "{0, 1}";
target = "{0, 2}";
},
{
origin = "{2, 19}";
target = "{2, 34}";
}
);
layerId = "6FDD6D71-1703-4D62-BB36-645A25EBC0A3";
paths = (
{
closed = 1;
nodes = (
"361 608 LINE",
"361 443 LINE",
"392 443 LINE",
"392 608 LINE"
);
},
{
closed = 1;
nodes = (
"-20 608 LINE",
"-20 579 LINE",
"511 579 LINE SMOOTH",
"511 608 LINE SMOOTH"
);
},
{
closed = 1;
nodes = (
"211 269 LINE SMOOTH",
"132 269 OFFCURVE",
"101 311 OFFCURVE",
"101 360 CURVE SMOOTH",
"101 408 OFFCURVE",
"135 443 OFFCURVE",
"201 443 CURVE SMOOTH",
"392 443 LINE",
"392 473 LINE",
"201 473 LINE SMOOTH",
"114 473 OFFCURVE",
"70 423 OFFCURVE",
"70 360 CURVE SMOOTH",
"70 298 OFFCURVE",
"115 240 OFFCURVE",
"201 240 CURVE SMOOTH",
"295 240 LINE SMOOTH",
"372 240 OFFCURVE",
"415 191 OFFCURVE",
"415 132 CURVE SMOOTH",
"415 72 OFFCURVE",
"372 23 OFFCURVE",
"295 23 CURVE SMOOTH",
"217 23 LINE SMOOTH",
"140 23 OFFCURVE",
"97 72 OFFCURVE",
"97 132 CURVE SMOOTH",
"97 192 OFFCURVE",
"130 240 OFFCURVE",
"241 240 CURVE",
"241 15 LINE",
"271 15 LINE",
"271 266 LINE",
"129 276 OFFCURVE",
"66 219 OFFCURVE",
"66 132 CURVE SMOOTH",
"66 68 OFFCURVE",
"109 -7 OFFCURVE",
"217 -7 CURVE SMOOTH",
"295 -7 LINE SMOOTH",
"403 -7 OFFCURVE",
"446 68 OFFCURVE",
"446 132 CURVE SMOOTH",
"446 211 OFFCURVE",
"384 269 OFFCURVE",
"295 269 CURVE SMOOTH"
);
}
);
width = 491;
},
{
background = {
paths = (
{
closed = 1;
nodes = (
"290 603 LINE",
"290 344 LINE",
"426 344 LINE",
"426 603 LINE"
);
},
{
closed = 1;
nodes = (
"-11 603 LINE",
"-11 486 LINE",
"539 486 LINE",
"539 603 LINE"
);
},
{
closed = 1;
nodes = (
"238 292 LINE SMOOTH",
"205 292 OFFCURVE",
"193 302 OFFCURVE",
"193 318 CURVE SMOOTH",
"193 334 OFFCURVE",
"206 344 OFFCURVE",
"238 344 CURVE SMOOTH",
"426 344 LINE",
"426 457 LINE",
"231 457 LINE SMOOTH",
"119 457 OFFCURVE",
"55 392 OFFCURVE",
"55 311 CURVE SMOOTH",
"55 230 OFFCURVE",
"116 175 OFFCURVE",
"223 175 CURVE",
"283 175 LINE SMOOTH",
"317 175 OFFCURVE",
"334 157 OFFCURVE",
"334 135 CURVE SMOOTH",
"334 113 OFFCURVE",
"317 95 OFFCURVE",
"283 95 CURVE SMOOTH",
"219 95 LINE SMOOTH",
"185 95 OFFCURVE",
"168 113 OFFCURVE",
"168 135 CURVE SMOOTH",
"168 157 OFFCURVE",
"185 175 OFFCURVE",
"223 175 CURVE",
"223 90 LINE",
"279 90 LINE",
"245 256 LINE",
"100 256 OFFCURVE",
"38 205 OFFCURVE",
"38 125 CURVE SMOOTH",
"38 49 OFFCURVE",
"103 -17 OFFCURVE",
"219 -17 CURVE SMOOTH",
"283 -17 LINE SMOOTH",
"399 -17 OFFCURVE",
"473 49 OFFCURVE",
"473 141 CURVE SMOOTH",
"473 232 OFFCURVE",
"410 292 OFFCURVE",
"317 292 CURVE SMOOTH"
);
}
);
};
guideLines = (
{
angle = 90;
position = "{283, 140}";
},
{
position = "{313, 148}";
showMeasurement = 1;
}
);
layerId = "DC46B086-4DC3-4260-9EBF-C204FB70037C";
paths = (
{
closed = 1;
nodes = (
"290 603 LINE",
"290 344 LINE",
"426 344 LINE",
"426 603 LINE"
);
},
{
closed = 1;
nodes = (
"-20 603 LINE",
"-20 486 LINE",
"539 486 LINE",
"539 603 LINE"
);
},
{
closed = 1;
nodes = (
"238 292 LINE SMOOTH",
"205 292 OFFCURVE",
"193 302 OFFCURVE",
"193 318 CURVE SMOOTH",
"193 334 OFFCURVE",
"206 344 OFFCURVE",
"238 344 CURVE SMOOTH",
"426 344 LINE",
"426 457 LINE",
"231 457 LINE SMOOTH",
"119 457 OFFCURVE",
"55 392 OFFCURVE",
"55 311 CURVE SMOOTH",
"55 230 OFFCURVE",
"126 185 OFFCURVE",
"223 185 CURVE",
"292 185 LINE SMOOTH",
"326 185 OFFCURVE",
"343 162 OFFCURVE",
"343 140 CURVE SMOOTH",
"343 118 OFFCURVE",
"326 95 OFFCURVE",
"292 95 CURVE SMOOTH",
"231 95 LINE SMOOTH",
"197 95 OFFCURVE",
"180 118 OFFCURVE",
"180 140 CURVE SMOOTH",
"180 162 OFFCURVE",
"197 185 OFFCURVE",
"235 185 CURVE",
"235 90 LINE",
"288 90 LINE",
"288 256 LINE",
"125 267 OFFCURVE",
"50 205 OFFCURVE",
"50 125 CURVE SMOOTH",
"50 49 OFFCURVE",
"115 -17 OFFCURVE",
"231 -17 CURVE SMOOTH",
"283 -17 LINE SMOOTH",
"399 -17 OFFCURVE",
"473 49 OFFCURVE",
"473 141 CURVE SMOOTH",
"473 232 OFFCURVE",
"410 292 OFFCURVE",
"317 292 CURVE SMOOTH"
);
}
);
width = 519;
},
{
associatedMasterId = "DC46B086-4DC3-4260-9EBF-C204FB70037C";
background = {
paths = (
{
closed = 1;
nodes = (
"241 603 LINE",
"241 344 LINE",
"377 344 LINE",
"377 603 LINE"
);
},
{
closed = 1;
nodes = (
"-20 603 LINE",
"-20 486 LINE",
"490 486 LINE",
"490 603 LINE"
);
},
{
closed = 1;
nodes = (
"232 298 LINE SMOOTH",
"199 298 OFFCURVE",
"184 305 OFFCURVE",
"184 321 CURVE SMOOTH",
"184 336 OFFCURVE",
"199 344 OFFCURVE",
"231 344 CURVE SMOOTH",
"377 344 LINE",
"377 457 LINE",
"222 457 LINE SMOOTH",
"110 457 OFFCURVE",
"46 399 OFFCURVE",
"46 314 CURVE SMOOTH",
"46 238 OFFCURVE",
"107 181 OFFCURVE",
"214 180 CURVE SMOOTH",
"234 180 LINE SMOOTH",
"265 180 OFFCURVE",
"285 173 OFFCURVE",
"285 151 CURVE SMOOTH",
"285 133 OFFCURVE",
"266 123 OFFCURVE",
"234 123 CURVE SMOOTH",
"178 123 OFFCURVE",
"123 154 OFFCURVE",
"95 174 CURVE",
"34 78 LINE",
"79 42 OFFCURVE",
"159 11 OFFCURVE",
"243 11 CURVE SMOOTH",
"349 11 OFFCURVE",
"424 66 OFFCURVE",
"424 158 CURVE SMOOTH",
"424 249 OFFCURVE",
"361 298 OFFCURVE",
"268 298 CURVE SMOOTH"
);
}
);
};
layerId = "3BFA179B-0B7C-4C97-A54B-6CF5466C01D6";
name = "Bold Sep 2 15, 19:49";
paths = (
{
closed = 1;
nodes = (
"241 603 LINE",
"241 344 LINE",
"377 344 LINE",
"377 603 LINE"
);
},
{
closed = 1;
nodes = (
"-20 603 LINE",
"-20 486 LINE",
"490 486 LINE",
"490 603 LINE"
);
},
{
closed = 1;
nodes = (
"232 298 LINE SMOOTH",
"199 298 OFFCURVE",
"184 305 OFFCURVE",
"184 321 CURVE SMOOTH",
"184 336 OFFCURVE",
"199 344 OFFCURVE",
"231 344 CURVE SMOOTH",
"377 344 LINE",
"377 457 LINE",
"222 457 LINE SMOOTH",
"110 457 OFFCURVE",
"46 399 OFFCURVE",
"46 314 CURVE SMOOTH",
"46 238 OFFCURVE",
"107 181 OFFCURVE",
"214 180 CURVE SMOOTH",
"234 180 LINE SMOOTH",
"265 180 OFFCURVE",
"285 173 OFFCURVE",
"285 151 CURVE SMOOTH",
"285 133 OFFCURVE",
"266 123 OFFCURVE",
"234 123 CURVE SMOOTH",
"178 123 OFFCURVE",
"123 154 OFFCURVE",
"95 174 CURVE",
"34 78 LINE",
"79 42 OFFCURVE",
"159 11 OFFCURVE",
"243 11 CURVE SMOOTH",
"349 11 OFFCURVE",
"424 66 OFFCURVE",
"424 158 CURVE SMOOTH",
"424 249 OFFCURVE",
"361 298 OFFCURVE",
"268 298 CURVE SMOOTH"
);
}
);
width = 600;
},
{
associatedMasterId = "DC46B086-4DC3-4260-9EBF-C204FB70037C";
background = {
paths = (
{
closed = 1;
nodes = (
"241 603 LINE",
"241 344 LINE",
"377 344 LINE",
"377 603 LINE"
);
},
{
closed = 1;
nodes = (
"-20 603 LINE",
"-20 486 LINE",
"490 486 LINE",
"490 603 LINE"
);
},
{
closed = 1;
nodes = (
"229 292 LINE SMOOTH",
"196 292 OFFCURVE",
"184 302 OFFCURVE",
"184 318 CURVE SMOOTH",
"184 334 OFFCURVE",
"197 344 OFFCURVE",
"229 344 CURVE SMOOTH",
"377 344 LINE",
"377 457 LINE",
"222 457 LINE SMOOTH",
"110 457 OFFCURVE",
"46 392 OFFCURVE",
"46 311 CURVE SMOOTH",
"46 230 OFFCURVE",
"107 175 OFFCURVE",
"214 175 CURVE SMOOTH",
"234 175 LINE SMOOTH",
"268 175 OFFCURVE",
"285 157 OFFCURVE",
"285 135 CURVE SMOOTH",
"285 113 OFFCURVE",
"268 95 OFFCURVE",
"234 95 CURVE SMOOTH",
"178 95 OFFCURVE",
"123 126 OFFCURVE",
"95 146 CURVE",
"34 50 LINE",
"79 14 OFFCURVE",
"159 -17 OFFCURVE",
"243 -17 CURVE SMOOTH",
"349 -17 OFFCURVE",
"424 49 OFFCURVE",
"424 141 CURVE SMOOTH",
"424 232 OFFCURVE",
"361 292 OFFCURVE",
"268 292 CURVE SMOOTH"
);
}
);
};
layerId = "E9CA7A0B-2877-4511-A1C7-C96CFD11C1F2";
name = "Bold Sep 2 15, 20:04";
paths = (
{
closed = 1;
nodes = (
"251 603 LINE",
"251 344 LINE",
"387 344 LINE",
"387 603 LINE"
);
},
{
closed = 1;
nodes = (
"-20 603 LINE",
"-20 486 LINE",
"500 486 LINE",
"500 603 LINE"
);
},
{
closed = 1;
nodes = (
"229 292 LINE SMOOTH",
"196 292 OFFCURVE",
"184 302 OFFCURVE",
"184 318 CURVE SMOOTH",
"184 334 OFFCURVE",
"197 344 OFFCURVE",
"229 344 CURVE SMOOTH",
"387 344 LINE",
"387 457 LINE",
"222 457 LINE SMOOTH",
"110 457 OFFCURVE",
"46 392 OFFCURVE",
"46 311 CURVE SMOOTH",
"46 230 OFFCURVE",
"107 175 OFFCURVE",
"214 175 CURVE SMOOTH",
"244 175 LINE SMOOTH",
"278 175 OFFCURVE",
"295 157 OFFCURVE",
"295 135 CURVE SMOOTH",
"295 113 OFFCURVE",
"278 95 OFFCURVE",
"234 95 CURVE SMOOTH",
"178 95 OFFCURVE",
"123 126 OFFCURVE",
"95 146 CURVE",
"34 50 LINE",
"79 14 OFFCURVE",
"159 -17 OFFCURVE",
"243 -17 CURVE SMOOTH",
"359 -17 OFFCURVE",
"434 49 OFFCURVE",
"434 141 CURVE SMOOTH",
"434 232 OFFCURVE",
"371 292 OFFCURVE",
"278 292 CURVE SMOOTH"
);
}
);
width = 600;
},
{
associatedMasterId = "DC46B086-4DC3-4260-9EBF-C204FB70037C";
background = {
paths = (
{
closed = 1;
nodes = (
"290 603 LINE",
"290 344 LINE",
"426 344 LINE",
"426 603 LINE"
);
},
{
closed = 1;
nodes = (
"-11 603 LINE",
"-11 486 LINE",
"539 486 LINE",
"539 603 LINE"
);
},
{
closed = 1;
nodes = (
"238 292 LINE SMOOTH",
"205 292 OFFCURVE",
"193 302 OFFCURVE",
"193 318 CURVE SMOOTH",
"193 334 OFFCURVE",
"206 344 OFFCURVE",
"238 344 CURVE SMOOTH",
"426 344 LINE",
"426 457 LINE",
"231 457 LINE SMOOTH",
"119 457 OFFCURVE",
"55 392 OFFCURVE",
"55 311 CURVE SMOOTH",
"55 230 OFFCURVE",
"116 175 OFFCURVE",
"223 175 CURVE",
"283 175 LINE SMOOTH",
"317 175 OFFCURVE",
"334 157 OFFCURVE",
"334 135 CURVE SMOOTH",
"334 113 OFFCURVE",
"317 95 OFFCURVE",
"283 95 CURVE SMOOTH",
"219 95 LINE SMOOTH",
"185 95 OFFCURVE",
"168 113 OFFCURVE",
"168 135 CURVE SMOOTH",
"168 157 OFFCURVE",
"185 175 OFFCURVE",
"223 175 CURVE",
"223 90 LINE",
"279 90 LINE",
"245 256 LINE",
"100 256 OFFCURVE",
"38 205 OFFCURVE",
"38 125 CURVE SMOOTH",
"38 49 OFFCURVE",
"103 -17 OFFCURVE",
"219 -17 CURVE SMOOTH",
"283 -17 LINE SMOOTH",
"399 -17 OFFCURVE",
"473 49 OFFCURVE",
"473 141 CURVE SMOOTH",
"473 232 OFFCURVE",
"410 292 OFFCURVE",
"317 292 CURVE SMOOTH"
);
}
);
};
guideLines = (
{
angle = 90;
position = "{283, 140}";
}
);
layerId = "AB340FC4-A4C3-477B-B690-0F15ABDE40CE";
name = "Bold Sep 2 15, 20:14";
paths = (
{
closed = 1;
nodes = (
"290 603 LINE",
"290 344 LINE",
"426 344 LINE",
"426 603 LINE"
);
},
{
closed = 1;
nodes = (
"-20 603 LINE",
"-20 486 LINE",
"539 486 LINE",
"539 603 LINE"
);
},
{
closed = 1;
nodes = (
"238 292 LINE SMOOTH",
"205 292 OFFCURVE",
"193 302 OFFCURVE",
"193 318 CURVE SMOOTH",
"193 334 OFFCURVE",
"206 344 OFFCURVE",
"238 344 CURVE SMOOTH",
"426 344 LINE",
"426 457 LINE",
"231 457 LINE SMOOTH",
"119 457 OFFCURVE",
"55 392 OFFCURVE",
"55 311 CURVE SMOOTH",
"55 230 OFFCURVE",
"126 175 OFFCURVE",
"223 175 CURVE",
"283 175 LINE SMOOTH",
"317 175 OFFCURVE",
"334 157 OFFCURVE",
"334 135 CURVE SMOOTH",
"334 113 OFFCURVE",
"317 95 OFFCURVE",
"283 95 CURVE SMOOTH",
"231 95 LINE SMOOTH",
"197 95 OFFCURVE",
"180 113 OFFCURVE",
"180 135 CURVE SMOOTH",
"180 157 OFFCURVE",
"197 175 OFFCURVE",
"235 175 CURVE",
"235 90 LINE",
"279 90 LINE",
"279 246 LINE",
"116 257 OFFCURVE",
"50 205 OFFCURVE",
"50 125 CURVE SMOOTH",
"50 49 OFFCURVE",
"115 -17 OFFCURVE",
"231 -17 CURVE SMOOTH",
"283 -17 LINE SMOOTH",
"399 -17 OFFCURVE",
"473 49 OFFCURVE",
"473 141 CURVE SMOOTH",
"473 232 OFFCURVE",
"410 292 OFFCURVE",
"317 292 CURVE SMOOTH"
);
}
);
width = 519;
},
{
associatedMasterId = "6FDD6D71-1703-4D62-BB36-645A25EBC0A3";
layerId = "F583C290-584E-444E-B46E-1B5B761B0BC2";
name = "Light Sep 3 15, 11:49";
paths = (
{
closed = 1;
nodes = (
"319 608 LINE",
"319 443 LINE",
"350 443 LINE",
"350 608 LINE"
);
},
{
closed = 1;
nodes = (
"-20 608 LINE",
"-20 579 LINE",
"469 579 LINE SMOOTH",
"469 608 LINE SMOOTH"
);
},
{
closed = 1;
nodes = (
"185 289 LINE SMOOTH",
"106 288 OFFCURVE",
"79 326 OFFCURVE",
"79 370 CURVE SMOOTH",
"79 413 OFFCURVE",
"113 443 OFFCURVE",
"179 443 CURVE SMOOTH",
"350 443 LINE",
"350 473 LINE",
"179 473 LINE SMOOTH",
"92 473 OFFCURVE",
"48 428 OFFCURVE",
"48 370 CURVE SMOOTH",
"48 315 OFFCURVE",
"89 260 OFFCURVE",
"175 260 CURVE SMOOTH",
"253 260 LINE SMOOTH",
"330 260 OFFCURVE",
"373 222 OFFCURVE",
"373 168 CURVE SMOOTH",
"373 113 OFFCURVE",
"340 65 OFFCURVE",
"233 65 CURVE SMOOTH",
"165 65 OFFCURVE",
"87 99 OFFCURVE",
"54 128 CURVE",
"38 102 LINE",
"75 70 OFFCURVE",
"155 35 OFFCURVE",
"233 35 CURVE SMOOTH",
"371 35 OFFCURVE",
"404 109 OFFCURVE",
"404 168 CURVE SMOOTH",
"404 242 OFFCURVE",
"342 288 OFFCURVE",
"253 289 CURVE"
);
}
);
width = 600;
},
{
associatedMasterId = "6FDD6D71-1703-4D62-BB36-645A25EBC0A3";
background = {
paths = (
{
closed = 1;
nodes = (
"319 608 LINE",
"319 443 LINE",
"350 443 LINE",
"350 608 LINE"
);
},
{
closed = 1;
nodes = (
"-20 608 LINE",
"-20 579 LINE",
"469 579 LINE SMOOTH",
"469 608 LINE SMOOTH"
);
},
{
closed = 1;
nodes = (
"185 289 LINE SMOOTH",
"106 288 OFFCURVE",
"79 326 OFFCURVE",
"79 370 CURVE SMOOTH",
"79 413 OFFCURVE",
"113 443 OFFCURVE",
"179 443 CURVE SMOOTH",
"350 443 LINE",
"350 473 LINE",
"179 473 LINE SMOOTH",
"92 473 OFFCURVE",
"48 428 OFFCURVE",
"48 370 CURVE SMOOTH",
"48 315 OFFCURVE",
"89 260 OFFCURVE",
"175 260 CURVE SMOOTH",
"253 260 LINE SMOOTH",
"330 260 OFFCURVE",
"373 222 OFFCURVE",
"373 168 CURVE SMOOTH",
"373 113 OFFCURVE",
"340 65 OFFCURVE",
"233 65 CURVE SMOOTH",
"165 65 OFFCURVE",
"87 99 OFFCURVE",
"54 128 CURVE",
"38 102 LINE",
"75 70 OFFCURVE",
"155 35 OFFCURVE",
"233 35 CURVE SMOOTH",
"371 35 OFFCURVE",
"404 109 OFFCURVE",
"404 168 CURVE SMOOTH",
"404 242 OFFCURVE",
"342 288 OFFCURVE",
"253 289 CURVE"
);
}
);
};
guideLines = (
{
angle = 90;
position = "{253, 95}";
}
);
layerId = "4B1F4D02-02C6-42A9-ABFE-424F24E1358A";
name = "Light Sep 3 15, 11:54";
paths = (
{
closed = 1;
nodes = (
"319 608 LINE",
"319 443 LINE",
"350 443 LINE",
"350 608 LINE"
);
},
{
closed = 1;
nodes = (
"-20 608 LINE",
"-20 579 LINE",
"469 579 LINE SMOOTH",
"469 608 LINE SMOOTH"
);
},
{
closed = 1;
nodes = (
"189 269 LINE SMOOTH",
"110 269 OFFCURVE",
"79 311 OFFCURVE",
"79 360 CURVE SMOOTH",
"79 408 OFFCURVE",
"113 443 OFFCURVE",
"179 443 CURVE SMOOTH",
"350 443 LINE",
"350 473 LINE",
"179 473 LINE SMOOTH",
"92 473 OFFCURVE",
"48 423 OFFCURVE",
"48 360 CURVE SMOOTH",
"48 298 OFFCURVE",
"93 240 OFFCURVE",
"179 240 CURVE SMOOTH",
"253 240 LINE SMOOTH",
"330 240 OFFCURVE",
"373 196 OFFCURVE",
"373 137 CURVE SMOOTH",
"373 77 OFFCURVE",
"340 23 OFFCURVE",
"233 23 CURVE SMOOTH",
"165 23 OFFCURVE",
"87 57 OFFCURVE",
"54 86 CURVE",
"38 60 LINE",
"75 28 OFFCURVE",
"155 -7 OFFCURVE",
"233 -7 CURVE SMOOTH",
"371 -7 OFFCURVE",
"404 73 OFFCURVE",
"404 137 CURVE SMOOTH",
"404 216 OFFCURVE",
"342 268 OFFCURVE",
"253 269 CURVE SMOOTH"
);
}
);
width = 600;
},
{
associatedMasterId = "6FDD6D71-1703-4D62-BB36-645A25EBC0A3";
background = {
paths = (
{
closed = 1;
nodes = (
"346 608 LINE",
"346 443 LINE",
"377 443 LINE",
"377 608 LINE"
);
},
{
closed = 1;
nodes = (
"7 608 LINE",
"7 579 LINE",
"496 579 LINE SMOOTH",
"496 608 LINE SMOOTH"
);
},
{
closed = 1;
nodes = (
"216 269 LINE SMOOTH",
"137 269 OFFCURVE",
"106 311 OFFCURVE",
"106 360 CURVE SMOOTH",
"106 408 OFFCURVE",
"140 443 OFFCURVE",
"206 443 CURVE SMOOTH",
"377 443 LINE",
"377 473 LINE",
"206 473 LINE SMOOTH",
"119 473 OFFCURVE",
"75 423 OFFCURVE",
"75 360 CURVE SMOOTH",
"75 298 OFFCURVE",
"120 240 OFFCURVE",
"206 240 CURVE SMOOTH",
"280 240 LINE SMOOTH",
"357 240 OFFCURVE",
"400 196 OFFCURVE",
"400 137 CURVE SMOOTH",
"400 77 OFFCURVE",
"357 23 OFFCURVE",
"280 23 CURVE SMOOTH",
"221 23 LINE SMOOTH",
"144 23 OFFCURVE",
"101 77 OFFCURVE",
"101 137 CURVE",
"101 196 OFFCURVE",
"144 240 OFFCURVE",
"233 240 CURVE",
"233 266 LINE",
"131 266 OFFCURVE",
"70 216 OFFCURVE",
"70 137 CURVE",
"70 73 OFFCURVE",
"113 -7 OFFCURVE",
"221 -7 CURVE SMOOTH",
"280 -7 LINE SMOOTH",
"388 -7 OFFCURVE",
"431 73 OFFCURVE",
"431 137 CURVE SMOOTH",
"431 216 OFFCURVE",
"369 268 OFFCURVE",
"280 269 CURVE SMOOTH"
);
}
);
};
guideLines = (
{
angle = 90;
position = "{37, 95}";
showMeasurement = 1;
},
{
position = "{207, 186}";
showMeasurement = 1;
}
);
hints = (
{
horizontal = 1;
origin = "{2, 30}";
target = "{2, 23}";
},
{
horizontal = 1;
origin = "{2, 15}";
target = "{2, 0}";
},
{
horizontal = 1;
origin = "{2, 6}";
target = "{2, 9}";
},
{
horizontal = 1;
origin = "{1, 1}";
target = "{1, 0}";
},
{
origin = "{2, 12}";
target = "{2, 3}";
},
{
origin = "{0, 1}";
target = "{0, 2}";
},
{
origin = "{2, 19}";
target = "{2, 34}";
}
);
layerId = "0A4B7246-2D4F-42DF-B2E0-A007F5A3B752";
name = "Light Sep 4 15, 11:44";
paths = (
{
closed = 1;
nodes = (
"356 608 LINE",
"356 443 LINE",
"387 443 LINE",
"387 608 LINE"
);
},
{
closed = 1;
nodes = (
"-20 608 LINE",
"-20 579 LINE",
"506 579 LINE SMOOTH",
"506 608 LINE SMOOTH"
);
},
{
closed = 1;
nodes = (
"216 269 LINE SMOOTH",
"137 269 OFFCURVE",
"106 311 OFFCURVE",
"106 360 CURVE SMOOTH",
"106 408 OFFCURVE",
"140 443 OFFCURVE",
"206 443 CURVE SMOOTH",
"387 443 LINE",
"387 473 LINE",
"206 473 LINE SMOOTH",
"119 473 OFFCURVE",
"75 423 OFFCURVE",
"75 360 CURVE SMOOTH",
"75 298 OFFCURVE",
"120 240 OFFCURVE",
"206 240 CURVE SMOOTH",
"290 240 LINE SMOOTH",
"367 240 OFFCURVE",
"410 191 OFFCURVE",
"410 132 CURVE SMOOTH",
"410 72 OFFCURVE",
"367 23 OFFCURVE",
"290 23 CURVE SMOOTH",
"222 23 LINE SMOOTH",
"145 23 OFFCURVE",
"102 72 OFFCURVE",
"102 132 CURVE SMOOTH",
"102 192 OFFCURVE",
"135 240 OFFCURVE",
"241 240 CURVE",
"241 15 LINE",
"271 15 LINE",
"271 266 LINE",
"134 276 OFFCURVE",
"71 219 OFFCURVE",
"71 132 CURVE SMOOTH",
"71 68 OFFCURVE",
"114 -7 OFFCURVE",
"222 -7 CURVE SMOOTH",
"290 -7 LINE SMOOTH",
"398 -7 OFFCURVE",
"441 68 OFFCURVE",
"441 132 CURVE SMOOTH",
"441 211 OFFCURVE",
"379 269 OFFCURVE",
"290 269 CURVE SMOOTH"
);
}
);
width = 486;
}
);
unicode = 0A1B;
},
{
glyphname = grJA;
lastChange = "2015-09-07 05:40:39 +0000";
layers = (
{
background = {
paths = (
{
closed = 1;
nodes = (
"348 0 LINE",
"379 0 LINE",
"379 608 LINE",
"348 608 LINE"
);
},
{
closed = 1;
nodes = (
"362 342 LINE",
"140 342 LINE SMOOTH",
"116 342 OFFCURVE",
"106 351 OFFCURVE",
"106 375 CURVE",
"82 375 LINE",
"82 337 OFFCURVE",
"99 313 OFFCURVE",
"135 313 CURVE SMOOTH",
"362 313 LINE"
);
},
{
closed = 1;
nodes = (
"75 411 LINE",
"75 0 LINE",
"106 0 LINE",
"106 411 LINE"
);
},
{
closed = 1;
nodes = (
"-20 608 LINE",
"-20 579 LINE",
"504 579 LINE SMOOTH",
"504 608 LINE SMOOTH"
);
}
);
};
guideLines = (
{
position = "{232, 299}";
showMeasurement = 1;
},
{
angle = 90;
position = "{271, 391}";
showMeasurement = 1;
}
);
layerId = "6FDD6D71-1703-4D62-BB36-645A25EBC0A3";
paths = (
{
closed = 1;
nodes = (
"358 0 LINE",
"389 0 LINE",
"389 608 LINE",
"358 608 LINE"
);
},
{
closed = 1;
nodes = (
"75 423 LINE",
"75 332 OFFCURVE",
"149 299 OFFCURVE",
"220 299 CURVE SMOOTH",
"389 299 LINE",
"389 329 LINE",
"220 329 LINE SMOOTH",
"159 329 OFFCURVE",
"106 354 OFFCURVE",
"106 423 CURVE"
);
},
{
closed = 1;
nodes = (
"75 0 LINE SMOOTH",
"106 0 LINE",
"106 427 LINE",
"75 427 LINE"
);
},
{
closed = 1;
nodes = (
"-20 608 LINE",
"-20 579 LINE",
"514 579 LINE SMOOTH",
"514 608 LINE SMOOTH"
);
}
);
width = 494;
},
{
background = {
paths = (
{
closed = 1;
nodes = (
"439 346 LINE",
"237 346 LINE SMOOTH",
"207 346 OFFCURVE",
"187 362 OFFCURVE",
"187 392 CURVE",
"116 392 LINE",
"116 292 OFFCURVE",
"151 219 OFFCURVE",
"237 219 CURVE SMOOTH",
"439 219 LINE"
);
}
);
};
guideLines = (
{
position = "{258, 218}";
showMeasurement = 1;
}
);
layerId = "DC46B086-4DC3-4260-9EBF-C204FB70037C";
paths = (
{
closed = 1;
nodes = (
"319 0 LINE",
"456 0 LINE",
"456 602 LINE",
"319 602 LINE"
);
},
{
closed = 1;
nodes = (
"116 392 LINE",
"116 292 OFFCURVE",
"150 219 OFFCURVE",
"237 219 CURVE SMOOTH",
"439 219 LINE",
"439 346 LINE",
"237 346 LINE SMOOTH",
"207 346 OFFCURVE",
"187 362 OFFCURVE",
"187 392 CURVE"
);
},
{
closed = 1;
nodes = (
"50 0 LINE",
"187 0 LINE",
"187 414 LINE",
"50 414 LINE"
);
},
{
closed = 1;
nodes = (
"-20 603 LINE",
"-20 486 LINE",
"531 486 LINE",
"531 603 LINE"
);
}
);
width = 511;
},
{
associatedMasterId = "6FDD6D71-1703-4D62-BB36-645A25EBC0A3";
background = {
paths = (
{
closed = 1;
nodes = (
"420 0 LINE",
"451 0 LINE",
"451 595 LINE",
"420 595 LINE"
);
},
{
closed = 1;
nodes = (
"212 326 LINE SMOOTH",
"212 279 OFFCURVE",
"189 244 OFFCURVE",
"138 244 CURVE SMOOTH",
"88 244 OFFCURVE",
"63 280 OFFCURVE",
"49 319 CURVE",
"20 308 LINE",
"38 254 OFFCURVE",
"77 214 OFFCURVE",
"138 214 CURVE SMOOTH",
"204 214 OFFCURVE",
"243 258 OFFCURVE",
"243 329 CURVE SMOOTH",
"243 593 LINE",
"212 593 LINE"
);
},
{
closed = 1;
nodes = (
"-20 608 LINE",
"-20 579 LINE",
"576 579 LINE SMOOTH",
"576 608 LINE SMOOTH"
);
}
);
};
layerId = "74756A15-FA50-4804-A6C7-C16448C8C160";
name = "Light Sep 2 15, 13:35";
paths = (
{
closed = 1;
nodes = (
"420 0 LINE",
"451 0 LINE",
"451 608 LINE",
"420 608 LINE"
);
},
{
closed = 1;
nodes = (
"434 342 LINE",
"162 342 LINE",
"162 323 LINE",
"185 313 LINE",
"434 313 LINE"
);
},
{
closed = 1;
nodes = (
"162 391 LINE",
"162 0 LINE",
"193 0 LINE",
"193 391 LINE"
);
},
{
closed = 1;
nodes = (
"-20 608 LINE",
"-20 579 LINE",
"576 579 LINE SMOOTH",
"576 608 LINE SMOOTH"
);
}
);
width = 600;
},
{
associatedMasterId = "6FDD6D71-1703-4D62-BB36-645A25EBC0A3";
background = {
paths = (
{
closed = 1;
nodes = (
"137 342 OFFCURVE",
"148 353 OFFCURVE",
"148 366 CURVE SMOOTH",
"148 378 OFFCURVE",
"137 389 OFFCURVE",
"125 389 CURVE SMOOTH",
"112 389 OFFCURVE",
"101 378 OFFCURVE",
"101 366 CURVE SMOOTH",
"101 353 OFFCURVE",
"112 342 OFFCURVE",
"125 342 CURVE SMOOTH"
);
},
{
closed = 1;
nodes = (
"328 0 LINE",
"359 0 LINE",
"359 608 LINE",
"328 608 LINE"
);
},
{
closed = 1;
nodes = (
"342 342 LINE",
"70 342 LINE",
"70 323 LINE",
"93 313 LINE",
"342 313 LINE"
);
},
{
closed = 1;
nodes = (
"70 391 LINE",
"70 0 LINE",
"101 0 LINE",
"101 391 LINE"
);
},
{
closed = 1;
nodes = (
"-112 608 LINE",
"-112 579 LINE",
"484 579 LINE SMOOTH",
"484 608 LINE SMOOTH"
);
}
);
};
guideLines = (
{
position = "{232, 267}";
showMeasurement = 1;
}
);
layerId = "4575FD15-4133-441C-94FD-09BEB4CAED3E";
name = "Light Sep 2 15, 15:56";
paths = (
{
closed = 1;
nodes = (
"348 0 LINE",
"379 0 LINE",
"379 608 LINE",
"348 608 LINE"
);
},
{
closed = 1;
nodes = (
"362 342 LINE",
"140 342 LINE SMOOTH",
"116 342 OFFCURVE",
"106 351 OFFCURVE",
"106 375 CURVE",
"82 375 LINE",
"82 337 OFFCURVE",
"99 313 OFFCURVE",
"135 313 CURVE SMOOTH",
"362 313 LINE"
);
},
{
closed = 1;
nodes = (
"75 411 LINE",
"75 0 LINE",
"106 0 LINE",
"106 411 LINE"
);
},
{
closed = 1;
nodes = (
"-20 608 LINE",
"-20 579 LINE",
"504 579 LINE SMOOTH",
"504 608 LINE SMOOTH"
);
}
);
width = 484;
}
);
unicode = 0A1C;
},
{
glyphname = grJHA;
lastChange = "2015-09-08 08:19:01 +0000";
layers = (
{
background = {
paths = (
{
closed = 1;
nodes = (
"72 -81 LINE",
"102 -81 LINE",
"102 96 LINE",
"99 103 LINE",
"72 103 LINE"
);
},
{
closed = 1;
nodes = (
"-20 608 LINE",
"-20 579 LINE",
"476 579 LINE SMOOTH",
"476 608 LINE SMOOTH"
);
},
{
closed = 1;
nodes = (
"343 348 OFFCURVE",
"371 390 OFFCURVE",
"371 459 CURVE SMOOTH",
"371 608 LINE",
"340 608 LINE",
"340 462 LINE SMOOTH",
"340 373 OFFCURVE",
"290 338 OFFCURVE",
"227 338 CURVE SMOOTH",
"168 338 OFFCURVE",
"115 373 OFFCURVE",
"115 462 CURVE SMOOTH",
"115 608 LINE",
"84 608 LINE",
"84 459 LINE SMOOTH",
"84 400 OFFCURVE",
"106 361 OFFCURVE",
"137 337 CURVE",
"67 337 LINE",
"67 308 LINE",
"232 308 LINE SMOOTH",
"321 308 OFFCURVE",
"375 256 OFFCURVE",
"375 171 CURVE SMOOTH",
"375 91 OFFCURVE",
"316 39 OFFCURVE",
"236 39 CURVE SMOOTH",
"178 39 OFFCURVE",
"130 62 OFFCURVE",
"99 103 CURVE",
"75 83 LINE",
"112 36 OFFCURVE",
"166 10 OFFCURVE",
"236 10 CURVE SMOOTH",
"335 10 OFFCURVE",
"406 73 OFFCURVE",
"406 170 CURVE SMOOTH",
"406 248 OFFCURVE",
"368 304 OFFCURVE",
"303 326 CURVE"
);
}
);
};
layerId = "6FDD6D71-1703-4D62-BB36-645A25EBC0A3";
paths = (
{
closed = 1;
nodes = (
"337 340 OFFCURVE",
"371 383 OFFCURVE",
"371 459 CURVE SMOOTH",
"371 608 LINE",
"340 608 LINE",
"340 462 LINE SMOOTH",
"340 373 OFFCURVE",
"290 338 OFFCURVE",
"227 338 CURVE SMOOTH",
"168 338 OFFCURVE",
"115 373 OFFCURVE",
"115 462 CURVE SMOOTH",
"115 608 LINE",
"84 608 LINE",
"84 459 LINE SMOOTH",
"84 400 OFFCURVE",
"106 358 OFFCURVE",
"137 337 CURVE",
"67 337 LINE",
"67 308 LINE",
"232 308 LINE SMOOTH",
"321 308 OFFCURVE",
"375 256 OFFCURVE",
"375 171 CURVE SMOOTH",
"375 91 OFFCURVE",
"316 39 OFFCURVE",
"236 39 CURVE SMOOTH",
"178 39 OFFCURVE",
"130 62 OFFCURVE",
"99 103 CURVE",
"75 83 LINE",
"112 36 OFFCURVE",
"166 10 OFFCURVE",
"236 10 CURVE SMOOTH",
"335 10 OFFCURVE",
"406 73 OFFCURVE",
"406 170 CURVE SMOOTH",
"406 253 OFFCURVE",
"363 311 OFFCURVE",
"290 330 CURVE",
"290 320 LINE"
);
},
{
closed = 1;
nodes = (
"72 -61 LINE",
"102 -61 LINE",
"102 96 LINE",
"99 103 LINE",
"72 103 LINE"
);
},
{
closed = 1;
nodes = (
"-20 608 LINE",
"-20 579 LINE",
"476 579 LINE SMOOTH",
"476 608 LINE SMOOTH"
);
}
);
width = 456;
},
{
background = {
paths = (
{
closed = 1;
nodes = (
"85 -60 LINE",
"202 -60 LINE",
"202 128 LINE",
"193 166 LINE",
"85 166 LINE"
);
},
{
closed = 1;
nodes = (
"-20 603 LINE",
"-20 486 LINE",
"534 486 LINE",
"534 603 LINE"
);
},
{
closed = 1;
nodes = (
"413 332 OFFCURVE",
"434 376 OFFCURVE",
"434 442 CURVE SMOOTH",
"434 563 LINE",
"307 563 LINE",
"307 439 LINE SMOOTH",
"307 382 OFFCURVE",
"292 362 OFFCURVE",
"257 362 CURVE SMOOTH",
"223 362 OFFCURVE",
"207 382 OFFCURVE",
"207 439 CURVE SMOOTH",
"207 563 LINE",
"80 563 LINE",
"80 442 LINE SMOOTH",
"80 411 OFFCURVE",
"85 384 OFFCURVE",
"94 362 CURVE",
"70 362 LINE",
"70 254 LINE",
"257 254 LINE SMOOTH",
"301 254 OFFCURVE",
"326 229 OFFCURVE",
"326 190 CURVE SMOOTH",
"326 151 OFFCURVE",
"301 126 OFFCURVE",
"263 126 CURVE SMOOTH",
"228 126 OFFCURVE",
"206 141 OFFCURVE",
"193 166 CURVE",
"101 129 LINE",
"128 61 OFFCURVE",
"191 11 OFFCURVE",
"273 11 CURVE SMOOTH",
"391 11 OFFCURVE",
"461 84 OFFCURVE",
"461 184 CURVE SMOOTH",
"461 258 OFFCURVE",
"428 309 OFFCURVE",
"375 337 CURVE",
"383 304 LINE"
);
}
);
};
layerId = "DC46B086-4DC3-4260-9EBF-C204FB70037C";
paths = (
{
closed = 1;
nodes = (
"421 335 OFFCURVE",
"434 376 OFFCURVE",
"434 431 CURVE SMOOTH",
"434 563 LINE",
"307 563 LINE",
"307 431 LINE SMOOTH",
"307 374 OFFCURVE",
"292 354 OFFCURVE",
"257 354 CURVE SMOOTH",
"223 354 OFFCURVE",
"207 374 OFFCURVE",
"207 431 CURVE SMOOTH",
"207 563 LINE",
"80 563 LINE",
"80 431 LINE SMOOTH",
"80 400 OFFCURVE",
"87 368 OFFCURVE",
"103 354 CURVE",
"70 354 LINE",
"70 254 LINE",
"257 254 LINE SMOOTH",
"301 254 OFFCURVE",
"326 229 OFFCURVE",
"326 190 CURVE SMOOTH",
"326 151 OFFCURVE",
"301 126 OFFCURVE",
"263 126 CURVE SMOOTH",
"228 126 OFFCURVE",
"206 141 OFFCURVE",
"193 166 CURVE",
"101 129 LINE",
"128 61 OFFCURVE",
"191 11 OFFCURVE",
"273 11 CURVE SMOOTH",
"391 11 OFFCURVE",
"461 84 OFFCURVE",
"461 184 CURVE SMOOTH",
"461 258 OFFCURVE",
"428 309 OFFCURVE",
"375 337 CURVE",
"383 304 LINE"
);
},
{
closed = 1;
nodes = (
"85 -60 LINE",
"202 -60 LINE",
"202 128 LINE",
"193 166 LINE",
"85 166 LINE"
);
},
{
closed = 1;
nodes = (
"-20 603 LINE",
"-20 486 LINE",
"534 486 LINE",
"534 603 LINE"
);
}
);
width = 514;
},
{
associatedMasterId = "DC46B086-4DC3-4260-9EBF-C204FB70037C";
background = {
paths = (
{
closed = 1;
nodes = (
"262 242 LINE",
"306 242 OFFCURVE",
"336 219 OFFCURVE",
"336 180 CURVE SMOOTH",
"336 141 OFFCURVE",
"306 111 OFFCURVE",
"262 111 CURVE SMOOTH",
"220 111 OFFCURVE",
"197 128 OFFCURVE",
"179 153 CURVE",
"91 78 LINE",
"113 29 OFFCURVE",
"186 -17 OFFCURVE",
"264 -17 CURVE SMOOTH",
"380 -17 OFFCURVE",
"471 56 OFFCURVE",
"471 176 CURVE SMOOTH",
"471 295 OFFCURVE",
"389 356 OFFCURVE",
"262 356 CURVE SMOOTH",
"81 356 LINE",
"81 242 LINE"
);
},
{
closed = 1;
nodes = (
"71 -90 LINE",
"198 -90 LINE",
"198 115 LINE",
"179 153 LINE",
"71 153 LINE"
);
},
{
closed = 1;
nodes = (
"-20 603 LINE",
"-20 486 LINE",
"544 486 LINE",
"544 603 LINE"
);
},
{
closed = 1;
nodes = (
"55 567 LINE SMOOTH",
"55 412 OFFCURVE",
"104 328 OFFCURVE",
"231 247 CURVE",
"293 247 LINE",
"422 329 OFFCURVE",
"469 416 OFFCURVE",
"469 575 CURVE SMOOTH",
"469 583 LINE",
"336 583 LINE",
"336 572 LINE SMOOTH",
"336 461 OFFCURVE",
"316 408 OFFCURVE",
"262 367 CURVE",
"208 408 OFFCURVE",
"188 461 OFFCURVE",
"188 570 CURVE SMOOTH",
"188 583 LINE",
"55 583 LINE"
);
}
);
};
layerId = "047185D2-55E4-4C19-894F-05907F491099";
name = "Bold Sep 3 15, 16:59";
paths = (
{
closed = 1;
nodes = (
"262 242 LINE",
"306 242 OFFCURVE",
"336 219 OFFCURVE",
"336 180 CURVE SMOOTH",
"336 141 OFFCURVE",
"306 111 OFFCURVE",
"262 111 CURVE SMOOTH",
"220 111 OFFCURVE",
"197 128 OFFCURVE",
"179 153 CURVE",
"91 78 LINE",
"113 29 OFFCURVE",
"186 -17 OFFCURVE",
"264 -17 CURVE SMOOTH",
"380 -17 OFFCURVE",
"471 56 OFFCURVE",
"471 176 CURVE SMOOTH",
"471 295 OFFCURVE",
"389 356 OFFCURVE",
"262 356 CURVE SMOOTH",
"71 356 LINE",
"71 242 LINE"
);
},
{
closed = 1;
nodes = (
"61 -90 LINE",
"188 -90 LINE",
"188 115 LINE",
"179 153 LINE",
"61 153 LINE"
);
},
{
closed = 1;
nodes = (
"-20 603 LINE",
"-20 486 LINE",
"544 486 LINE",
"544 603 LINE"
);
},
{
closed = 1;
nodes = (
"55 567 LINE SMOOTH",
"55 412 OFFCURVE",
"104 328 OFFCURVE",
"231 247 CURVE",
"293 247 LINE",
"422 329 OFFCURVE",
"469 416 OFFCURVE",
"469 575 CURVE SMOOTH",
"469 583 LINE",
"336 583 LINE",
"336 572 LINE SMOOTH",
"336 461 OFFCURVE",
"316 408 OFFCURVE",
"262 367 CURVE",
"208 408 OFFCURVE",
"188 461 OFFCURVE",
"188 570 CURVE SMOOTH",
"188 583 LINE",
"55 583 LINE"
);
}
);
width = 524;
},
{
associatedMasterId = "6FDD6D71-1703-4D62-BB36-645A25EBC0A3";
background = {
paths = (
{
closed = 1;
nodes = (
"105 34 OFFCURVE",
"167 10 OFFCURVE",
"237 10 CURVE SMOOTH",
"346 10 OFFCURVE",
"426 73 OFFCURVE",
"426 180 CURVE SMOOTH",
"426 282 OFFCURVE",
"361 352 OFFCURVE",
"243 352 CURVE SMOOTH",
"100 352 LINE",
"100 323 LINE",
"242 323 LINE SMOOTH",
"341 323 OFFCURVE",
"395 266 OFFCURVE",
"395 181 CURVE SMOOTH",
"395 91 OFFCURVE",
"327 39 OFFCURVE",
"237 39 CURVE SMOOTH",
"179 39 OFFCURVE",
"120 62 OFFCURVE",
"89 103 CURVE",
"68 81 LINE"
);
},
{
closed = 1;
nodes = (
"62 -81 LINE",
"92 -81 LINE",
"92 96 LINE",
"89 103 LINE",
"62 103 LINE"
);
},
{
closed = 1;
nodes = (
"-26 608 LINE",
"-26 579 LINE",
"483 579 LINE SMOOTH",
"483 608 LINE SMOOTH"
);
},
{
closed = 1;
nodes = (
"374 598 LINE",
"366 484 OFFCURVE",
"318 413 OFFCURVE",
"243 353 CURVE",
"168 413 OFFCURVE",
"120 484 OFFCURVE",
"112 598 CURVE",
"81 598 LINE",
"89 469 OFFCURVE",
"144 392 OFFCURVE",
"228 327 CURVE",
"258 327 LINE",
"342 392 OFFCURVE",
"397 469 OFFCURVE",
"405 598 CURVE"
);
},
{
closed = 1;
nodes = (
"112 598 LINE",
"111 608 OFFCURVE",
"111 619 OFFCURVE",
"111 631 CURVE SMOOTH",
"111 669 LINE",
"80 669 LINE",
"80 631 LINE SMOOTH",
"80 619 OFFCURVE",
"80 608 OFFCURVE",
"81 598 CURVE"
);
},
{
closed = 1;
nodes = (
"405 598 LINE",
"406 608 OFFCURVE",
"406 619 OFFCURVE",
"406 631 CURVE SMOOTH",
"406 669 LINE",
"375 669 LINE",
"375 631 LINE SMOOTH",
"375 619 OFFCURVE",
"375 608 OFFCURVE",
"374 598 CURVE"
);
}
);
};
layerId = "BA999C03-6959-475A-90A7-7EF2D992B923";
name = "Light Sep 3 15, 17:06";
paths = (
{
closed = 1;
nodes = (
"105 34 OFFCURVE",
"167 10 OFFCURVE",
"237 10 CURVE SMOOTH",
"341 10 OFFCURVE",
"416 68 OFFCURVE",
"416 170 CURVE SMOOTH",
"416 267 OFFCURVE",
"351 332 OFFCURVE",
"243 332 CURVE SMOOTH",
"82 332 LINE",
"82 303 LINE",
"242 303 LINE SMOOTH",
"331 303 OFFCURVE",
"385 251 OFFCURVE",
"385 171 CURVE SMOOTH",
"385 86 OFFCURVE",
"322 39 OFFCURVE",
"237 39 CURVE SMOOTH",
"179 39 OFFCURVE",
"120 62 OFFCURVE",
"89 103 CURVE",
"68 81 LINE"
);
},
{
closed = 1;
nodes = (
"62 -81 LINE",
"92 -81 LINE",
"92 96 LINE",
"89 103 LINE",
"62 103 LINE"
);
},
{
closed = 1;
nodes = (
"-20 608 LINE",
"-20 579 LINE",
"496 579 LINE SMOOTH",
"496 608 LINE SMOOTH"
);
},
{
closed = 1;
nodes = (
"76 579 LINE SMOOTH",
"76 447 OFFCURVE",
"136 371 OFFCURVE",
"218 307 CURVE",
"248 307 LINE",
"330 370 OFFCURVE",
"390 447 OFFCURVE",
"390 578 CURVE SMOOTH",
"390 587 LINE",
"359 587 LINE",
"359 579 LINE SMOOTH",
"359 462 OFFCURVE",
"306 392 OFFCURVE",
"233 333 CURVE",
"159 392 OFFCURVE",
"107 462 OFFCURVE",
"107 581 CURVE SMOOTH",
"107 587 LINE",
"76 587 LINE"
);
}
);
width = 476;
},
{
associatedMasterId = "DC46B086-4DC3-4260-9EBF-C204FB70037C";
background = {
paths = (
{
closed = 1;
nodes = (
"262 242 LINE",
"306 242 OFFCURVE",
"336 219 OFFCURVE",
"336 180 CURVE SMOOTH",
"336 141 OFFCURVE",
"306 111 OFFCURVE",
"262 111 CURVE SMOOTH",
"220 111 OFFCURVE",
"197 128 OFFCURVE",
"179 153 CURVE",
"91 78 LINE",
"113 29 OFFCURVE",
"186 -17 OFFCURVE",
"264 -17 CURVE SMOOTH",
"380 -17 OFFCURVE",
"471 56 OFFCURVE",
"471 176 CURVE SMOOTH",
"471 295 OFFCURVE",
"389 356 OFFCURVE",
"262 356 CURVE SMOOTH",
"71 356 LINE",
"71 242 LINE"
);
},
{
closed = 1;
nodes = (
"61 -90 LINE",
"188 -90 LINE",
"188 115 LINE",
"179 153 LINE",
"61 153 LINE"
);
},
{
closed = 1;
nodes = (
"-20 603 LINE",
"-20 486 LINE",
"544 486 LINE",
"544 603 LINE"
);
},
{
closed = 1;
nodes = (
"55 567 LINE SMOOTH",
"55 412 OFFCURVE",
"104 328 OFFCURVE",
"231 247 CURVE",
"293 247 LINE",
"422 329 OFFCURVE",
"469 416 OFFCURVE",
"469 575 CURVE SMOOTH",
"469 583 LINE",
"336 583 LINE",
"336 572 LINE SMOOTH",
"336 461 OFFCURVE",
"316 408 OFFCURVE",
"262 367 CURVE",
"208 408 OFFCURVE",
"188 461 OFFCURVE",
"188 570 CURVE SMOOTH",
"188 583 LINE",
"55 583 LINE"
);
}
);
};
layerId = "4CAA335D-10A9-4A17-8885-E018E222E447";
name = "Bold Sep 3 15, 17:06";
paths = (
{
closed = 1;
nodes = (
"262 242 LINE",
"306 242 OFFCURVE",
"336 219 OFFCURVE",
"336 180 CURVE SMOOTH",
"336 141 OFFCURVE",
"306 111 OFFCURVE",
"262 111 CURVE SMOOTH",
"220 111 OFFCURVE",
"197 128 OFFCURVE",
"179 153 CURVE",
"91 78 LINE",
"113 29 OFFCURVE",
"186 -17 OFFCURVE",
"264 -17 CURVE SMOOTH",
"380 -17 OFFCURVE",
"471 56 OFFCURVE",
"471 176 CURVE SMOOTH",
"471 295 OFFCURVE",
"389 356 OFFCURVE",
"262 356 CURVE SMOOTH",
"71 356 LINE",
"71 242 LINE"
);
},
{
closed = 1;
nodes = (
"61 -90 LINE",
"188 -90 LINE",
"188 115 LINE",
"179 153 LINE",
"61 153 LINE"
);
},
{
closed = 1;
nodes = (
"-20 603 LINE",
"-20 486 LINE",
"544 486 LINE",
"544 603 LINE"
);
},
{
closed = 1;
nodes = (
"55 567 LINE SMOOTH",
"55 402 OFFCURVE",
"114 328 OFFCURVE",
"241 247 CURVE",
"283 247 LINE",
"412 329 OFFCURVE",
"469 406 OFFCURVE",
"469 575 CURVE SMOOTH",
"469 583 LINE",
"336 583 LINE",
"336 572 LINE SMOOTH",
"336 461 OFFCURVE",
"316 408 OFFCURVE",
"262 367 CURVE",
"208 408 OFFCURVE",
"188 461 OFFCURVE",
"188 570 CURVE SMOOTH",
"188 583 LINE",
"55 583 LINE"
);
}
);
width = 524;
},
{
associatedMasterId = "DC46B086-4DC3-4260-9EBF-C204FB70037C";
background = {
paths = (
{
closed = 1;
nodes = (
"257 242 LINE",
"301 242 OFFCURVE",
"331 219 OFFCURVE",
"331 180 CURVE SMOOTH",
"331 141 OFFCURVE",
"301 111 OFFCURVE",
"257 111 CURVE SMOOTH",
"215 111 OFFCURVE",
"192 128 OFFCURVE",
"174 153 CURVE",
"86 78 LINE",
"108 29 OFFCURVE",
"181 -17 OFFCURVE",
"259 -17 CURVE SMOOTH",
"375 -17 OFFCURVE",
"466 56 OFFCURVE",
"466 176 CURVE SMOOTH",
"466 295 OFFCURVE",
"384 356 OFFCURVE",
"257 356 CURVE SMOOTH",
"66 356 LINE",
"66 242 LINE"
);
},
{
closed = 1;
nodes = (
"56 -90 LINE",
"183 -90 LINE",
"183 115 LINE",
"174 153 LINE",
"56 153 LINE"
);
},
{
closed = 1;
nodes = (
"-25 603 LINE",
"-25 486 LINE",
"539 486 LINE",
"539 603 LINE"
);
},
{
closed = 1;
nodes = (
"50 567 LINE SMOOTH",
"50 412 OFFCURVE",
"99 328 OFFCURVE",
"226 247 CURVE",
"288 247 LINE",
"417 329 OFFCURVE",
"464 416 OFFCURVE",
"464 575 CURVE SMOOTH",
"464 583 LINE",
"331 583 LINE",
"331 572 LINE SMOOTH",
"331 461 OFFCURVE",
"311 408 OFFCURVE",
"257 367 CURVE",
"203 408 OFFCURVE",
"183 461 OFFCURVE",
"183 570 CURVE SMOOTH",
"183 583 LINE",
"50 583 LINE"
);
}
);
};
layerId = "FD251520-E04C-4EEE-9F9E-F4125CF3934A";
name = "Bold Sep 7 15, 11:00";
paths = (
{
closed = 1;
nodes = (
"207 563 LINE",
"80 563 LINE",
"80 442 LINE SMOOTH",
"80 301 OFFCURVE",
"188 260 OFFCURVE",
"257 260 CURVE SMOOTH",
"340 260 OFFCURVE",
"434 304 OFFCURVE",
"434 442 CURVE SMOOTH",
"434 563 LINE",
"307 563 LINE",
"307 439 LINE SMOOTH",
"307 382 OFFCURVE",
"292 362 OFFCURVE",
"257 362 CURVE SMOOTH",
"223 362 OFFCURVE",
"207 382 OFFCURVE",
"207 439 CURVE SMOOTH"
);
},
{
closed = 1;
nodes = (
"134 254 OFFCURVE",
"198 254 OFFCURVE",
"257 254 CURVE SMOOTH",
"301 254 OFFCURVE",
"326 229 OFFCURVE",
"326 190 CURVE SMOOTH",
"326 151 OFFCURVE",
"301 126 OFFCURVE",
"263 126 CURVE SMOOTH",
"228 126 OFFCURVE",
"206 141 OFFCURVE",
"193 166 CURVE",
"101 129 LINE",
"128 61 OFFCURVE",
"191 11 OFFCURVE",
"273 11 CURVE SMOOTH",
"391 11 OFFCURVE",
"461 84 OFFCURVE",
"461 184 CURVE SMOOTH",
"461 303 OFFCURVE",
"379 362 OFFCURVE",
"252 362 CURVE SMOOTH",
"193 362 OFFCURVE",
"134 362 OFFCURVE",
"70 362 CURVE",
"70 254 LINE"
);
},
{
closed = 1;
nodes = (
"85 -60 LINE",
"202 -60 LINE",
"202 128 LINE",
"193 166 LINE",
"85 166 LINE"
);
},
{
closed = 1;
nodes = (
"-20 603 LINE",
"-20 486 LINE",
"534 486 LINE",
"534 603 LINE"
);
}
);
width = 514;
},
{
associatedMasterId = "6FDD6D71-1703-4D62-BB36-645A25EBC0A3";
background = {
paths = (
{
closed = 1;
nodes = (
"95 34 OFFCURVE",
"157 10 OFFCURVE",
"227 10 CURVE SMOOTH",
"336 10 OFFCURVE",
"416 73 OFFCURVE",
"416 180 CURVE SMOOTH",
"416 282 OFFCURVE",
"351 352 OFFCURVE",
"233 352 CURVE SMOOTH",
"90 352 LINE",
"90 323 LINE",
"232 323 LINE SMOOTH",
"331 323 OFFCURVE",
"385 266 OFFCURVE",
"385 181 CURVE SMOOTH",
"385 91 OFFCURVE",
"317 39 OFFCURVE",
"227 39 CURVE SMOOTH",
"169 39 OFFCURVE",
"110 62 OFFCURVE",
"79 103 CURVE",
"58 81 LINE"
);
},
{
closed = 1;
nodes = (
"52 -81 LINE",
"82 -81 LINE",
"82 96 LINE",
"79 103 LINE",
"52 103 LINE"
);
},
{
closed = 1;
nodes = (
"-36 608 LINE",
"-36 579 LINE",
"473 579 LINE SMOOTH",
"473 608 LINE SMOOTH"
);
},
{
closed = 1;
nodes = (
"364 598 LINE",
"356 484 OFFCURVE",
"308 413 OFFCURVE",
"233 353 CURVE",
"158 413 OFFCURVE",
"110 484 OFFCURVE",
"102 598 CURVE",
"71 598 LINE",
"79 469 OFFCURVE",
"134 392 OFFCURVE",
"218 327 CURVE",
"248 327 LINE",
"332 392 OFFCURVE",
"387 469 OFFCURVE",
"395 598 CURVE"
);
},
{
closed = 1;
nodes = (
"102 598 LINE",
"101 608 OFFCURVE",
"101 619 OFFCURVE",
"101 631 CURVE SMOOTH",
"101 669 LINE",
"70 669 LINE",
"70 631 LINE SMOOTH",
"70 619 OFFCURVE",
"70 608 OFFCURVE",
"71 598 CURVE"
);
},
{
closed = 1;
nodes = (
"395 598 LINE",
"396 608 OFFCURVE",
"396 619 OFFCURVE",
"396 631 CURVE SMOOTH",
"396 669 LINE",
"365 669 LINE",
"365 631 LINE SMOOTH",
"365 619 OFFCURVE",
"365 608 OFFCURVE",
"364 598 CURVE"
);
}
);
};
layerId = "8437B7E0-BA45-4E12-A724-9EBD2B8932BE";
name = "Light Sep 7 15, 11:04";
paths = (
{
closed = 1;
nodes = (
"115 608 LINE",
"84 608 LINE",
"84 459 LINE SMOOTH",
"84 351 OFFCURVE",
"158 308 OFFCURVE",
"227 308 CURVE SMOOTH",
"301 308 OFFCURVE",
"371 351 OFFCURVE",
"371 459 CURVE SMOOTH",
"371 608 LINE",
"340 608 LINE",
"340 462 LINE SMOOTH",
"340 373 OFFCURVE",
"290 338 OFFCURVE",
"227 338 CURVE SMOOTH",
"168 338 OFFCURVE",
"115 373 OFFCURVE",
"115 462 CURVE SMOOTH"
);
},
{
closed = 1;
nodes = (
"122 308 OFFCURVE",
"177 308 OFFCURVE",
"232 308 CURVE SMOOTH",
"321 308 OFFCURVE",
"375 256 OFFCURVE",
"375 171 CURVE SMOOTH",
"375 91 OFFCURVE",
"316 39 OFFCURVE",
"236 39 CURVE SMOOTH",
"178 39 OFFCURVE",
"130 62 OFFCURVE",
"99 103 CURVE",
"75 83 LINE",
"112 36 OFFCURVE",
"166 10 OFFCURVE",
"236 10 CURVE SMOOTH",
"335 10 OFFCURVE",
"406 73 OFFCURVE",
"406 170 CURVE SMOOTH",
"406 272 OFFCURVE",
"341 337 OFFCURVE",
"233 337 CURVE SMOOTH",
"178 337 OFFCURVE",
"122 337 OFFCURVE",
"67 337 CURVE",
"67 308 LINE"
);
},
{
closed = 1;
nodes = (
"72 -81 LINE",
"102 -81 LINE",
"102 96 LINE",
"99 103 LINE",
"72 103 LINE"
);
},
{
closed = 1;
nodes = (
"-20 608 LINE",
"-20 579 LINE",
"476 579 LINE SMOOTH",
"476 608 LINE SMOOTH"
);
}
);
width = 456;
}
);
unicode = 0A1D;
},
{
glyphname = grNYA;
lastChange = "2015-09-07 05:40:39 +0000";
layers = (
{
background = {
paths = (
{
closed = 1;
nodes = (
"381 608 LINE",
"381 413 LINE",
"412 413 LINE",
"412 608 LINE"
);
},
{
closed = 1;
nodes = (
"402 229 LINE SMOOTH",
"226 229 LINE SMOOTH",
"147 229 OFFCURVE",
"106 266 OFFCURVE",
"106 325 CURVE SMOOTH",
"106 383 OFFCURVE",
"150 413 OFFCURVE",
"216 413 CURVE SMOOTH",
"412 413 LINE",
"412 443 LINE",
"216 443 LINE SMOOTH",
"129 443 OFFCURVE",
"75 398 OFFCURVE",
"75 325 CURVE SMOOTH",
"75 253 OFFCURVE",
"130 200 OFFCURVE",
"216 200 CURVE SMOOTH",
"402 200 LINE"
);
},
{
closed = 1;
nodes = (
"402 22 LINE SMOOTH",
"316 22 LINE SMOOTH",
"237 22 OFFCURVE",
"196 56 OFFCURVE",
"196 115 CURVE SMOOTH",
"196 173 OFFCURVE",
"234 200 OFFCURVE",
"301 200 CURVE",
"301 226 LINE",
"214 226 OFFCURVE",
"165 188 OFFCURVE",
"165 115 CURVE SMOOTH",
"165 43 OFFCURVE",
"220 -7 OFFCURVE",
"306 -7 CURVE SMOOTH",
"402 -7 LINE"
);
},
{
closed = 1;
nodes = (
"7 608 LINE",
"7 579 LINE",
"531 579 LINE SMOOTH",
"531 608 LINE SMOOTH"
);
},
{
closed = 1;
nodes = (
"130 448 OFFCURVE",
"101 472 OFFCURVE",
"101 532 CURVE SMOOTH",
"101 763 LINE",
"70 763 LINE",
"70 531 LINE SMOOTH",
"70 463 OFFCURVE",
"106 418 OFFCURVE",
"175 411 CURVE",
"183 441 LINE"
);
}
);
};
guideLines = (
{
angle = 90;
position = "{335, 141}";
showMeasurement = 1;
}
);
layerId = "6FDD6D71-1703-4D62-BB36-645A25EBC0A3";
paths = (
{
closed = 1;
nodes = (
"361 608 LINE",
"361 407 LINE",
"392 407 LINE",
"392 608 LINE"
);
},
{
closed = 1;
nodes = (
"382 229 LINE SMOOTH",
"231 229 LINE SMOOTH",
"152 229 OFFCURVE",
"106 263 OFFCURVE",
"106 322 CURVE SMOOTH",
"106 380 OFFCURVE",
"155 407 OFFCURVE",
"221 407 CURVE SMOOTH",
"392 407 LINE",
"392 437 LINE",
"221 437 LINE SMOOTH",
"134 437 OFFCURVE",
"75 395 OFFCURVE",
"75 322 CURVE SMOOTH",
"75 250 OFFCURVE",
"135 200 OFFCURVE",
"221 200 CURVE SMOOTH",
"382 200 LINE"
);
},
{
closed = 1;
nodes = (
"382 22 LINE SMOOTH",
"316 22 LINE SMOOTH",
"237 22 OFFCURVE",
"196 56 OFFCURVE",
"196 115 CURVE SMOOTH",
"196 173 OFFCURVE",
"234 200 OFFCURVE",
"301 200 CURVE",
"301 226 LINE",
"214 226 OFFCURVE",
"165 188 OFFCURVE",
"165 115 CURVE SMOOTH",
"165 43 OFFCURVE",
"220 -7 OFFCURVE",
"306 -7 CURVE SMOOTH",
"382 -7 LINE"
);
},
{
closed = 1;
nodes = (
"146 437 OFFCURVE",
"106 466 OFFCURVE",
"106 536 CURVE SMOOTH",
"106 608 LINE",
"75 608 LINE",
"75 535 LINE SMOOTH",
"75 457 OFFCURVE",
"124 407 OFFCURVE",
"205 407 CURVE",
"218 437 LINE"
);
},
{
closed = 1;
nodes = (
"-20 608 LINE",
"-20 579 LINE",
"487 579 LINE SMOOTH",
"487 608 LINE SMOOTH"
);
}
);
width = 467;
},
{
background = {
paths = (
{
closed = 1;
nodes = (
"305 603 LINE",
"305 343 LINE",
"441 343 LINE",
"441 603 LINE"
);
},
{
closed = 1;
nodes = (
"421 269 LINE SMOOTH",
"260 269 LINE SMOOTH",
"227 269 OFFCURVE",
"213 285 OFFCURVE",
"213 306 CURVE SMOOTH",
"213 327 OFFCURVE",
"228 343 OFFCURVE",
"260 343 CURVE SMOOTH",
"441 343 LINE",
"441 456 LINE",
"251 456 LINE SMOOTH",
"139 456 OFFCURVE",
"75 390 OFFCURVE",
"75 299 CURVE SMOOTH",
"75 208 OFFCURVE",
"146 162 OFFCURVE",
"243 162 CURVE SMOOTH",
"421 162 LINE SMOOTH"
);
},
{
closed = 1;
nodes = (
"421 90 LINE SMOOTH",
"328 90 LINE SMOOTH",
"296 90 OFFCURVE",
"283 107 OFFCURVE",
"283 126 CURVE SMOOTH",
"283 145 OFFCURVE",
"296 162 OFFCURVE",
"328 162 CURVE",
"328 245 LINE",
"216 245 OFFCURVE",
"145 200 OFFCURVE",
"145 119 CURVE SMOOTH",
"145 38 OFFCURVE",
"216 -17 OFFCURVE",
"313 -17 CURVE SMOOTH",
"421 -17 LINE SMOOTH"
);
},
{
closed = 1;
nodes = (
"9 603 LINE",
"9 486 LINE",
"554 486 LINE",
"554 603 LINE"
);
}
);
};
guideLines = (
{
angle = 90;
position = "{269, 94}";
showMeasurement = 1;
}
);
layerId = "DC46B086-4DC3-4260-9EBF-C204FB70037C";
paths = (
{
closed = 1;
nodes = (
"296 603 LINE",
"296 307 LINE",
"432 307 LINE",
"432 603 LINE"
);
},
{
closed = 1;
nodes = (
"412 249 LINE SMOOTH",
"256 249 LINE SMOOTH",
"223 249 OFFCURVE",
"213 260 OFFCURVE",
"213 278 CURVE SMOOTH",
"213 296 OFFCURVE",
"224 307 OFFCURVE",
"256 307 CURVE SMOOTH",
"432 307 LINE",
"432 420 LINE",
"251 420 LINE SMOOTH",
"139 420 OFFCURVE",
"75 362 OFFCURVE",
"75 281 CURVE SMOOTH",
"75 190 OFFCURVE",
"146 142 OFFCURVE",
"243 142 CURVE SMOOTH",
"412 142 LINE SMOOTH"
);
},
{
closed = 1;
nodes = (
"412 90 LINE SMOOTH",
"326 90 LINE SMOOTH",
"294 90 OFFCURVE",
"283 99 OFFCURVE",
"283 116 CURVE SMOOTH",
"283 132 OFFCURVE",
"294 142 OFFCURVE",
"326 142 CURVE",
"326 225 LINE",
"214 225 OFFCURVE",
"145 190 OFFCURVE",
"145 109 CURVE SMOOTH",
"145 28 OFFCURVE",
"216 -17 OFFCURVE",
"313 -17 CURVE SMOOTH",
"412 -17 LINE SMOOTH"
);
},
{
closed = 1;
nodes = (
"206 420 OFFCURVE",
"201 449 OFFCURVE",
"201 496 CURVE SMOOTH",
"201 603 LINE",
"65 603 LINE SMOOTH",
"65 479 LINE SMOOTH",
"65 369 OFFCURVE",
"136 331 OFFCURVE",
"230 331 CURVE",
"255 420 LINE"
);
},
{
closed = 1;
nodes = (
"-20 603 LINE",
"-20 486 LINE",
"522 486 LINE",
"522 603 LINE"
);
}
);
width = 502;
}
);
unicode = 0A1E;
},
{
glyphname = grTTA;
lastChange = "2015-09-07 05:40:39 +0000";
layers = (
{
background = {
paths = (
{
closed = 1;
nodes = (
"419 153 LINE",
"389 115 OFFCURVE",
"333 78 OFFCURVE",
"255 78 CURVE SMOOTH",
"166 78 OFFCURVE",
"89 142 OFFCURVE",
"89 238 CURVE SMOOTH",
"89 334 OFFCURVE",
"166 398 OFFCURVE",
"255 398 CURVE",
"356 398 LINE",
"356 428 LINE",
"255 428 LINE",
"146 428 OFFCURVE",
"58 349 OFFCURVE",
"58 238 CURVE SMOOTH",
"58 126 OFFCURVE",
"147 48 OFFCURVE",
"255 48 CURVE SMOOTH",
"345 48 OFFCURVE",
"403 88 OFFCURVE",
"441 132 CURVE"
);
},
{
closed = 1;
nodes = (
"334 608 LINE",
"334 398 LINE",
"365 398 LINE",
"365 608 LINE"
);
},
{
closed = 1;
nodes = (
"-10 608 LINE",
"-10 579 LINE",
"481 579 LINE SMOOTH",
"481 608 LINE SMOOTH"
);
}
);
};
layerId = "6FDD6D71-1703-4D62-BB36-645A25EBC0A3";
paths = (
{
closed = 1;
nodes = (
"429 108 LINE",
"395 66 OFFCURVE",
"339 23 OFFCURVE",
"255 23 CURVE SMOOTH",
"156 23 OFFCURVE",
"79 95 OFFCURVE",
"79 201 CURVE SMOOTH",
"79 307 OFFCURVE",
"156 379 OFFCURVE",
"255 379 CURVE SMOOTH",
"366 379 LINE",
"366 409 LINE",
"255 409 LINE SMOOTH",
"137 409 OFFCURVE",
"48 322 OFFCURVE",
"48 201 CURVE SMOOTH",
"48 79 OFFCURVE",
"137 -7 OFFCURVE",
"255 -7 CURVE SMOOTH",
"351 -7 OFFCURVE",
"409 39 OFFCURVE",
"451 87 CURVE"
);
},
{
closed = 1;
nodes = (
"344 608 LINE",
"344 379 LINE",
"375 379 LINE",
"375 608 LINE"
);
},
{
closed = 1;
nodes = (
"-20 608 LINE",
"-20 579 LINE",
"491 579 LINE SMOOTH",
"491 608 LINE SMOOTH"
);
}
);
width = 471;
},
{
background = {
paths = (
{
closed = 1;
nodes = (
"371 217 LINE",
"355 197 OFFCURVE",
"327 164 OFFCURVE",
"265 164 CURVE SMOOTH",
"220 164 OFFCURVE",
"187 196 OFFCURVE",
"187 238 CURVE SMOOTH",
"187 283 OFFCURVE",
"223 307 OFFCURVE",
"270 307 CURVE",
"387 307 LINE",
"387 435 LINE",
"251 435 LINE",
"124 435 OFFCURVE",
"42 359 OFFCURVE",
"42 236 CURVE SMOOTH",
"42 113 OFFCURVE",
"137 36 OFFCURVE",
"263 36 CURVE SMOOTH",
"352 36 OFFCURVE",
"412 76 OFFCURVE",
"456 121 CURVE"
);
},
{
closed = 1;
nodes = (
"251 603 LINE",
"251 307 LINE",
"387 307 LINE",
"387 603 LINE"
);
},
{
closed = 1;
nodes = (
"-10 603 LINE",
"-10 486 LINE",
"486 486 LINE SMOOTH",
"486 603 LINE SMOOTH"
);
}
);
};
layerId = "DC46B086-4DC3-4260-9EBF-C204FB70037C";
paths = (
{
closed = 1;
nodes = (
"371 164 LINE",
"355 144 OFFCURVE",
"327 111 OFFCURVE",
"265 111 CURVE SMOOTH",
"205 111 OFFCURVE",
"177 150 OFFCURVE",
"177 197 CURVE SMOOTH",
"177 247 OFFCURVE",
"213 283 OFFCURVE",
"270 283 CURVE SMOOTH",
"387 283 LINE",
"387 411 LINE",
"251 411 LINE SMOOTH",
"124 411 OFFCURVE",
"32 320 OFFCURVE",
"32 197 CURVE SMOOTH",
"32 74 OFFCURVE",
"137 -17 OFFCURVE",
"263 -17 CURVE SMOOTH",
"357 -17 OFFCURVE",
"417 23 OFFCURVE",
"456 68 CURVE"
);
},
{
closed = 1;
nodes = (
"251 603 LINE",
"251 283 LINE",
"387 283 LINE",
"387 603 LINE"
);
},
{
closed = 1;
nodes = (
"-20 603 LINE",
"-20 486 LINE",
"486 486 LINE SMOOTH",
"486 603 LINE SMOOTH"
);
}
);
width = 466;
}
);
unicode = 0A1F;
},
{
glyphname = grTTHA;
lastChange = "2015-09-07 05:40:39 +0000";
layers = (
{
background = {
paths = (
{
closed = 1;
nodes = (
"254 608 LINE",
"254 438 LINE",
"286 438 LINE",
"286 608 LINE"
);
},
{
closed = 1;
nodes = (
"174 77 OFFCURVE",
"94 155 OFFCURVE",
"94 250 CURVE SMOOTH",
"94 346 OFFCURVE",
"174 422 OFFCURVE",
"270 422 CURVE SMOOTH",
"366 422 OFFCURVE",
"445 346 OFFCURVE",
"445 250 CURVE SMOOTH",
"445 156 OFFCURVE",
"367 77 OFFCURVE",
"270 77 CURVE SMOOTH"
);
},
{
closed = 1;
nodes = (
"386 48 OFFCURVE",
"477 139 OFFCURVE",
"477 250 CURVE SMOOTH",
"477 361 OFFCURVE",
"386 451 OFFCURVE",
"270 451 CURVE SMOOTH",
"155 451 OFFCURVE",
"63 361 OFFCURVE",
"63 250 CURVE SMOOTH",
"63 139 OFFCURVE",
"155 48 OFFCURVE",
"270 48 CURVE SMOOTH"
);
},
{
closed = 1;
nodes = (
"-5 608 LINE",
"-5 579 LINE",
"545 579 LINE SMOOTH",
"545 608 LINE SMOOTH"
);
}
);
};
guideLines = (
{
position = "{236, 409}";
}
);
layerId = "6FDD6D71-1703-4D62-BB36-645A25EBC0A3";
paths = (
{
closed = 1;
nodes = (
"254 608 LINE",
"254 417 LINE",
"286 417 LINE",
"286 608 LINE"
);
},
{
closed = 1;
nodes = (
"166 23 OFFCURVE",
"79 108 OFFCURVE",
"79 210 CURVE SMOOTH",
"79 313 OFFCURVE",
"166 396 OFFCURVE",
"270 396 CURVE SMOOTH",
"374 396 OFFCURVE",
"460 313 OFFCURVE",
"460 210 CURVE SMOOTH",
"460 109 OFFCURVE",
"375 23 OFFCURVE",
"270 23 CURVE SMOOTH"
);
},
{
closed = 1;
nodes = (
"395 -7 OFFCURVE",
"491 91 OFFCURVE",
"491 210 CURVE SMOOTH",
"491 329 OFFCURVE",
"395 426 OFFCURVE",
"270 426 CURVE SMOOTH",
"146 426 OFFCURVE",
"48 329 OFFCURVE",
"48 210 CURVE SMOOTH",
"48 91 OFFCURVE",
"146 -7 OFFCURVE",
"270 -7 CURVE SMOOTH"
);
},
{
closed = 1;
nodes = (
"-20 608 LINE",
"-20 579 LINE",
"559 579 LINE SMOOTH",
"559 608 LINE SMOOTH"
);
}
);
width = 539;
},
{
background = {
paths = (
{
closed = 1;
nodes = (
"193 603 LINE",
"193 359 LINE",
"330 359 LINE",
"330 603 LINE"
);
},
{
closed = 1;
nodes = (
"217 141 OFFCURVE",
"186 176 OFFCURVE",
"186 214 CURVE SMOOTH",
"186 253 OFFCURVE",
"216 287 OFFCURVE",
"261 287 CURVE SMOOTH",
"306 287 OFFCURVE",
"337 251 OFFCURVE",
"337 214 CURVE SMOOTH",
"337 174 OFFCURVE",
"309 141 OFFCURVE",
"261 141 CURVE SMOOTH"
);
},
{
closed = 1;
nodes = (
"380 11 OFFCURVE",
"478 93 OFFCURVE",
"478 214 CURVE SMOOTH",
"478 334 OFFCURVE",
"380 417 OFFCURVE",
"261 417 CURVE SMOOTH",
"143 417 OFFCURVE",
"45 334 OFFCURVE",
"45 214 CURVE SMOOTH",
"45 93 OFFCURVE",
"143 11 OFFCURVE",
"261 11 CURVE SMOOTH"
);
},
{
closed = 1;
nodes = (
"-7 603 LINE",
"-7 486 LINE",
"530 486 LINE",
"530 603 LINE"
);
}
);
};
guideLines = (
{
position = "{150, 411}";
}
);
layerId = "DC46B086-4DC3-4260-9EBF-C204FB70037C";
paths = (
{
closed = 1;
nodes = (
"193 603 LINE",
"193 359 LINE",
"330 359 LINE",
"330 603 LINE"
);
},
{
closed = 1;
nodes = (
"210 113 OFFCURVE",
"173 155 OFFCURVE",
"173 198 CURVE SMOOTH",
"173 243 OFFCURVE",
"209 283 OFFCURVE",
"261 283 CURVE SMOOTH",
"313 283 OFFCURVE",
"350 239 OFFCURVE",
"350 198 CURVE SMOOTH",
"350 152 OFFCURVE",
"316 113 OFFCURVE",
"261 113 CURVE SMOOTH"
);
},
{
closed = 1;
nodes = (
"387 -17 OFFCURVE",
"491 70 OFFCURVE",
"491 198 CURVE SMOOTH",
"491 325 OFFCURVE",
"387 413 OFFCURVE",
"261 413 CURVE SMOOTH",
"136 413 OFFCURVE",
"32 325 OFFCURVE",
"32 198 CURVE SMOOTH",
"32 70 OFFCURVE",
"136 -17 OFFCURVE",
"261 -17 CURVE SMOOTH"
);
},
{
closed = 1;
nodes = (
"-20 603 LINE",
"-20 486 LINE",
"543 486 LINE",
"543 603 LINE"
);
}
);
width = 523;
}
);
unicode = 0A20;
},
{
glyphname = grDDA;
lastChange = "2015-09-07 05:40:39 +0000";
layers = (
{
background = {
paths = (
{
closed = 0;
nodes = (
"63 127 LINE",
"271 127 LINE"
);
}
);
};
guideLines = (
{
angle = 90;
position = "{166, 109}";
showMeasurement = 1;
}
);
layerId = "6FDD6D71-1703-4D62-BB36-645A25EBC0A3";
paths = (
{
closed = 1;
nodes = (
"-20 608 LINE",
"-20 579 LINE",
"496 579 LINE SMOOTH",
"496 608 LINE SMOOTH"
);
},
{
closed = 1;
nodes = (
"368 357 OFFCURVE",
"401 409 OFFCURVE",
"401 462 CURVE SMOOTH",
"401 545 OFFCURVE",
"336 608 OFFCURVE",
"231 608 CURVE",
"234 579 LINE",
"317 579 OFFCURVE",
"370 528 OFFCURVE",
"370 463 CURVE SMOOTH",
"370 399 OFFCURVE",
"315 348 OFFCURVE",
"237 348 CURVE SMOOTH",
"204 348 LINE",
"204 318 LINE",
"237 318 LINE SMOOTH",
"334 318 OFFCURVE",
"398 255 OFFCURVE",
"398 166 CURVE SMOOTH",
"398 90 OFFCURVE",
"331 22 OFFCURVE",
"215 22 CURVE SMOOTH",
"117 22 OFFCURVE",
"69 65 OFFCURVE",
"69 127 CURVE SMOOTH",
"69 182 OFFCURVE",
"110 223 OFFCURVE",
"166 223 CURVE SMOOTH",
"222 223 OFFCURVE",
"263 182 OFFCURVE",
"263 127 CURVE SMOOTH",
"263 68 OFFCURVE",
"209 30 OFFCURVE",
"154 24 CURVE",
"154 2 LINE",
"235 5 OFFCURVE",
"294 57 OFFCURVE",
"294 127 CURVE SMOOTH",
"294 202 OFFCURVE",
"242 253 OFFCURVE",
"166 253 CURVE SMOOTH",
"90 253 OFFCURVE",
"38 202 OFFCURVE",
"38 127 CURVE SMOOTH",
"38 45 OFFCURVE",
"107 -7 OFFCURVE",
"215 -7 CURVE SMOOTH",
"351 -7 OFFCURVE",
"429 70 OFFCURVE",
"429 166 CURVE SMOOTH",
"429 248 OFFCURVE",
"383 312 OFFCURVE",
"313 335 CURVE"
);
}
);
width = 476;
},
{
background = {
paths = (
{
closed = 0;
nodes = (
"369 214 LINE SMOOTH",
"369 156 OFFCURVE",
"328 112 OFFCURVE",
"254 112 CURVE SMOOTH",
"184 112 OFFCURVE",
"145 150 OFFCURVE",
"129 178 CURVE",
"25 108 LINE",
"61 44 OFFCURVE",
"137 -17 OFFCURVE",
"259 -17 CURVE SMOOTH",
"402 -17 OFFCURVE",
"509 88 OFFCURVE",
"509 204 CURVE SMOOTH"
);
},
{
closed = 0;
nodes = (
"235 335 LINE",
"489 335 LINE"
);
},
{
closed = 1;
nodes = (
"250 105 OFFCURVE",
"286 141 OFFCURVE",
"286 188 CURVE SMOOTH",
"286 233 OFFCURVE",
"250 271 OFFCURVE",
"204 271 CURVE SMOOTH",
"158 271 OFFCURVE",
"121 233 OFFCURVE",
"121 188 CURVE SMOOTH",
"121 141 OFFCURVE",
"158 105 OFFCURVE",
"204 105 CURVE SMOOTH"
);
}
);
};
guideLines = (
{
angle = 90;
position = "{166, 129}";
}
);
layerId = "DC46B086-4DC3-4260-9EBF-C204FB70037C";
paths = (
{
closed = 1;
nodes = (
"-20 603 LINE",
"-20 486 LINE",
"538 486 LINE",
"538 603 LINE"
);
},
{
closed = 1;
nodes = (
"440 353 OFFCURVE",
"463 395 OFFCURVE",
"463 448 CURVE SMOOTH",
"463 536 OFFCURVE",
"383 602 OFFCURVE",
"263 602 CURVE",
"263 486 LINE",
"303 486 OFFCURVE",
"322 465 OFFCURVE",
"322 438 CURVE SMOOTH",
"322 413 OFFCURVE",
"301 390 OFFCURVE",
"263 390 CURVE SMOOTH",
"236 390 LINE",
"236 279 LINE",
"263 279 LINE SMOOTH",
"313 279 OFFCURVE",
"343 244 OFFCURVE",
"343 192 CURVE SMOOTH",
"343 140 OFFCURVE",
"305 98 OFFCURVE",
"224 98 CURVE SMOOTH",
"161 98 OFFCURVE",
"136 122 OFFCURVE",
"136 142 CURVE SMOOTH",
"136 161 OFFCURVE",
"151 171 OFFCURVE",
"166 171 CURVE SMOOTH",
"181 171 OFFCURVE",
"196 161 OFFCURVE",
"196 142 CURVE SMOOTH",
"196 126 OFFCURVE",
"179 112 OFFCURVE",
"162 106 CURVE",
"161 49 LINE",
"260 49 OFFCURVE",
"300 99 OFFCURVE",
"300 152 CURVE SMOOTH",
"300 207 OFFCURVE",
"256 266 OFFCURVE",
"166 266 CURVE SMOOTH",
"87 266 OFFCURVE",
"32 212 OFFCURVE",
"32 137 CURVE SMOOTH",
"32 57 OFFCURVE",
"103 -17 OFFCURVE",
"241 -17 CURVE SMOOTH",
"397 -17 OFFCURVE",
"484 70 OFFCURVE",
"484 192 CURVE SMOOTH",
"484 272 OFFCURVE",
"440 317 OFFCURVE",
"405 335 CURVE"
);
}
);
width = 518;
},
{
associatedMasterId = "DC46B086-4DC3-4260-9EBF-C204FB70037C";
background = {
paths = (
{
closed = 0;
nodes = (
"369 214 LINE SMOOTH",
"369 156 OFFCURVE",
"328 112 OFFCURVE",
"254 112 CURVE SMOOTH",
"184 112 OFFCURVE",
"145 150 OFFCURVE",
"129 178 CURVE",
"25 108 LINE",
"61 44 OFFCURVE",
"137 -17 OFFCURVE",
"259 -17 CURVE SMOOTH",
"402 -17 OFFCURVE",
"509 88 OFFCURVE",
"509 204 CURVE SMOOTH"
);
},
{
closed = 0;
nodes = (
"235 335 LINE",
"489 335 LINE"
);
},
{
closed = 1;
nodes = (
"250 105 OFFCURVE",
"286 141 OFFCURVE",
"286 188 CURVE SMOOTH",
"286 233 OFFCURVE",
"250 271 OFFCURVE",
"204 271 CURVE SMOOTH",
"158 271 OFFCURVE",
"121 233 OFFCURVE",
"121 188 CURVE SMOOTH",
"121 141 OFFCURVE",
"158 105 OFFCURVE",
"204 105 CURVE SMOOTH"
);
}
);
};
guideLines = (
{
angle = 90;
position = "{166, 129}";
}
);
layerId = "A0B499C6-E5DE-4A51-9F31-E40884D6C030";
name = "Bold Sep 2 15, 14:42";
paths = (
{
closed = 1;
nodes = (
"-20 603 LINE",
"-20 486 LINE",
"538 486 LINE",
"538 603 LINE"
);
},
{
closed = 1;
nodes = (
"440 353 OFFCURVE",
"463 395 OFFCURVE",
"463 448 CURVE SMOOTH",
"463 536 OFFCURVE",
"383 602 OFFCURVE",
"263 602 CURVE",
"263 486 LINE",
"303 486 OFFCURVE",
"322 465 OFFCURVE",
"322 438 CURVE SMOOTH",
"322 413 OFFCURVE",
"301 390 OFFCURVE",
"263 390 CURVE SMOOTH",
"241 390 LINE",
"241 279 LINE",
"267 279 LINE SMOOTH",
"314 279 OFFCURVE",
"339 247 OFFCURVE",
"339 192 CURVE SMOOTH",
"339 137 OFFCURVE",
"302 98 OFFCURVE",
"224 98 CURVE SMOOTH",
"161 98 OFFCURVE",
"136 122 OFFCURVE",
"136 142 CURVE SMOOTH",
"136 161 OFFCURVE",
"151 171 OFFCURVE",
"166 171 CURVE SMOOTH",
"181 171 OFFCURVE",
"196 161 OFFCURVE",
"196 142 CURVE SMOOTH",
"196 126 OFFCURVE",
"179 112 OFFCURVE",
"162 106 CURVE",
"161 49 LINE",
"260 49 OFFCURVE",
"300 99 OFFCURVE",
"300 152 CURVE SMOOTH",
"300 207 OFFCURVE",
"256 266 OFFCURVE",
"166 266 CURVE SMOOTH",
"87 266 OFFCURVE",
"32 217 OFFCURVE",
"32 147 CURVE SMOOTH",
"32 62 OFFCURVE",
"103 -17 OFFCURVE",
"241 -17 CURVE SMOOTH",
"397 -17 OFFCURVE",
"480 74 OFFCURVE",
"480 196 CURVE SMOOTH",
"480 276 OFFCURVE",
"440 317 OFFCURVE",
"405 335 CURVE"
);
}
);
width = 518;
},
{
associatedMasterId = "6FDD6D71-1703-4D62-BB36-645A25EBC0A3";
background = {
paths = (
{
closed = 1;
nodes = (
"-20 608 LINE",
"-20 579 LINE",
"486 579 LINE SMOOTH",
"486 608 LINE SMOOTH"
);
},
{
closed = 1;
nodes = (
"358 342 OFFCURVE",
"391 391 OFFCURVE",
"391 455 CURVE SMOOTH",
"391 542 OFFCURVE",
"326 608 OFFCURVE",
"221 608 CURVE",
"224 579 LINE",
"307 579 OFFCURVE",
"360 525 OFFCURVE",
"360 456 CURVE SMOOTH",
"360 381 OFFCURVE",
"306 333 OFFCURVE",
"227 333 CURVE SMOOTH",
"144 333 LINE",
"144 303 LINE",
"227 303 LINE SMOOTH",
"324 303 OFFCURVE",
"388 245 OFFCURVE",
"388 161 CURVE SMOOTH",
"388 80 OFFCURVE",
"331 23 OFFCURVE",
"235 23 CURVE SMOOTH",
"148 23 OFFCURVE",
"90 83 OFFCURVE",
"73 110 CURVE",
"48 92 LINE",
"67 62 OFFCURVE",
"131 -7 OFFCURVE",
"235 -7 CURVE SMOOTH",
"351 -7 OFFCURVE",
"419 65 OFFCURVE",
"419 161 CURVE SMOOTH",
"419 238 OFFCURVE",
"373 297 OFFCURVE",
"303 320 CURVE"
);
}
);
};
layerId = "E3B63FBB-0847-4ABE-B32D-02D01C3D39E4";
name = "Light Sep 2 15, 14:44";
paths = (
{
closed = 1;
nodes = (
"-70 608 LINE",
"-70 579 LINE",
"486 579 LINE SMOOTH",
"486 608 LINE SMOOTH"
);
},
{
closed = 1;
nodes = (
"358 347 OFFCURVE",
"391 396 OFFCURVE",
"391 455 CURVE SMOOTH",
"391 542 OFFCURVE",
"326 608 OFFCURVE",
"221 608 CURVE",
"224 579 LINE",
"307 579 OFFCURVE",
"360 525 OFFCURVE",
"360 456 CURVE SMOOTH",
"360 386 OFFCURVE",
"305 338 OFFCURVE",
"227 338 CURVE SMOOTH",
"184 338 LINE",
"184 308 LINE",
"227 308 LINE SMOOTH",
"324 308 OFFCURVE",
"388 250 OFFCURVE",
"388 161 CURVE SMOOTH",
"388 80 OFFCURVE",
"321 23 OFFCURVE",
"205 23 CURVE SMOOTH",
"98 23 OFFCURVE",
"40 103 OFFCURVE",
"23 130 CURVE",
"-2 112 LINE",
"17 82 OFFCURVE",
"81 -7 OFFCURVE",
"205 -7 CURVE SMOOTH",
"341 -7 OFFCURVE",
"419 65 OFFCURVE",
"419 161 CURVE SMOOTH",
"419 243 OFFCURVE",
"373 302 OFFCURVE",
"303 325 CURVE"
);
}
);
width = 600;
}
);
unicode = 0A21;
},
{
glyphname = grDDHA;
lastChange = "2015-09-15 08:03:20 +0000";
layers = (
{
background = {
paths = (
{
closed = 1;
nodes = (
"337 430 LINE SMOOTH",
"337 350 OFFCURVE",
"294 319 OFFCURVE",
"230 319 CURVE SMOOTH",
"169 319 OFFCURVE",
"116 344 OFFCURVE",
"116 413 CURVE",
"85 413 LINE",
"85 322 OFFCURVE",
"159 289 OFFCURVE",
"230 289 CURVE SMOOTH",
"308 289 OFFCURVE",
"369 330 OFFCURVE",
"369 430 CURVE SMOOTH",
"369 585 LINE",
"337 585 LINE"
);
},
{
closed = 1;
nodes = (
"394 171 OFFCURVE",
"354 222 OFFCURVE",
"288 222 CURVE SMOOTH",
"227 222 OFFCURVE",
"152 169 OFFCURVE",
"162 23 CURVE",
"193 23 LINE",
"183 149 OFFCURVE",
"238 192 OFFCURVE",
"288 192 CURVE SMOOTH",
"343 192 OFFCURVE",
"363 151 OFFCURVE",
"363 113 CURVE SMOOTH",
"363 75 OFFCURVE",
"327 23 OFFCURVE",
"246 23 CURVE SMOOTH",
"159 23 OFFCURVE",
"116 81 OFFCURVE",
"116 166 CURVE SMOOTH",
"116 417 LINE",
"85 417 LINE",
"85 163 LINE SMOOTH",
"85 59 OFFCURVE",
"148 -7 OFFCURVE",
"246 -7 CURVE SMOOTH",
"337 -7 OFFCURVE",
"394 55 OFFCURVE",
"394 113 CURVE SMOOTH"
);
},
{
closed = 1;
nodes = (
"-10 608 LINE",
"-10 579 LINE",
"464 579 LINE SMOOTH",
"464 608 LINE SMOOTH"
);
},
{
closed = 0;
nodes = (
"369 113 LINE",
"307 113 LINE"
);
}
);
};
guideLines = (
{
angle = 90;
position = "{309, 139}";
showMeasurement = 1;
},
{
position = "{212, 281}";
}
);
layerId = "6FDD6D71-1703-4D62-BB36-645A25EBC0A3";
paths = (
{
closed = 1;
nodes = (
"352 440 LINE SMOOTH",
"352 360 OFFCURVE",
"304 329 OFFCURVE",
"235 329 CURVE SMOOTH",
"169 329 OFFCURVE",
"111 354 OFFCURVE",
"111 423 CURVE",
"80 423 LINE",
"80 332 OFFCURVE",
"154 299 OFFCURVE",
"235 299 CURVE SMOOTH",
"319 299 OFFCURVE",
"384 340 OFFCURVE",
"384 440 CURVE SMOOTH",
"384 608 LINE",
"352 608 LINE"
);
},
{
closed = 1;
nodes = (
"395 173 OFFCURVE",
"354 223 OFFCURVE",
"288 223 CURVE SMOOTH",
"222 223 OFFCURVE",
"150 170 OFFCURVE",
"160 23 CURVE",
"191 23 LINE",
"181 150 OFFCURVE",
"233 193 OFFCURVE",
"288 193 CURVE SMOOTH",
"343 193 OFFCURVE",
"364 153 OFFCURVE",
"364 112 CURVE SMOOTH",
"364 71 OFFCURVE",
"328 23 OFFCURVE",
"246 23 CURVE SMOOTH",
"155 23 OFFCURVE",
"111 91 OFFCURVE",
"111 176 CURVE SMOOTH",
"111 427 LINE",
"80 427 LINE",
"80 176 LINE SMOOTH",
"80 71 OFFCURVE",
"143 -7 OFFCURVE",
"246 -7 CURVE SMOOTH",
"338 -7 OFFCURVE",
"395 51 OFFCURVE",
"395 112 CURVE SMOOTH"
);
},
{
closed = 1;
nodes = (
"-20 608 LINE",
"-20 579 LINE",
"469 579 LINE SMOOTH",
"469 608 LINE SMOOTH"
);
}
);
width = 449;
},
{
background = {
paths = (
{
closed = 1;
nodes = (
"317 456 LINE SMOOTH",
"317 402 OFFCURVE",
"300 378 OFFCURVE",
"255 378 CURVE SMOOTH",
"210 378 OFFCURVE",
"193 402 OFFCURVE",
"193 424 CURVE",
"112 424 LINE",
"112 337 OFFCURVE",
"155 276 OFFCURVE",
"267 276 CURVE SMOOTH",
"406 276 OFFCURVE",
"454 362 OFFCURVE",
"454 466 CURVE SMOOTH",
"454 569 LINE",
"317 569 LINE"
);
},
{
closed = 1;
nodes = (
"481 193 OFFCURVE",
"439 257 OFFCURVE",
"349 257 CURVE",
"263 257 OFFCURVE",
"220 201 OFFCURVE",
"220 135 CURVE",
"322 135 LINE",
"322 150 OFFCURVE",
"332 162 OFFCURVE",
"349 162 CURVE",
"368 162 OFFCURVE",
"376 150 OFFCURVE",
"376 135 CURVE SMOOTH",
"376 117 OFFCURVE",
"358 98 OFFCURVE",
"300 98 CURVE SMOOTH",
"231 98 OFFCURVE",
"193 141 OFFCURVE",
"193 202 CURVE SMOOTH",
"193 424 LINE",
"56 424 LINE SMOOTH",
"56 206 LINE SMOOTH",
"56 98 OFFCURVE",
"133 -18 OFFCURVE",
"286 -17 CURVE SMOOTH",
"413 -16 OFFCURVE",
"481 42 OFFCURVE",
"481 132 CURVE SMOOTH"
);
},
{
closed = 1;
nodes = (
"-10 603 LINE",
"-10 486 LINE",
"515 486 LINE",
"515 603 LINE"
);
},
{
closed = 0;
nodes = (
"399 132 LINE",
"337 132 LINE"
);
}
);
};
guideLines = (
{
angle = 90;
position = "{350, 155}";
showMeasurement = 1;
},
{
position = "{767, 269}";
}
);
layerId = "DC46B086-4DC3-4260-9EBF-C204FB70037C";
paths = (
{
closed = 1;
nodes = (
"307 450 LINE SMOOTH",
"307 396 OFFCURVE",
"292 372 OFFCURVE",
"248 372 CURVE SMOOTH",
"205 372 OFFCURVE",
"193 396 OFFCURVE",
"193 418 CURVE",
"112 418 LINE",
"112 331 OFFCURVE",
"150 270 OFFCURVE",
"262 270 CURVE SMOOTH",
"396 270 OFFCURVE",
"444 356 OFFCURVE",
"444 460 CURVE SMOOTH",
"444 569 LINE",
"307 569 LINE"
);
},
{
closed = 1;
nodes = (
"466 183 OFFCURVE",
"424 247 OFFCURVE",
"334 247 CURVE SMOOTH",
"254 247 OFFCURVE",
"188 190 OFFCURVE",
"204 70 CURVE",
"301 80 LINE",
"293 128 OFFCURVE",
"309 152 OFFCURVE",
"334 152 CURVE SMOOTH",
"353 152 OFFCURVE",
"361 139 OFFCURVE",
"361 125 CURVE SMOOTH",
"361 106 OFFCURVE",
"343 88 OFFCURVE",
"285 88 CURVE SMOOTH",
"216 88 OFFCURVE",
"193 141 OFFCURVE",
"193 202 CURVE SMOOTH",
"193 418 LINE",
"56 418 LINE SMOOTH",
"56 206 LINE SMOOTH",
"56 98 OFFCURVE",
"123 -18 OFFCURVE",
"286 -17 CURVE SMOOTH",
"393 -16 OFFCURVE",
"466 32 OFFCURVE",
"466 122 CURVE SMOOTH"
);
},
{
closed = 1;
nodes = (
"-20 603 LINE",
"-20 486 LINE",
"518 486 LINE",
"518 603 LINE"
);
}
);
width = 498;
},
{
associatedMasterId = "DC46B086-4DC3-4260-9EBF-C204FB70037C";
background = {
paths = (
{
closed = 1;
nodes = (
"287 436 LINE SMOOTH",
"287 379 OFFCURVE",
"276 358 OFFCURVE",
"237 358 CURVE SMOOTH",
"196 358 OFFCURVE",
"183 379 OFFCURVE",
"183 404 CURVE",
"102 404 LINE",
"102 297 OFFCURVE",
"140 231 OFFCURVE",
"237 231 CURVE SMOOTH",
"381 231 OFFCURVE",
"424 300 OFFCURVE",
"424 424 CURVE SMOOTH",
"424 559 LINE",
"287 559 LINE"
);
},
{
closed = 1;
nodes = (
"362 147 LINE",
"352 136 OFFCURVE",
"321 110 OFFCURVE",
"270 110 CURVE SMOOTH",
"206 110 OFFCURVE",
"183 161 OFFCURVE",
"183 202 CURVE SMOOTH",
"183 404 LINE",
"46 404 LINE SMOOTH",
"46 196 LINE SMOOTH",
"46 88 OFFCURVE",
"113 -19 OFFCURVE",
"266 -17 CURVE SMOOTH",
"353 -16 OFFCURVE",
"412 23 OFFCURVE",
"433 46 CURVE"
);
},
{
closed = 1;
nodes = (
"-20 603 LINE",
"-20 486 LINE",
"485 486 LINE",
"485 603 LINE"
);
}
);
};
guideLines = (
{
angle = 90;
position = "{345, 155}";
showMeasurement = 1;
}
);
layerId = "65557254-1DB9-4C16-90FC-D1D8402C4CC8";
name = "Bold Sep 2 15, 16:39";
paths = (
{
closed = 1;
nodes = (
"307 456 LINE SMOOTH",
"307 402 OFFCURVE",
"290 378 OFFCURVE",
"245 378 CURVE SMOOTH",
"200 378 OFFCURVE",
"183 402 OFFCURVE",
"183 424 CURVE",
"102 424 LINE",
"102 337 OFFCURVE",
"145 276 OFFCURVE",
"257 276 CURVE SMOOTH",
"396 276 OFFCURVE",
"444 362 OFFCURVE",
"444 466 CURVE SMOOTH",
"444 569 LINE",
"307 569 LINE"
);
},
{
closed = 1;
nodes = (
"477 206 OFFCURVE",
"435 270 OFFCURVE",
"345 270 CURVE",
"259 270 OFFCURVE",
"226 208 OFFCURVE",
"226 142 CURVE",
"318 145 LINE",
"318 162 OFFCURVE",
"328 175 OFFCURVE",
"345 175 CURVE",
"364 175 OFFCURVE",
"372 162 OFFCURVE",
"372 145 CURVE SMOOTH",
"372 122 OFFCURVE",
"348 98 OFFCURVE",
"290 98 CURVE SMOOTH",
"221 98 OFFCURVE",
"183 141 OFFCURVE",
"183 202 CURVE SMOOTH",
"183 424 LINE",
"46 424 LINE SMOOTH",
"46 206 LINE SMOOTH",
"46 98 OFFCURVE",
"113 -18 OFFCURVE",
"266 -17 CURVE SMOOTH",
"393 -16 OFFCURVE",
"477 45 OFFCURVE",
"477 155 CURVE SMOOTH"
);
},
{
closed = 1;
nodes = (
"-20 603 LINE",
"-20 486 LINE",
"505 486 LINE",
"505 603 LINE"
);
},
{
closed = 0;
nodes = (
"395 142 LINE",
"333 142 LINE"
);
}
);
width = 600;
},
{
associatedMasterId = "DC46B086-4DC3-4260-9EBF-C204FB70037C";
background = {
paths = (
{
closed = 1;
nodes = (
"307 456 LINE SMOOTH",
"307 402 OFFCURVE",
"290 378 OFFCURVE",
"245 378 CURVE SMOOTH",
"200 378 OFFCURVE",
"183 402 OFFCURVE",
"183 424 CURVE",
"102 424 LINE",
"102 337 OFFCURVE",
"145 276 OFFCURVE",
"257 276 CURVE SMOOTH",
"396 276 OFFCURVE",
"444 362 OFFCURVE",
"444 466 CURVE SMOOTH",
"444 569 LINE",
"307 569 LINE"
);
},
{
closed = 1;
nodes = (
"477 206 OFFCURVE",
"435 270 OFFCURVE",
"345 270 CURVE",
"259 270 OFFCURVE",
"226 208 OFFCURVE",
"226 142 CURVE",
"318 145 LINE",
"318 162 OFFCURVE",
"328 175 OFFCURVE",
"345 175 CURVE",
"364 175 OFFCURVE",
"372 162 OFFCURVE",
"372 145 CURVE SMOOTH",
"372 122 OFFCURVE",
"348 98 OFFCURVE",
"290 98 CURVE SMOOTH",
"221 98 OFFCURVE",
"183 141 OFFCURVE",
"183 202 CURVE SMOOTH",
"183 424 LINE",
"46 424 LINE SMOOTH",
"46 206 LINE SMOOTH",
"46 98 OFFCURVE",
"113 -18 OFFCURVE",
"266 -17 CURVE SMOOTH",
"393 -16 OFFCURVE",
"477 45 OFFCURVE",
"477 155 CURVE SMOOTH"
);
},
{
closed = 1;
nodes = (
"-20 603 LINE",
"-20 486 LINE",
"505 486 LINE",
"505 603 LINE"
);
},
{
closed = 0;
nodes = (
"395 142 LINE",
"333 142 LINE"
);
}
);
};
guideLines = (
{
angle = 90;
position = "{340, 155}";
showMeasurement = 1;
}
);
layerId = "B47A8677-0C9A-4A15-A8D6-6A6D44AE7989";
name = "Bold Sep 2 15, 17:16";
paths = (
{
closed = 1;
nodes = (
"307 456 LINE SMOOTH",
"307 402 OFFCURVE",
"290 378 OFFCURVE",
"245 378 CURVE SMOOTH",
"200 378 OFFCURVE",
"183 402 OFFCURVE",
"183 424 CURVE",
"102 424 LINE",
"102 337 OFFCURVE",
"145 276 OFFCURVE",
"257 276 CURVE SMOOTH",
"396 276 OFFCURVE",
"444 362 OFFCURVE",
"444 466 CURVE SMOOTH",
"444 569 LINE",
"307 569 LINE"
);
},
{
closed = 1;
nodes = (
"471 193 OFFCURVE",
"429 257 OFFCURVE",
"339 257 CURVE",
"253 257 OFFCURVE",
"210 201 OFFCURVE",
"210 135 CURVE",
"312 135 LINE",
"312 150 OFFCURVE",
"322 162 OFFCURVE",
"339 162 CURVE",
"358 162 OFFCURVE",
"366 150 OFFCURVE",
"366 135 CURVE SMOOTH",
"366 117 OFFCURVE",
"348 98 OFFCURVE",
"290 98 CURVE SMOOTH",
"221 98 OFFCURVE",
"183 141 OFFCURVE",
"183 202 CURVE SMOOTH",
"183 424 LINE",
"46 424 LINE SMOOTH",
"46 206 LINE SMOOTH",
"46 98 OFFCURVE",
"123 -18 OFFCURVE",
"276 -17 CURVE SMOOTH",
"403 -16 OFFCURVE",
"471 42 OFFCURVE",
"471 132 CURVE SMOOTH"
);
},
{
closed = 1;
nodes = (
"-20 603 LINE",
"-20 486 LINE",
"505 486 LINE",
"505 603 LINE"
);
},
{
closed = 0;
nodes = (
"389 132 LINE",
"327 132 LINE"
);
}
);
width = 600;
}
);
unicode = 0A22;
},
{
glyphname = grNNA;
lastChange = "2015-09-15 08:04:51 +0000";
layers = (
{
background = {
paths = (
{
closed = 1;
nodes = (
"-20 608 LINE",
"-20 579 LINE",
"596 579 LINE",
"596 608 LINE"
);
},
{
closed = 1;
nodes = (
"315 408 OFFCURVE",
"269 441 OFFCURVE",
"269 521 CURVE SMOOTH",
"269 608 LINE",
"238 608 LINE",
"238 521 LINE SMOOTH",
"238 426 OFFCURVE",
"295 378 OFFCURVE",
"404 378 CURVE SMOOTH",
"475 378 LINE",
"475 408 LINE",
"404 408 LINE SMOOTH"
);
},
{
closed = 1;
nodes = (
"445 86 LINE",
"414 45 OFFCURVE",
"356 22 OFFCURVE",
"301 22 CURVE SMOOTH",
"226 22 OFFCURVE",
"164 71 OFFCURVE",
"164 159 CURVE SMOOTH",
"164 244 OFFCURVE",
"223 293 OFFCURVE",
"297 293 CURVE SMOOTH",
"436 293 LINE",
"436 322 LINE",
"297 322 LINE SMOOTH",
"204 322 OFFCURVE",
"133 260 OFFCURVE",
"133 158 CURVE SMOOTH",
"133 56 OFFCURVE",
"207 -7 OFFCURVE",
"301 -7 CURVE SMOOTH",
"368 -7 OFFCURVE",
"427 17 OFFCURVE",
"466 64 CURVE"
);
},
{
closed = 1;
nodes = (
"322 307 LINE",
"352 307 LINE",
"382 392 LINE",
"352 392 LINE"
);
}
);
};
layerId = "6FDD6D71-1703-4D62-BB36-645A25EBC0A3";
paths = (
{
closed = 1;
nodes = (
"190 399 OFFCURVE",
"134 437 OFFCURVE",
"134 527 CURVE SMOOTH",
"134 603 LINE",
"103 603 LINE",
"103 527 LINE SMOOTH",
"103 422 OFFCURVE",
"170 369 OFFCURVE",
"294 369 CURVE SMOOTH",
"360 369 LINE",
"360 399 LINE",
"294 399 LINE SMOOTH"
);
},
{
closed = 1;
nodes = (
"270 388 LINE",
"270 283 LINE",
"302 283 LINE",
"302 388 LINE"
);
},
{
closed = 1;
nodes = (
"-20 608 LINE",
"-20 579 LINE",
"454 579 LINE",
"454 608 LINE"
);
},
{
closed = 1;
nodes = (
"365 86 LINE",
"334 47 OFFCURVE",
"281 22 OFFCURVE",
"220 22 CURVE SMOOTH",
"148 22 OFFCURVE",
"79 66 OFFCURVE",
"79 152 CURVE SMOOTH",
"79 235 OFFCURVE",
"138 279 OFFCURVE",
"212 279 CURVE SMOOTH",
"302 279 LINE",
"302 308 LINE",
"212 308 LINE SMOOTH",
"119 308 OFFCURVE",
"48 251 OFFCURVE",
"48 151 CURVE SMOOTH",
"48 51 OFFCURVE",
"129 -7 OFFCURVE",
"220 -7 CURVE SMOOTH",
"291 -7 OFFCURVE",
"345 19 OFFCURVE",
"384 66 CURVE"
);
}
);
width = 434;
},
{
background = {
paths = (
{
closed = 1;
nodes = (
"191 390 OFFCURVE",
"176 419 OFFCURVE",
"176 466 CURVE SMOOTH",
"176 603 LINE",
"40 603 LINE SMOOTH",
"40 449 LINE SMOOTH",
"40 329 OFFCURVE",
"121 281 OFFCURVE",
"245 281 CURVE SMOOTH",
"295 281 LINE",
"295 390 LINE",
"270 390 LINE SMOOTH"
);
},
{
closed = 1;
nodes = (
"-45 603 LINE",
"-45 486 LINE",
"492 486 LINE",
"492 603 LINE"
);
},
{
closed = 1;
nodes = (
"263 551 LINE",
"263 255 LINE",
"399 255 LINE",
"399 551 LINE"
);
},
{
closed = 1;
nodes = (
"309 153 LINE",
"291 128 OFFCURVE",
"268 111 OFFCURVE",
"226 111 CURVE SMOOTH",
"182 111 OFFCURVE",
"152 143 OFFCURVE",
"152 186 CURVE SMOOTH",
"152 231 OFFCURVE",
"188 255 OFFCURVE",
"235 255 CURVE",
"399 255 LINE",
"399 383 LINE",
"216 383 LINE",
"89 383 OFFCURVE",
"7 307 OFFCURVE",
"7 184 CURVE SMOOTH",
"7 60 OFFCURVE",
"98 -17 OFFCURVE",
"224 -17 CURVE SMOOTH",
"302 -17 OFFCURVE",
"375 29 OFFCURVE",
"397 78 CURVE"
);
}
);
};
layerId = "DC46B086-4DC3-4260-9EBF-C204FB70037C";
paths = (
{
closed = 1;
nodes = (
"236 429 OFFCURVE",
"219 459 OFFCURVE",
"219 506 CURVE SMOOTH",
"219 603 LINE",
"89 603 LINE SMOOTH",
"89 489 LINE SMOOTH",
"89 369 OFFCURVE",
"174 321 OFFCURVE",
"298 321 CURVE SMOOTH",
"398 321 LINE",
"398 429 LINE",
"294 429 LINE SMOOTH"
);
},
{
closed = 1;
nodes = (
"244 384 LINE",
"244 205 LINE",
"350 205 LINE",
"350 384 LINE"
);
},
{
closed = 1;
nodes = (
"-20 603 LINE",
"-20 486 LINE",
"463 486 LINE",
"463 603 LINE"
);
},
{
closed = 1;
nodes = (
"331 142 LINE",
"315 120 OFFCURVE",
"287 96 OFFCURVE",
"241 96 CURVE SMOOTH",
"203 96 OFFCURVE",
"167 113 OFFCURVE",
"167 148 CURVE SMOOTH",
"167 183 OFFCURVE",
"203 200 OFFCURVE",
"241 200 CURVE SMOOTH",
"350 200 LINE",
"350 298 LINE",
"216 298 LINE SMOOTH",
"113 298 OFFCURVE",
"32 257 OFFCURVE",
"32 148 CURVE SMOOTH",
"32 44 OFFCURVE",
"123 -17 OFFCURVE",
"229 -17 CURVE SMOOTH",
"319 -17 OFFCURVE",
"379 25 OFFCURVE",
"408 66 CURVE"
);
}
);
width = 443;
},
{
associatedMasterId = "6FDD6D71-1703-4D62-BB36-645A25EBC0A3";
layerId = "B14AA8D2-B203-4221-8A17-72405DA3CE66";
name = "Light Sep 5 15, 15:45";
paths = (
{
closed = 1;
nodes = (
"-20 608 LINE",
"-20 579 LINE",
"596 579 LINE",
"596 608 LINE"
);
},
{
closed = 1;
nodes = (
"283 407 OFFCURVE",
"243 441 OFFCURVE",
"243 521 CURVE SMOOTH",
"243 608 LINE",
"212 608 LINE",
"212 520 LINE SMOOTH",
"212 432 OFFCURVE",
"261 377 OFFCURVE",
"372 377 CURVE",
"376 407 LINE"
);
}
);
width = 600;
},
{
associatedMasterId = "DC46B086-4DC3-4260-9EBF-C204FB70037C";
background = {
paths = (
{
closed = 1;
nodes = (
"216 390 OFFCURVE",
"201 419 OFFCURVE",
"201 466 CURVE SMOOTH",
"201 603 LINE",
"65 603 LINE SMOOTH",
"65 449 LINE SMOOTH",
"65 329 OFFCURVE",
"146 281 OFFCURVE",
"270 281 CURVE SMOOTH",
"320 281 LINE",
"320 390 LINE",
"295 390 LINE SMOOTH"
);
},
{
closed = 1;
nodes = (
"-20 603 LINE",
"-20 486 LINE",
"517 486 LINE",
"517 603 LINE"
);
},
{
closed = 1;
nodes = (
"288 551 LINE",
"288 255 LINE",
"424 255 LINE",
"424 551 LINE"
);
},
{
closed = 1;
nodes = (
"334 153 LINE",
"316 128 OFFCURVE",
"293 111 OFFCURVE",
"251 111 CURVE SMOOTH",
"207 111 OFFCURVE",
"177 143 OFFCURVE",
"177 186 CURVE SMOOTH",
"177 231 OFFCURVE",
"213 255 OFFCURVE",
"260 255 CURVE",
"424 255 LINE",
"424 383 LINE",
"241 383 LINE",
"114 383 OFFCURVE",
"32 307 OFFCURVE",
"32 184 CURVE SMOOTH",
"32 60 OFFCURVE",
"123 -17 OFFCURVE",
"249 -17 CURVE SMOOTH",
"327 -17 OFFCURVE",
"400 29 OFFCURVE",
"422 78 CURVE"
);
}
);
};
layerId = "DE556942-5DA1-4EA5-AA00-D5D2C85CE06C";
name = "Bold Sep 5 15, 16:19";
paths = (
{
closed = 1;
nodes = (
"279 409 OFFCURVE",
"261 439 OFFCURVE",
"261 486 CURVE SMOOTH",
"261 603 LINE",
"125 603 LINE SMOOTH",
"125 469 LINE SMOOTH",
"125 349 OFFCURVE",
"206 301 OFFCURVE",
"330 301 CURVE SMOOTH",
"380 301 LINE",
"380 409 LINE",
"340 409 LINE SMOOTH"
);
},
{
closed = 1;
nodes = (
"-20 603 LINE",
"-20 486 LINE",
"517 486 LINE",
"517 603 LINE"
);
},
{
closed = 1;
nodes = (
"331 153 LINE",
"313 128 OFFCURVE",
"290 111 OFFCURVE",
"251 111 CURVE SMOOTH",
"212 111 OFFCURVE",
"182 133 OFFCURVE",
"182 173 CURVE SMOOTH",
"182 213 OFFCURVE",
"212 235 OFFCURVE",
"260 235 CURVE SMOOTH",
"347 235 LINE",
"347 343 LINE",
"241 343 LINE SMOOTH",
"128 343 OFFCURVE",
"37 286 OFFCURVE",
"37 172 CURVE SMOOTH",
"37 48 OFFCURVE",
"128 -17 OFFCURVE",
"249 -17 CURVE SMOOTH",
"327 -17 OFFCURVE",
"397 29 OFFCURVE",
"419 78 CURVE"
);
}
);
width = 600;
}
);
unicode = 0A23;
},
{
glyphname = grTA;
lastChange = "2015-09-07 05:40:39 +0000";
layers = (
{
background = {
paths = (
{
closed = 1;
nodes = (
"-20 608 LINE",
"-20 579 LINE",
"481 579 LINE SMOOTH",
"481 608 LINE SMOOTH"
);
},
{
closed = 1;
nodes = (
"353 352 OFFCURVE",
"386 396 OFFCURVE",
"386 460 CURVE SMOOTH",
"386 547 OFFCURVE",
"321 608 OFFCURVE",
"221 608 CURVE",
"224 579 LINE",
"302 579 OFFCURVE",
"355 530 OFFCURVE",
"355 461 CURVE SMOOTH",
"355 386 OFFCURVE",
"295 343 OFFCURVE",
"216 343 CURVE SMOOTH",
"174 343 LINE",
"174 313 LINE",
"222 313 LINE SMOOTH",
"314 313 OFFCURVE",
"383 259 OFFCURVE",
"383 175 CURVE SMOOTH",
"383 94 OFFCURVE",
"326 41 OFFCURVE",
"235 41 CURVE SMOOTH",
"148 41 OFFCURVE",
"90 101 OFFCURVE",
"73 128 CURVE",
"48 110 LINE",
"67 80 OFFCURVE",
"131 11 OFFCURVE",
"235 11 CURVE SMOOTH",
"346 11 OFFCURVE",
"414 79 OFFCURVE",
"414 175 CURVE SMOOTH",
"414 252 OFFCURVE",
"368 307 OFFCURVE",
"298 330 CURVE"
);
}
);
};
layerId = "6FDD6D71-1703-4D62-BB36-645A25EBC0A3";
paths = (
{
closed = 1;
nodes = (
"-20 608 LINE",
"-20 579 LINE",
"477 579 LINE SMOOTH",
"477 608 LINE SMOOTH"
);
},
{
closed = 1;
nodes = (
"349 342 OFFCURVE",
"382 391 OFFCURVE",
"382 455 CURVE SMOOTH",
"382 542 OFFCURVE",
"317 608 OFFCURVE",
"212 608 CURVE",
"215 579 LINE",
"298 579 OFFCURVE",
"351 525 OFFCURVE",
"351 456 CURVE SMOOTH",
"351 381 OFFCURVE",
"296 333 OFFCURVE",
"218 333 CURVE SMOOTH",
"154 333 LINE",
"154 303 LINE",
"218 303 LINE SMOOTH",
"315 303 OFFCURVE",
"379 245 OFFCURVE",
"379 161 CURVE SMOOTH",
"379 80 OFFCURVE",
"322 23 OFFCURVE",
"235 23 CURVE SMOOTH",
"148 23 OFFCURVE",
"90 83 OFFCURVE",
"73 110 CURVE",
"48 92 LINE",
"67 62 OFFCURVE",
"131 -7 OFFCURVE",
"235 -7 CURVE SMOOTH",
"342 -7 OFFCURVE",
"410 65 OFFCURVE",
"410 161 CURVE SMOOTH",
"410 238 OFFCURVE",
"364 297 OFFCURVE",
"294 320 CURVE"
);
}
);
width = 457;
},
{
background = {
paths = (
{
closed = 1;
nodes = (
"-10 603 LINE",
"-10 486 LINE",
"483 486 LINE",
"483 603 LINE"
);
},
{
closed = 1;
nodes = (
"374 334 OFFCURVE",
"408 370 OFFCURVE",
"408 436 CURVE SMOOTH",
"408 526 OFFCURVE",
"326 602 OFFCURVE",
"206 602 CURVE",
"206 486 LINE",
"246 486 OFFCURVE",
"267 465 OFFCURVE",
"267 436 CURVE SMOOTH",
"267 406 OFFCURVE",
"246 383 OFFCURVE",
"208 383 CURVE SMOOTH",
"164 383 LINE",
"164 252 LINE",
"212 252 LINE SMOOTH",
"259 252 OFFCURVE",
"284 227 OFFCURVE",
"284 184 CURVE SMOOTH",
"284 146 OFFCURVE",
"260 121 OFFCURVE",
"218 121 CURVE SMOOTH",
"181 121 OFFCURVE",
"152 147 OFFCURVE",
"143 174 CURVE",
"20 127 LINE",
"47 45 OFFCURVE",
"126 -10 OFFCURVE",
"214 -10 CURVE SMOOTH",
"339 -10 OFFCURVE",
"425 71 OFFCURVE",
"425 189 CURVE SMOOTH",
"425 254 OFFCURVE",
"382 299 OFFCURVE",
"350 318 CURVE"
);
}
);
};
guideLines = (
{
angle = 90;
position = "{216, 279}";
showMeasurement = 1;
}
);
hints = (
{
place = "{271.848, 0}";
}
);
layerId = "DC46B086-4DC3-4260-9EBF-C204FB70037C";
paths = (
{
closed = 1;
nodes = (
"-20 603 LINE",
"-20 486 LINE",
"491 486 LINE",
"491 603 LINE"
);
},
{
closed = 1;
nodes = (
"382 331 OFFCURVE",
"416 367 OFFCURVE",
"416 433 CURVE SMOOTH",
"416 526 OFFCURVE",
"334 602 OFFCURVE",
"214 602 CURVE",
"214 486 LINE",
"254 486 OFFCURVE",
"275 465 OFFCURVE",
"275 433 CURVE SMOOTH",
"275 403 OFFCURVE",
"254 380 OFFCURVE",
"216 380 CURVE SMOOTH",
"151 380 LINE",
"151 249 LINE",
"220 249 LINE SMOOTH",
"267 249 OFFCURVE",
"292 224 OFFCURVE",
"292 181 CURVE SMOOTH",
"292 141 OFFCURVE",
"265 114 OFFCURVE",
"218 114 CURVE SMOOTH",
"171 114 OFFCURVE",
"142 140 OFFCURVE",
"133 167 CURVE",
"10 120 LINE",
"37 38 OFFCURVE",
"116 -17 OFFCURVE",
"214 -17 CURVE SMOOTH",
"354 -17 OFFCURVE",
"433 64 OFFCURVE",
"433 186 CURVE SMOOTH",
"433 251 OFFCURVE",
"390 296 OFFCURVE",
"358 315 CURVE"
);
}
);
width = 471;
},
{
associatedMasterId = "6FDD6D71-1703-4D62-BB36-645A25EBC0A3";
background = {
paths = (
{
closed = 1;
nodes = (
"-20 608 LINE",
"-20 579 LINE",
"481 579 LINE SMOOTH",
"481 608 LINE SMOOTH"
);
},
{
closed = 1;
nodes = (
"353 352 OFFCURVE",
"386 396 OFFCURVE",
"386 460 CURVE SMOOTH",
"386 547 OFFCURVE",
"321 608 OFFCURVE",
"221 608 CURVE",
"224 579 LINE",
"302 579 OFFCURVE",
"355 530 OFFCURVE",
"355 461 CURVE SMOOTH",
"355 386 OFFCURVE",
"295 343 OFFCURVE",
"216 343 CURVE SMOOTH",
"174 343 LINE",
"174 313 LINE",
"222 313 LINE SMOOTH",
"314 313 OFFCURVE",
"383 259 OFFCURVE",
"383 175 CURVE SMOOTH",
"383 94 OFFCURVE",
"326 41 OFFCURVE",
"235 41 CURVE SMOOTH",
"148 41 OFFCURVE",
"90 101 OFFCURVE",
"73 128 CURVE",
"48 110 LINE",
"67 80 OFFCURVE",
"131 11 OFFCURVE",
"235 11 CURVE SMOOTH",
"346 11 OFFCURVE",
"414 79 OFFCURVE",
"414 175 CURVE SMOOTH",
"414 252 OFFCURVE",
"368 307 OFFCURVE",
"298 330 CURVE"
);
}
);
};
layerId = "B4EA6F4E-FC92-49F0-9B1E-420DE0F07C49";
name = "Light Sep 4 15, 11:53";
paths = (
{
closed = 1;
nodes = (
"-20 608 LINE",
"-20 579 LINE",
"486 579 LINE SMOOTH",
"486 608 LINE SMOOTH"
);
},
{
closed = 1;
nodes = (
"358 342 OFFCURVE",
"391 391 OFFCURVE",
"391 455 CURVE SMOOTH",
"391 542 OFFCURVE",
"326 608 OFFCURVE",
"221 608 CURVE",
"224 579 LINE",
"307 579 OFFCURVE",
"360 525 OFFCURVE",
"360 456 CURVE SMOOTH",
"360 381 OFFCURVE",
"305 333 OFFCURVE",
"227 333 CURVE SMOOTH",
"144 333 LINE",
"144 303 LINE",
"227 303 LINE SMOOTH",
"324 303 OFFCURVE",
"388 245 OFFCURVE",
"388 161 CURVE SMOOTH",
"388 80 OFFCURVE",
"331 23 OFFCURVE",
"235 23 CURVE SMOOTH",
"148 23 OFFCURVE",
"90 83 OFFCURVE",
"73 110 CURVE",
"48 92 LINE",
"67 62 OFFCURVE",
"131 -7 OFFCURVE",
"235 -7 CURVE SMOOTH",
"351 -7 OFFCURVE",
"419 65 OFFCURVE",
"419 161 CURVE SMOOTH",
"419 238 OFFCURVE",
"373 297 OFFCURVE",
"303 320 CURVE"
);
}
);
width = 466;
}
);
unicode = 0A24;
},
{
glyphname = grTHA;
lastChange = "2015-09-07 05:40:39 +0000";
layers = (
{
guideLines = (
{
angle = 90;
position = "{56, 504}";
}
);
layerId = "6FDD6D71-1703-4D62-BB36-645A25EBC0A3";
paths = (
{
closed = 1;
nodes = (
"56 579 LINE",
"97 569 OFFCURVE",
"124 523 OFFCURVE",
"124 473 CURVE SMOOTH",
"124 428 OFFCURVE",
"105 386 OFFCURVE",
"56 367 CURVE",
"87 349 LINE",
"124 370 OFFCURVE",
"155 415 OFFCURVE",
"155 473 CURVE SMOOTH",
"155 536 OFFCURVE",
"120 594 OFFCURVE",
"58 604 CURVE"
);
},
{
closed = 1;
nodes = (
"403 309 LINE",
"403 221 OFFCURVE",
"341 159 OFFCURVE",
"251 159 CURVE SMOOTH",
"156 159 OFFCURVE",
"87 219 OFFCURVE",
"87 314 CURVE",
"87 367 LINE",
"56 367 LINE",
"56 314 LINE",
"56 200 OFFCURVE",
"139 129 OFFCURVE",
"251 129 CURVE SMOOTH",
"355 129 OFFCURVE",
"418 197 OFFCURVE",
"418 264 CURVE"
);
},
{
closed = 1;
nodes = (
"403 0 LINE",
"434 0 LINE",
"434 608 LINE",
"403 608 LINE"
);
},
{
closed = 1;
nodes = (
"104 398 LINE",
"104 369 LINE",
"408 369 LINE SMOOTH",
"408 398 LINE SMOOTH"
);
},
{
closed = 1;
nodes = (
"-20 608 LINE",
"-20 579 LINE",
"559 579 LINE SMOOTH",
"559 608 LINE SMOOTH"
);
}
);
width = 539;
},
{
background = {
paths = (
{
closed = 1;
nodes = (
"56 486 LINE",
"98 486 OFFCURVE",
"118 447 OFFCURVE",
"118 412 CURVE SMOOTH",
"118 377 OFFCURVE",
"100 345 OFFCURVE",
"56 338 CURVE",
"158 274 LINE",
"219 298 OFFCURVE",
"256 360 OFFCURVE",
"256 427 CURVE SMOOTH",
"256 524 OFFCURVE",
"183 603 OFFCURVE",
"56 603 CURVE"
);
},
{
closed = 1;
nodes = (
"428 287 LINE",
"428 213 OFFCURVE",
"373 175 OFFCURVE",
"299 175 CURVE SMOOTH",
"228 175 OFFCURVE",
"191 216 OFFCURVE",
"191 271 CURVE SMOOTH",
"191 338 LINE",
"56 338 LINE",
"56 256 LINE",
"56 137 OFFCURVE",
"162 48 OFFCURVE",
"303 48 CURVE SMOOTH",
"406 48 OFFCURVE",
"484 111 OFFCURVE",
"484 173 CURVE"
);
},
{
closed = 1;
nodes = (
"428 0 LINE",
"565 0 LINE",
"565 603 LINE SMOOTH",
"428 603 LINE"
);
},
{
closed = 1;
nodes = (
"428 603 LINE",
"428 486 LINE",
"640 486 LINE",
"640 603 LINE"
);
},
{
closed = 1;
nodes = (
"-20 603 LINE",
"-20 486 LINE",
"56 486 LINE",
"56 603 LINE"
);
}
);
};
layerId = "DC46B086-4DC3-4260-9EBF-C204FB70037C";
paths = (
{
closed = 1;
nodes = (
"56 486 LINE",
"98 486 OFFCURVE",
"118 447 OFFCURVE",
"118 412 CURVE SMOOTH",
"118 377 OFFCURVE",
"100 345 OFFCURVE",
"56 338 CURVE",
"158 274 LINE",
"219 298 OFFCURVE",
"256 348 OFFCURVE",
"256 415 CURVE SMOOTH",
"256 512 OFFCURVE",
"183 590 OFFCURVE",
"88 590 CURVE"
);
},
{
closed = 1;
nodes = (
"416 297 LINE",
"416 223 OFFCURVE",
"366 185 OFFCURVE",
"299 185 CURVE SMOOTH",
"228 185 OFFCURVE",
"191 226 OFFCURVE",
"191 281 CURVE SMOOTH",
"191 338 LINE",
"56 338 LINE",
"56 266 LINE",
"56 147 OFFCURVE",
"162 58 OFFCURVE",
"303 58 CURVE SMOOTH",
"399 58 OFFCURVE",
"472 121 OFFCURVE",
"472 183 CURVE"
);
},
{
closed = 1;
nodes = (
"416 0 LINE",
"553 0 LINE",
"553 574 LINE SMOOTH",
"416 574 LINE"
);
},
{
closed = 1;
nodes = (
"186 399 LINE",
"186 302 LINE",
"501 302 LINE",
"501 399 LINE"
);
},
{
closed = 1;
nodes = (
"-20 603 LINE",
"-20 486 LINE",
"628 486 LINE",
"628 603 LINE"
);
}
);
width = 608;
},
{
associatedMasterId = "6FDD6D71-1703-4D62-BB36-645A25EBC0A3";
background = {
paths = (
{
closed = 1;
nodes = (
"343 314 LINE",
"343 233 OFFCURVE",
"288 159 OFFCURVE",
"181 159 CURVE SMOOTH",
"81 159 OFFCURVE",
"7 219 OFFCURVE",
"7 314 CURVE",
"7 369 LINE",
"-24 369 LINE",
"-24 314 LINE",
"-24 200 OFFCURVE",
"64 129 OFFCURVE",
"181 129 CURVE SMOOTH",
"302 129 OFFCURVE",
"358 207 OFFCURVE",
"358 269 CURVE"
);
}
);
};
guideLines = (
{
angle = 90;
position = "{46, 504}";
}
);
layerId = "A7E8095B-DBAB-4EAA-B9BE-3880406266B8";
name = "Light Sep 1 15, 11:25";
paths = (
{
closed = 1;
nodes = (
"344 0 LINE",
"376 0 LINE",
"376 608 LINE",
"344 608 LINE"
);
},
{
closed = 1;
nodes = (
"-20 608 LINE",
"-20 579 LINE",
"501 579 LINE SMOOTH",
"501 608 LINE SMOOTH"
);
},
{
closed = 1;
nodes = (
"77 369 LINE",
"114 390 OFFCURVE",
"145 430 OFFCURVE",
"145 483 CURVE SMOOTH",
"145 541 OFFCURVE",
"108 593 OFFCURVE",
"46 603 CURVE",
"46 579 LINE",
"87 569 OFFCURVE",
"114 528 OFFCURVE",
"114 483 CURVE SMOOTH",
"114 443 OFFCURVE",
"95 406 OFFCURVE",
"46 387 CURVE",
"46 340 LINE SMOOTH",
"46 233 OFFCURVE",
"120 176 OFFCURVE",
"211 176 CURVE SMOOTH",
"285 176 OFFCURVE",
"346 211 OFFCURVE",
"367 282 CURVE",
"344 329 LINE",
"344 249 OFFCURVE",
"284 206 OFFCURVE",
"211 206 CURVE SMOOTH",
"131 206 OFFCURVE",
"77 255 OFFCURVE",
"77 344 CURVE SMOOTH"
);
},
{
closed = 1;
nodes = (
"113 438 LINE",
"113 409 LINE",
"355 409 LINE SMOOTH",
"355 438 LINE SMOOTH"
);
}
);
width = 481;
},
{
associatedMasterId = "DC46B086-4DC3-4260-9EBF-C204FB70037C";
layerId = "16DA7542-B79C-4AFC-8113-101BF07285FD";
name = "Bold Sep 1 15, 11:35";
paths = (
{
closed = 1;
nodes = (
"418 0 LINE",
"555 0 LINE",
"555 574 LINE SMOOTH",
"418 574 LINE"
);
},
{
closed = 1;
nodes = (
"140 486 LINE",
"185 486 OFFCURVE",
"216 469 OFFCURVE",
"216 425 CURVE SMOOTH",
"216 385 OFFCURVE",
"185 369 OFFCURVE",
"140 369 CURVE",
"46 369 LINE",
"46 256 LINE",
"174 251 LINE",
"274 251 OFFCURVE",
"354 311 OFFCURVE",
"354 413 CURVE SMOOTH",
"354 525 OFFCURVE",
"272 590 OFFCURVE",
"172 590 CURVE"
);
},
{
closed = 1;
nodes = (
"418 287 LINE",
"418 213 OFFCURVE",
"363 175 OFFCURVE",
"289 175 CURVE SMOOTH",
"218 175 OFFCURVE",
"181 216 OFFCURVE",
"181 271 CURVE SMOOTH",
"181 340 LINE",
"46 340 LINE",
"46 256 LINE",
"46 137 OFFCURVE",
"152 48 OFFCURVE",
"293 48 CURVE SMOOTH",
"396 48 OFFCURVE",
"474 111 OFFCURVE",
"474 173 CURVE"
);
},
{
closed = 1;
nodes = (
"-20 603 LINE",
"-20 486 LINE",
"630 486 LINE",
"630 603 LINE"
);
}
);
width = 600;
}
);
unicode = 0A25;
},
{
glyphname = grDA;
lastChange = "2015-09-07 05:40:39 +0000";
layers = (
{
background = {
paths = (
{
closed = 1;
nodes = (
"77 393 LINE",
"77 292 OFFCURVE",
"149 259 OFFCURVE",
"220 259 CURVE SMOOTH",
"292 259 OFFCURVE",
"363 302 OFFCURVE",
"363 400 CURVE SMOOTH",
"363 608 LINE",
"332 608 LINE",
"332 403 LINE SMOOTH",
"332 324 OFFCURVE",
"281 289 OFFCURVE",
"220 289 CURVE SMOOTH",
"159 289 OFFCURVE",
"108 314 OFFCURVE",
"108 393 CURVE"
);
}
);
};
guideLines = (
{
position = "{182, 300}";
},
{
angle = 90;
position = "{364, 219}";
}
);
layerId = "6FDD6D71-1703-4D62-BB36-645A25EBC0A3";
paths = (
{
closed = 1;
nodes = (
"327 420 LINE SMOOTH",
"327 340 OFFCURVE",
"284 309 OFFCURVE",
"220 309 CURVE SMOOTH",
"159 309 OFFCURVE",
"106 334 OFFCURVE",
"106 403 CURVE",
"75 403 LINE",
"75 312 OFFCURVE",
"149 279 OFFCURVE",
"220 279 CURVE SMOOTH",
"298 279 OFFCURVE",
"359 320 OFFCURVE",
"359 420 CURVE SMOOTH",
"359 585 LINE",
"327 585 LINE"
);
},
{
closed = 1;
nodes = (
"347 72 LINE",
"326 50 OFFCURVE",
"287 23 OFFCURVE",
"226 23 CURVE SMOOTH",
"149 23 OFFCURVE",
"106 81 OFFCURVE",
"106 166 CURVE SMOOTH",
"106 407 LINE",
"75 407 LINE",
"75 163 LINE SMOOTH",
"75 59 OFFCURVE",
"138 -7 OFFCURVE",
"226 -7 CURVE SMOOTH",
"297 -7 OFFCURVE",
"342 29 OFFCURVE",
"364 51 CURVE"
);
},
{
closed = 1;
nodes = (
"-20 608 LINE",
"-20 579 LINE",
"454 579 LINE SMOOTH",
"454 608 LINE SMOOTH"
);
}
);
width = 434;
},
{
background = {
paths = (
{
closed = 1;
nodes = (
"-20 603 LINE",
"-20 486 LINE",
"501 486 LINE",
"501 603 LINE"
);
},
{
closed = 1;
nodes = (
"329 153 LINE",
"319 142 OFFCURVE",
"295 115 OFFCURVE",
"251 115 CURVE SMOOTH",
"193 115 OFFCURVE",
"183 167 OFFCURVE",
"183 207 CURVE SMOOTH",
"183 421 LINE",
"46 421 LINE SMOOTH",
"46 202 LINE SMOOTH",
"46 94 OFFCURVE",
"101 -15 OFFCURVE",
"247 -13 CURVE SMOOTH",
"327 -12 OFFCURVE",
"379 29 OFFCURVE",
"400 50 CURVE"
);
},
{
closed = 1;
nodes = (
"287 436 LINE SMOOTH",
"287 379 OFFCURVE",
"276 358 OFFCURVE",
"237 358 CURVE SMOOTH",
"196 358 OFFCURVE",
"183 379 OFFCURVE",
"183 404 CURVE",
"102 404 LINE",
"102 297 OFFCURVE",
"140 231 OFFCURVE",
"237 231 CURVE SMOOTH",
"381 231 OFFCURVE",
"424 300 OFFCURVE",
"424 424 CURVE SMOOTH",
"424 559 LINE",
"287 559 LINE"
);
}
);
};
layerId = "DC46B086-4DC3-4260-9EBF-C204FB70037C";
paths = (
{
closed = 1;
nodes = (
"287 436 LINE SMOOTH",
"287 382 OFFCURVE",
"275 358 OFFCURVE",
"235 358 CURVE SMOOTH",
"195 358 OFFCURVE",
"183 382 OFFCURVE",
"183 404 CURVE",
"102 404 LINE",
"102 297 OFFCURVE",
"140 231 OFFCURVE",
"247 231 CURVE SMOOTH",
"381 231 OFFCURVE",
"424 312 OFFCURVE",
"424 436 CURVE SMOOTH",
"424 559 LINE",
"287 559 LINE"
);
},
{
closed = 1;
nodes = (
"362 147 LINE",
"352 136 OFFCURVE",
"321 110 OFFCURVE",
"270 110 CURVE SMOOTH",
"206 110 OFFCURVE",
"183 161 OFFCURVE",
"183 202 CURVE SMOOTH",
"183 404 LINE",
"46 404 LINE SMOOTH",
"46 196 LINE SMOOTH",
"46 88 OFFCURVE",
"113 -19 OFFCURVE",
"266 -17 CURVE SMOOTH",
"353 -16 OFFCURVE",
"412 23 OFFCURVE",
"433 46 CURVE"
);
},
{
closed = 1;
nodes = (
"-20 603 LINE",
"-20 486 LINE",
"485 486 LINE",
"485 603 LINE"
);
}
);
width = 465;
},
{
associatedMasterId = "6FDD6D71-1703-4D62-BB36-645A25EBC0A3";
background = {
paths = (
{
closed = 1;
nodes = (
"348 313 LINE",
"379 313 LINE",
"379 608 LINE",
"348 608 LINE"
);
},
{
closed = 1;
nodes = (
"362 342 LINE",
"141 342 LINE SMOOTH",
"117 342 OFFCURVE",
"107 351 OFFCURVE",
"107 375 CURVE",
"83 375 LINE",
"83 337 OFFCURVE",
"100 313 OFFCURVE",
"136 313 CURVE SMOOTH",
"362 313 LINE"
);
},
{
closed = 1;
nodes = (
"76 411 LINE",
"76 0 LINE",
"107 0 LINE",
"107 411 LINE"
);
},
{
closed = 1;
nodes = (
"-20 608 LINE",
"-20 579 LINE",
"504 579 LINE SMOOTH",
"504 608 LINE SMOOTH"
);
}
);
};
guideLines = (
{
position = "{182, 314}";
}
);
layerId = "0B5B357E-687C-45B2-9D31-6C713D862EE8";
name = "Light Sep 2 15, 15:12";
paths = (
{
closed = 1;
nodes = (
"316 314 LINE",
"347 314 LINE",
"347 608 LINE",
"316 608 LINE"
);
},
{
closed = 1;
nodes = (
"330 343 LINE",
"141 343 LINE SMOOTH",
"117 343 OFFCURVE",
"107 352 OFFCURVE",
"107 376 CURVE",
"83 376 LINE",
"83 338 OFFCURVE",
"100 314 OFFCURVE",
"136 314 CURVE SMOOTH",
"330 314 LINE"
);
},
{
closed = 1;
nodes = (
"-20 608 LINE",
"-20 579 LINE",
"442 579 LINE SMOOTH",
"442 608 LINE SMOOTH"
);
},
{
closed = 1;
nodes = (
"348 72 LINE",
"327 50 OFFCURVE",
"288 23 OFFCURVE",
"227 23 CURVE SMOOTH",
"150 23 OFFCURVE",
"107 81 OFFCURVE",
"107 166 CURVE SMOOTH",
"107 412 LINE",
"76 412 LINE",
"76 163 LINE SMOOTH",
"76 59 OFFCURVE",
"139 -7 OFFCURVE",
"227 -7 CURVE SMOOTH",
"298 -7 OFFCURVE",
"343 29 OFFCURVE",
"365 51 CURVE"
);
}
);
width = 422;
},
{
associatedMasterId = "6FDD6D71-1703-4D62-BB36-645A25EBC0A3";
background = {
paths = (
{
closed = 1;
nodes = (
"77 393 LINE",
"77 292 OFFCURVE",
"149 259 OFFCURVE",
"220 259 CURVE SMOOTH",
"292 259 OFFCURVE",
"363 302 OFFCURVE",
"363 400 CURVE SMOOTH",
"363 608 LINE",
"332 608 LINE",
"332 403 LINE SMOOTH",
"332 324 OFFCURVE",
"281 289 OFFCURVE",
"220 289 CURVE SMOOTH",
"159 289 OFFCURVE",
"108 314 OFFCURVE",
"108 393 CURVE"
);
}
);
};
guideLines = (
{
position = "{182, 314}";
}
);
layerId = "6A5F7FA5-45A1-45FD-B5A9-C028900471A9";
name = "Light Sep 2 15, 16:02";
paths = (
{
closed = 1;
nodes = (
"-20 608 LINE",
"-20 579 LINE",
"452 579 LINE SMOOTH",
"452 608 LINE SMOOTH"
);
},
{
closed = 1;
nodes = (
"347 72 LINE",
"326 50 OFFCURVE",
"287 23 OFFCURVE",
"226 23 CURVE SMOOTH",
"149 23 OFFCURVE",
"106 81 OFFCURVE",
"106 166 CURVE SMOOTH",
"106 417 LINE",
"75 417 LINE",
"75 163 LINE SMOOTH",
"75 59 OFFCURVE",
"138 -7 OFFCURVE",
"226 -7 CURVE SMOOTH",
"297 -7 OFFCURVE",
"342 29 OFFCURVE",
"364 51 CURVE"
);
},
{
closed = 1;
nodes = (
"220 319 LINE SMOOTH",
"159 319 OFFCURVE",
"106 344 OFFCURVE",
"106 413 CURVE",
"75 413 LINE",
"75 322 OFFCURVE",
"149 289 OFFCURVE",
"220 289 CURVE SMOOTH",
"345 289 LINE",
"345 319 LINE"
);
},
{
closed = 1;
nodes = (
"326 289 LINE",
"357 289 LINE",
"357 608 LINE",
"326 608 LINE"
);
}
);
width = 422;
},
{
associatedMasterId = "DC46B086-4DC3-4260-9EBF-C204FB70037C";
background = {
paths = (
{
closed = 1;
nodes = (
"234 358 LINE SMOOTH",
"204 358 OFFCURVE",
"187 374 OFFCURVE",
"187 404 CURVE",
"116 404 LINE",
"116 304 OFFCURVE",
"148 241 OFFCURVE",
"234 241 CURVE SMOOTH",
"445 241 LINE",
"445 358 LINE"
);
},
{
closed = 1;
nodes = (
"50 186 LINE SMOOTH",
"50 38 OFFCURVE",
"148 -17 OFFCURVE",
"255 -17 CURVE SMOOTH",
"371 -17 OFFCURVE",
"460 38 OFFCURVE",
"460 186 CURVE SMOOTH",
"460 603 LINE",
"323 603 LINE",
"323 188 LINE SMOOTH",
"323 144 OFFCURVE",
"306 111 OFFCURVE",
"255 111 CURVE SMOOTH",
"205 111 OFFCURVE",
"187 144 OFFCURVE",
"187 188 CURVE SMOOTH",
"187 421 LINE",
"50 421 LINE"
);
},
{
closed = 1;
nodes = (
"-20 603 LINE",
"-20 486 LINE",
"535 486 LINE",
"535 603 LINE"
);
}
);
};
layerId = "F075B0A8-0C54-48E4-817B-B4A9C7457FBF";
name = "Bold Sep 2 15, 16:14";
paths = (
{
closed = 1;
nodes = (
"234 358 LINE SMOOTH",
"204 358 OFFCURVE",
"187 374 OFFCURVE",
"187 404 CURVE",
"116 404 LINE",
"116 304 OFFCURVE",
"148 241 OFFCURVE",
"234 241 CURVE SMOOTH",
"415 241 LINE",
"415 358 LINE"
);
},
{
closed = 1;
nodes = (
"430 241 LINE",
"430 603 LINE",
"293 603 LINE",
"293 241 LINE"
);
},
{
closed = 1;
nodes = (
"-16 603 LINE",
"-16 486 LINE",
"505 486 LINE",
"505 603 LINE"
);
},
{
closed = 1;
nodes = (
"333 153 LINE",
"323 142 OFFCURVE",
"299 115 OFFCURVE",
"255 115 CURVE SMOOTH",
"197 115 OFFCURVE",
"187 167 OFFCURVE",
"187 207 CURVE SMOOTH",
"187 421 LINE",
"50 421 LINE SMOOTH",
"50 202 LINE SMOOTH",
"50 94 OFFCURVE",
"105 -15 OFFCURVE",
"251 -13 CURVE SMOOTH",
"331 -12 OFFCURVE",
"383 29 OFFCURVE",
"404 50 CURVE"
);
}
);
width = 600;
}
);
unicode = 0A26;
},
{
glyphname = grDHA;
lastChange = "2015-09-07 05:40:39 +0000";
layers = (
{
background = {
paths = (
{
closed = 1;
nodes = (
"56 579 LINE",
"97 569 OFFCURVE",
"124 523 OFFCURVE",
"124 473 CURVE SMOOTH",
"124 428 OFFCURVE",
"105 386 OFFCURVE",
"56 367 CURVE",
"87 349 LINE",
"124 370 OFFCURVE",
"155 415 OFFCURVE",
"155 473 CURVE SMOOTH",
"155 536 OFFCURVE",
"120 594 OFFCURVE",
"58 604 CURVE"
);
},
{
closed = 1;
nodes = (
"403 309 LINE",
"403 221 OFFCURVE",
"341 159 OFFCURVE",
"251 159 CURVE SMOOTH",
"156 159 OFFCURVE",
"87 219 OFFCURVE",
"87 314 CURVE",
"87 367 LINE",
"56 367 LINE",
"56 314 LINE",
"56 200 OFFCURVE",
"139 129 OFFCURVE",
"251 129 CURVE SMOOTH",
"355 129 OFFCURVE",
"418 197 OFFCURVE",
"418 264 CURVE"
);
},
{
closed = 1;
nodes = (
"403 0 LINE",
"434 0 LINE",
"434 608 LINE",
"403 608 LINE"
);
},
{
closed = 1;
nodes = (
"104 398 LINE",
"104 369 LINE",
"408 369 LINE SMOOTH",
"408 398 LINE SMOOTH"
);
},
{
closed = 1;
nodes = (
"-20 608 LINE",
"-20 579 LINE",
"559 579 LINE SMOOTH",
"559 608 LINE SMOOTH"
);
}
);
};
layerId = "6FDD6D71-1703-4D62-BB36-645A25EBC0A3";
paths = (
{
closed = 1;
nodes = (
"56 579 LINE",
"97 569 OFFCURVE",
"124 523 OFFCURVE",
"124 473 CURVE SMOOTH",
"124 428 OFFCURVE",
"105 386 OFFCURVE",
"56 367 CURVE",
"87 349 LINE",
"124 370 OFFCURVE",
"155 415 OFFCURVE",
"155 473 CURVE SMOOTH",
"155 536 OFFCURVE",
"120 594 OFFCURVE",
"58 604 CURVE"
);
},
{
closed = 1;
nodes = (
"413 314 LINE",
"413 228 OFFCURVE",
"361 159 OFFCURVE",
"251 159 CURVE SMOOTH",
"156 159 OFFCURVE",
"87 219 OFFCURVE",
"87 314 CURVE",
"87 367 LINE",
"56 367 LINE",
"56 314 LINE",
"56 200 OFFCURVE",
"139 129 OFFCURVE",
"251 129 CURVE SMOOTH",
"375 129 OFFCURVE",
"428 202 OFFCURVE",
"428 269 CURVE"
);
},
{
closed = 1;
nodes = (
"413 0 LINE",
"444 0 LINE",
"444 608 LINE",
"413 608 LINE"
);
},
{
closed = 1;
nodes = (
"-20 608 LINE",
"-20 579 LINE",
"569 579 LINE SMOOTH",
"569 608 LINE SMOOTH"
);
}
);
width = 549;
},
{
background = {
paths = (
{
closed = 1;
nodes = (
"56 486 LINE",
"98 486 OFFCURVE",
"118 447 OFFCURVE",
"118 412 CURVE SMOOTH",
"118 377 OFFCURVE",
"100 345 OFFCURVE",
"56 338 CURVE",
"158 274 LINE",
"219 298 OFFCURVE",
"256 348 OFFCURVE",
"256 415 CURVE SMOOTH",
"256 512 OFFCURVE",
"183 590 OFFCURVE",
"88 590 CURVE"
);
},
{
closed = 1;
nodes = (
"423 287 LINE",
"423 213 OFFCURVE",
"368 175 OFFCURVE",
"299 175 CURVE SMOOTH",
"228 175 OFFCURVE",
"191 216 OFFCURVE",
"191 271 CURVE SMOOTH",
"191 338 LINE",
"56 338 LINE",
"56 256 LINE",
"56 137 OFFCURVE",
"162 48 OFFCURVE",
"303 48 CURVE SMOOTH",
"401 48 OFFCURVE",
"479 111 OFFCURVE",
"479 173 CURVE"
);
},
{
closed = 1;
nodes = (
"423 0 LINE",
"560 0 LINE",
"560 574 LINE SMOOTH",
"423 574 LINE"
);
},
{
closed = 1;
nodes = (
"186 399 LINE",
"186 302 LINE",
"508 302 LINE",
"508 399 LINE"
);
},
{
closed = 1;
nodes = (
"-20 603 LINE",
"-20 486 LINE",
"635 486 LINE",
"635 603 LINE"
);
}
);
};
layerId = "DC46B086-4DC3-4260-9EBF-C204FB70037C";
paths = (
{
closed = 1;
nodes = (
"56 486 LINE",
"98 486 OFFCURVE",
"118 447 OFFCURVE",
"118 412 CURVE SMOOTH",
"118 377 OFFCURVE",
"100 345 OFFCURVE",
"56 338 CURVE",
"158 274 LINE",
"219 298 OFFCURVE",
"256 348 OFFCURVE",
"256 415 CURVE SMOOTH",
"256 512 OFFCURVE",
"183 590 OFFCURVE",
"88 590 CURVE"
);
},
{
closed = 1;
nodes = (
"421 297 LINE",
"421 223 OFFCURVE",
"371 185 OFFCURVE",
"299 185 CURVE SMOOTH",
"228 185 OFFCURVE",
"191 226 OFFCURVE",
"191 281 CURVE SMOOTH",
"191 338 LINE",
"56 338 LINE",
"56 266 LINE",
"56 147 OFFCURVE",
"162 58 OFFCURVE",
"303 58 CURVE SMOOTH",
"404 58 OFFCURVE",
"477 121 OFFCURVE",
"477 183 CURVE"
);
},
{
closed = 1;
nodes = (
"421 0 LINE",
"558 0 LINE",
"558 574 LINE SMOOTH",
"421 574 LINE"
);
},
{
closed = 1;
nodes = (
"-20 603 LINE",
"-20 486 LINE",
"633 486 LINE",
"633 603 LINE"
);
}
);
width = 613;
}
);
unicode = 0A27;
},
{
glyphname = grNA;
lastChange = "2015-09-07 13:51:13 +0000";
layers = (
{
background = {
paths = (
{
closed = 1;
nodes = (
"384 -7 OFFCURVE",
"474 83 OFFCURVE",
"474 195 CURVE SMOOTH",
"474 306 OFFCURVE",
"384 396 OFFCURVE",
"272 396 CURVE SMOOTH",
"160 396 OFFCURVE",
"70 306 OFFCURVE",
"70 195 CURVE SMOOTH",
"70 83 OFFCURVE",
"160 -7 OFFCURVE",
"272 -7 CURVE SMOOTH"
);
},
{
closed = 1;
nodes = (
"401 -37 OFFCURVE",
"504 66 OFFCURVE",
"504 195 CURVE SMOOTH",
"504 323 OFFCURVE",
"401 426 OFFCURVE",
"272 426 CURVE SMOOTH",
"143 426 OFFCURVE",
"40 323 OFFCURVE",
"40 195 CURVE SMOOTH",
"40 66 OFFCURVE",
"143 -37 OFFCURVE",
"272 -37 CURVE SMOOTH"
);
}
);
};
guideLines = (
{
position = "{190, 35}";
}
);
layerId = "6FDD6D71-1703-4D62-BB36-645A25EBC0A3";
paths = (
{
closed = 1;
nodes = (
"256 608 LINE",
"256 412 LINE",
"288 412 LINE",
"288 608 LINE"
);
},
{
closed = 1;
nodes = (
"-20 608 LINE",
"-20 579 LINE",
"564 579 LINE SMOOTH",
"564 608 LINE SMOOTH"
);
},
{
closed = 1;
nodes = (
"396 -7 LINE",
"454 32 OFFCURVE",
"502 99 OFFCURVE",
"502 197 CURVE SMOOTH",
"502 314 OFFCURVE",
"410 421 OFFCURVE",
"272 421 CURVE SMOOTH",
"134 421 OFFCURVE",
"42 314 OFFCURVE",
"42 197 CURVE SMOOTH",
"42 99 OFFCURVE",
"89 32 OFFCURVE",
"147 -7 CURVE",
"165 18 LINE",
"116 52 OFFCURVE",
"73 109 OFFCURVE",
"73 197 CURVE SMOOTH",
"73 300 OFFCURVE",
"153 391 OFFCURVE",
"272 391 CURVE SMOOTH",
"391 391 OFFCURVE",
"471 300 OFFCURVE",
"471 197 CURVE SMOOTH",
"471 109 OFFCURVE",
"428 52 OFFCURVE",
"378 18 CURVE"
);
}
);
width = 544;
},
{
background = {
paths = (
{
closed = 1;
nodes = (
"200 603 LINE",
"200 359 LINE",
"337 359 LINE",
"337 603 LINE"
);
},
{
closed = 1;
nodes = (
"-13 603 LINE",
"-13 486 LINE",
"550 486 LINE",
"550 603 LINE"
);
},
{
closed = 1;
nodes = (
"318 108 OFFCURVE",
"357 147 OFFCURVE",
"357 196 CURVE SMOOTH",
"357 244 OFFCURVE",
"318 283 OFFCURVE",
"269 283 CURVE SMOOTH",
"220 283 OFFCURVE",
"180 244 OFFCURVE",
"180 196 CURVE SMOOTH",
"180 147 OFFCURVE",
"220 108 OFFCURVE",
"269 108 CURVE SMOOTH"
);
}
);
};
guideLines = (
{
position = "{157, 411}";
}
);
layerId = "DC46B086-4DC3-4260-9EBF-C204FB70037C";
paths = (
{
closed = 1;
nodes = (
"200 603 LINE",
"200 359 LINE",
"337 359 LINE",
"337 603 LINE"
);
},
{
closed = 1;
nodes = (
"-20 603 LINE",
"-20 486 LINE",
"558 486 LINE",
"558 603 LINE"
);
},
{
closed = 1;
nodes = (
"397 -17 LINE",
"466 22 OFFCURVE",
"511 99 OFFCURVE",
"511 185 CURVE SMOOTH",
"511 323 OFFCURVE",
"403 414 OFFCURVE",
"269 414 CURVE SMOOTH",
"136 414 OFFCURVE",
"27 323 OFFCURVE",
"27 185 CURVE SMOOTH",
"27 99 OFFCURVE",
"73 22 OFFCURVE",
"142 -17 CURVE",
"222 96 LINE",
"193 114 OFFCURVE",
"172 146 OFFCURVE",
"172 187 CURVE SMOOTH",
"172 239 OFFCURVE",
"211 282 OFFCURVE",
"269 282 CURVE SMOOTH",
"327 282 OFFCURVE",
"366 239 OFFCURVE",
"366 187 CURVE SMOOTH",
"366 146 OFFCURVE",
"346 114 OFFCURVE",
"317 96 CURVE"
);
}
);
width = 538;
},
{
associatedMasterId = "DC46B086-4DC3-4260-9EBF-C204FB70037C";
background = {
paths = (
{
closed = 1;
nodes = (
"193 603 LINE",
"193 359 LINE",
"330 359 LINE",
"330 603 LINE"
);
},
{
closed = 1;
nodes = (
"-20 603 LINE",
"-20 486 LINE",
"543 486 LINE",
"543 603 LINE"
);
},
{
closed = 1;
nodes = (
"387 10 LINE",
"450 46 OFFCURVE",
"491 111 OFFCURVE",
"491 198 CURVE SMOOTH",
"491 325 OFFCURVE",
"387 413 OFFCURVE",
"261 413 CURVE SMOOTH",
"136 413 OFFCURVE",
"32 325 OFFCURVE",
"32 198 CURVE SMOOTH",
"32 111 OFFCURVE",
"74 46 OFFCURVE",
"137 10 CURVE",
"215 121 LINE",
"189 137 OFFCURVE",
"173 165 OFFCURVE",
"173 198 CURVE SMOOTH",
"173 243 OFFCURVE",
"209 283 OFFCURVE",
"261 283 CURVE SMOOTH",
"313 283 OFFCURVE",
"350 239 OFFCURVE",
"350 198 CURVE SMOOTH",
"350 165 OFFCURVE",
"335 137 OFFCURVE",
"309 121 CURVE"
);
}
);
};
layerId = "D0D54F7F-3A77-4A21-8C35-5C89C778C4BE";
name = "Bold Sep 1 15, 16:49";
paths = (
{
closed = 1;
nodes = (
"193 603 LINE",
"193 359 LINE",
"330 359 LINE",
"330 603 LINE"
);
},
{
closed = 1;
nodes = (
"-20 603 LINE",
"-20 486 LINE",
"543 486 LINE",
"543 603 LINE"
);
},
{
closed = 1;
nodes = (
"387 10 LINE",
"450 46 OFFCURVE",
"491 111 OFFCURVE",
"491 198 CURVE SMOOTH",
"491 325 OFFCURVE",
"387 413 OFFCURVE",
"261 413 CURVE SMOOTH",
"136 413 OFFCURVE",
"32 325 OFFCURVE",
"32 198 CURVE SMOOTH",
"32 111 OFFCURVE",
"74 46 OFFCURVE",
"137 10 CURVE",
"215 121 LINE",
"189 137 OFFCURVE",
"173 165 OFFCURVE",
"173 198 CURVE SMOOTH",
"173 243 OFFCURVE",
"209 283 OFFCURVE",
"261 283 CURVE SMOOTH",
"313 283 OFFCURVE",
"350 239 OFFCURVE",
"350 198 CURVE SMOOTH",
"350 165 OFFCURVE",
"335 137 OFFCURVE",
"309 121 CURVE"
);
}
);
width = 600;
},
{
associatedMasterId = "6FDD6D71-1703-4D62-BB36-645A25EBC0A3";
background = {
paths = (
{
closed = 1;
nodes = (
"254 608 LINE",
"254 417 LINE",
"286 417 LINE",
"286 608 LINE"
);
},
{
closed = 1;
nodes = (
"-20 608 LINE",
"-20 579 LINE",
"559 579 LINE SMOOTH",
"559 608 LINE SMOOTH"
);
},
{
closed = 1;
nodes = (
"396 22 LINE",
"454 61 OFFCURVE",
"496 126 OFFCURVE",
"496 210 CURVE SMOOTH",
"496 329 OFFCURVE",
"395 426 OFFCURVE",
"270 426 CURVE SMOOTH",
"146 426 OFFCURVE",
"43 329 OFFCURVE",
"43 210 CURVE SMOOTH",
"43 127 OFFCURVE",
"85 61 OFFCURVE",
"143 22 CURVE",
"161 47 LINE",
"112 81 OFFCURVE",
"74 137 OFFCURVE",
"74 210 CURVE SMOOTH",
"74 313 OFFCURVE",
"166 396 OFFCURVE",
"270 396 CURVE SMOOTH",
"374 396 OFFCURVE",
"465 313 OFFCURVE",
"465 210 CURVE SMOOTH",
"465 138 OFFCURVE",
"428 81 OFFCURVE",
"378 47 CURVE"
);
}
);
};
guideLines = (
{
position = "{188, 22}";
}
);
layerId = "00B9B7C1-3CF2-487B-B5A4-CB30344DA151";
name = "Light Sep 1 15, 16:50";
paths = (
{
closed = 1;
nodes = (
"254 608 LINE",
"254 417 LINE",
"286 417 LINE",
"286 608 LINE"
);
},
{
closed = 1;
nodes = (
"-20 608 LINE",
"-20 579 LINE",
"559 579 LINE SMOOTH",
"559 608 LINE SMOOTH"
);
},
{
closed = 1;
nodes = (
"396 22 LINE",
"454 61 OFFCURVE",
"496 126 OFFCURVE",
"496 210 CURVE SMOOTH",
"496 329 OFFCURVE",
"395 426 OFFCURVE",
"270 426 CURVE SMOOTH",
"146 426 OFFCURVE",
"43 329 OFFCURVE",
"43 210 CURVE SMOOTH",
"43 127 OFFCURVE",
"85 61 OFFCURVE",
"143 22 CURVE",
"161 47 LINE",
"112 81 OFFCURVE",
"74 137 OFFCURVE",
"74 210 CURVE SMOOTH",
"74 313 OFFCURVE",
"166 396 OFFCURVE",
"270 396 CURVE SMOOTH",
"374 396 OFFCURVE",
"465 313 OFFCURVE",
"465 210 CURVE SMOOTH",
"465 138 OFFCURVE",
"428 81 OFFCURVE",
"378 47 CURVE"
);
}
);
width = 600;
}
);
unicode = 0A28;
},
{
glyphname = grPA;
lastChange = "2015-09-07 05:40:39 +0000";
layers = (
{
background = {
paths = (
{
closed = 1;
nodes = (
"56 579 LINE",
"97 569 OFFCURVE",
"124 523 OFFCURVE",
"124 473 CURVE SMOOTH",
"124 428 OFFCURVE",
"105 386 OFFCURVE",
"56 367 CURVE",
"87 349 LINE",
"124 370 OFFCURVE",
"155 415 OFFCURVE",
"155 473 CURVE SMOOTH",
"155 536 OFFCURVE",
"120 594 OFFCURVE",
"58 604 CURVE"
);
},
{
closed = 1;
nodes = (
"403 309 LINE",
"403 221 OFFCURVE",
"341 159 OFFCURVE",
"251 159 CURVE SMOOTH",
"156 159 OFFCURVE",
"87 219 OFFCURVE",
"87 314 CURVE",
"87 367 LINE",
"56 367 LINE",
"56 314 LINE",
"56 200 OFFCURVE",
"139 129 OFFCURVE",
"251 129 CURVE SMOOTH",
"355 129 OFFCURVE",
"418 197 OFFCURVE",
"418 264 CURVE"
);
},
{
closed = 1;
nodes = (
"403 0 LINE",
"434 0 LINE",
"434 608 LINE",
"403 608 LINE"
);
},
{
closed = 1;
nodes = (
"104 398 LINE",
"104 369 LINE",
"408 369 LINE SMOOTH",
"408 398 LINE SMOOTH"
);
},
{
closed = 1;
nodes = (
"-20 608 LINE",
"-20 579 LINE",
"559 579 LINE SMOOTH",
"559 608 LINE SMOOTH"
);
}
);
};
layerId = "6FDD6D71-1703-4D62-BB36-645A25EBC0A3";
paths = (
{
closed = 1;
nodes = (
"-20 608 LINE",
"-20 579 LINE",
"28 579 LINE SMOOTH",
"92 579 OFFCURVE",
"124 529 OFFCURVE",
"124 473 CURVE SMOOTH",
"124 428 OFFCURVE",
"105 386 OFFCURVE",
"56 367 CURVE",
"87 349 LINE",
"124 370 OFFCURVE",
"155 415 OFFCURVE",
"155 473 CURVE SMOOTH",
"155 550 OFFCURVE",
"108 608 OFFCURVE",
"28 608 CURVE SMOOTH"
);
},
{
closed = 1;
nodes = (
"403 309 LINE",
"403 221 OFFCURVE",
"341 159 OFFCURVE",
"251 159 CURVE SMOOTH",
"156 159 OFFCURVE",
"87 219 OFFCURVE",
"87 314 CURVE",
"87 367 LINE",
"56 367 LINE",
"56 314 LINE",
"56 200 OFFCURVE",
"139 129 OFFCURVE",
"251 129 CURVE SMOOTH",
"355 129 OFFCURVE",
"418 197 OFFCURVE",
"418 264 CURVE"
);
},
{
closed = 1;
nodes = (
"403 0 LINE",
"434 0 LINE",
"434 608 LINE",
"403 608 LINE"
);
},
{
closed = 1;
nodes = (
"403 608 LINE",
"403 579 LINE",
"559 579 LINE SMOOTH",
"559 608 LINE SMOOTH"
);
}
);
width = 539;
},
{
background = {
paths = (
{
closed = 1;
nodes = (
"56 486 LINE",
"98 486 OFFCURVE",
"118 447 OFFCURVE",
"118 412 CURVE SMOOTH",
"118 377 OFFCURVE",
"100 345 OFFCURVE",
"56 338 CURVE",
"158 274 LINE",
"219 298 OFFCURVE",
"256 348 OFFCURVE",
"256 415 CURVE SMOOTH",
"256 512 OFFCURVE",
"183 590 OFFCURVE",
"88 590 CURVE"
);
},
{
closed = 1;
nodes = (
"423 287 LINE",
"423 213 OFFCURVE",
"368 175 OFFCURVE",
"299 175 CURVE SMOOTH",
"228 175 OFFCURVE",
"191 216 OFFCURVE",
"191 271 CURVE SMOOTH",
"191 338 LINE",
"56 338 LINE",
"56 256 LINE",
"56 137 OFFCURVE",
"162 48 OFFCURVE",
"303 48 CURVE SMOOTH",
"401 48 OFFCURVE",
"479 111 OFFCURVE",
"479 173 CURVE"
);
},
{
closed = 1;
nodes = (
"423 0 LINE",
"560 0 LINE",
"560 574 LINE SMOOTH",
"423 574 LINE"
);
},
{
closed = 1;
nodes = (
"186 399 LINE",
"186 302 LINE",
"508 302 LINE",
"508 399 LINE"
);
},
{
closed = 1;
nodes = (
"-20 603 LINE",
"-20 486 LINE",
"635 486 LINE",
"635 603 LINE"
);
}
);
};
layerId = "DC46B086-4DC3-4260-9EBF-C204FB70037C";
paths = (
{
closed = 1;
nodes = (
"-20 603 LINE",
"-20 486 LINE",
"56 486 LINE SMOOTH",
"98 486 OFFCURVE",
"118 447 OFFCURVE",
"118 412 CURVE SMOOTH",
"118 377 OFFCURVE",
"100 345 OFFCURVE",
"56 338 CURVE",
"158 274 LINE",
"219 298 OFFCURVE",
"256 360 OFFCURVE",
"256 427 CURVE SMOOTH",
"256 524 OFFCURVE",
"183 603 OFFCURVE",
"56 603 CURVE SMOOTH"
);
},
{
closed = 1;
nodes = (
"416 297 LINE",
"416 223 OFFCURVE",
"366 185 OFFCURVE",
"299 185 CURVE SMOOTH",
"228 185 OFFCURVE",
"191 226 OFFCURVE",
"191 281 CURVE SMOOTH",
"191 338 LINE",
"56 338 LINE",
"56 266 LINE SMOOTH",
"56 147 OFFCURVE",
"162 58 OFFCURVE",
"303 58 CURVE SMOOTH",
"399 58 OFFCURVE",
"472 121 OFFCURVE",
"472 183 CURVE"
);
},
{
closed = 1;
nodes = (
"416 0 LINE",
"553 0 LINE",
"553 603 LINE SMOOTH",
"416 603 LINE"
);
},
{
closed = 1;
nodes = (
"416 603 LINE",
"416 486 LINE",
"628 486 LINE",
"628 603 LINE"
);
}
);
width = 608;
},
{
associatedMasterId = "6FDD6D71-1703-4D62-BB36-645A25EBC0A3";
background = {
paths = (
{
closed = 1;
nodes = (
"56 579 LINE",
"97 569 OFFCURVE",
"124 523 OFFCURVE",
"124 473 CURVE SMOOTH",
"124 428 OFFCURVE",
"105 386 OFFCURVE",
"56 367 CURVE",
"87 349 LINE",
"124 370 OFFCURVE",
"155 415 OFFCURVE",
"155 473 CURVE SMOOTH",
"155 536 OFFCURVE",
"120 594 OFFCURVE",
"58 604 CURVE"
);
},
{
closed = 1;
nodes = (
"403 304 LINE",
"403 216 OFFCURVE",
"341 159 OFFCURVE",
"251 159 CURVE SMOOTH",
"156 159 OFFCURVE",
"87 219 OFFCURVE",
"87 314 CURVE",
"87 367 LINE",
"56 367 LINE",
"56 314 LINE",
"56 200 OFFCURVE",
"139 129 OFFCURVE",
"251 129 CURVE SMOOTH",
"355 129 OFFCURVE",
"418 192 OFFCURVE",
"418 259 CURVE"
);
},
{
closed = 1;
nodes = (
"403 0 LINE",
"434 0 LINE",
"434 608 LINE",
"403 608 LINE"
);
},
{
closed = 1;
nodes = (
"107 398 LINE",
"107 369 LINE",
"408 369 LINE SMOOTH",
"408 398 LINE SMOOTH"
);
},
{
closed = 1;
nodes = (
"-20 608 LINE",
"-20 579 LINE",
"559 579 LINE SMOOTH",
"559 608 LINE SMOOTH"
);
}
);
};
layerId = "E2C4DEC5-8CAE-4FD8-B350-B0AD1D4CBD78";
name = "Light Sep 1 15, 15:31";
paths = (
{
closed = 1;
nodes = (
"403 309 LINE",
"403 218 OFFCURVE",
"346 159 OFFCURVE",
"251 159 CURVE SMOOTH",
"156 159 OFFCURVE",
"87 219 OFFCURVE",
"87 314 CURVE",
"87 367 LINE",
"56 367 LINE",
"56 314 LINE",
"56 200 OFFCURVE",
"139 129 OFFCURVE",
"251 129 CURVE SMOOTH",
"360 129 OFFCURVE",
"418 192 OFFCURVE",
"418 264 CURVE"
);
},
{
closed = 1;
nodes = (
"403 0 LINE",
"434 0 LINE",
"434 608 LINE",
"403 608 LINE"
);
},
{
closed = 1;
nodes = (
"403 608 LINE",
"403 579 LINE",
"559 579 LINE SMOOTH",
"559 608 LINE SMOOTH"
);
},
{
closed = 1;
nodes = (
"-20 608 LINE",
"-20 579 LINE",
"28 579 LINE SMOOTH",
"92 579 OFFCURVE",
"124 529 OFFCURVE",
"124 473 CURVE SMOOTH",
"124 428 OFFCURVE",
"105 386 OFFCURVE",
"56 367 CURVE",
"87 349 LINE",
"124 370 OFFCURVE",
"155 415 OFFCURVE",
"155 473 CURVE SMOOTH",
"155 550 OFFCURVE",
"108 608 OFFCURVE",
"28 608 CURVE SMOOTH"
);
}
);
width = 539;
}
);
unicode = 0A2A;
},
{
glyphname = grPHA;
lastChange = "2015-09-07 05:40:39 +0000";
layers = (
{
background = {
paths = (
{
closed = 1;
nodes = (
"364 608 LINE",
"364 400 LINE",
"395 400 LINE",
"395 608 LINE"
);
},
{
closed = 1;
nodes = (
"449 218 OFFCURVE",
"393 263 OFFCURVE",
"325 263 CURVE SMOOTH",
"255 263 OFFCURVE",
"206 210 OFFCURVE",
"200 143 CURVE",
"231 135 LINE",
"233 193 OFFCURVE",
"275 233 OFFCURVE",
"325 233 CURVE SMOOTH",
"374 233 OFFCURVE",
"418 202 OFFCURVE",
"418 140 CURVE SMOOTH",
"418 77 OFFCURVE",
"366 25 OFFCURVE",
"267 25 CURVE SMOOTH",
"154 25 OFFCURVE",
"69 107 OFFCURVE",
"69 221 CURVE SMOOTH",
"69 329 OFFCURVE",
"155 400 OFFCURVE",
"250 400 CURVE SMOOTH",
"395 400 LINE",
"395 429 LINE",
"250 429 LINE SMOOTH",
"134 429 OFFCURVE",
"38 344 OFFCURVE",
"38 221 CURVE SMOOTH",
"38 96 OFFCURVE",
"131 -4 OFFCURVE",
"267 -4 CURVE SMOOTH",
"391 -4 OFFCURVE",
"449 65 OFFCURVE",
"449 140 CURVE SMOOTH"
);
},
{
closed = 1;
nodes = (
"-20 608 LINE",
"-20 579 LINE",
"517 579 LINE SMOOTH",
"517 608 LINE SMOOTH"
);
}
);
};
guideLines = (
{
position = "{236, 409}";
},
{
position = "{46, 429}";
},
{
angle = 90;
position = "{315, 129}";
}
);
layerId = "6FDD6D71-1703-4D62-BB36-645A25EBC0A3";
paths = (
{
closed = 1;
nodes = (
"354 608 LINE",
"354 410 LINE",
"385 410 LINE",
"385 608 LINE"
);
},
{
closed = 1;
nodes = (
"439 218 OFFCURVE",
"383 263 OFFCURVE",
"315 263 CURVE SMOOTH",
"215 263 OFFCURVE",
"155 185 OFFCURVE",
"142 58 CURVE",
"170 44 LINE",
"186 174 OFFCURVE",
"230 233 OFFCURVE",
"315 233 CURVE SMOOTH",
"364 233 OFFCURVE",
"408 202 OFFCURVE",
"408 140 CURVE SMOOTH",
"408 77 OFFCURVE",
"356 25 OFFCURVE",
"267 25 CURVE SMOOTH",
"154 25 OFFCURVE",
"69 107 OFFCURVE",
"69 226 CURVE SMOOTH",
"69 339 OFFCURVE",
"155 410 OFFCURVE",
"250 410 CURVE SMOOTH",
"385 410 LINE",
"385 439 LINE",
"250 439 LINE SMOOTH",
"134 439 OFFCURVE",
"38 354 OFFCURVE",
"38 226 CURVE SMOOTH",
"38 96 OFFCURVE",
"131 -4 OFFCURVE",
"267 -4 CURVE SMOOTH",
"381 -4 OFFCURVE",
"439 65 OFFCURVE",
"439 140 CURVE SMOOTH"
);
},
{
closed = 1;
nodes = (
"-20 608 LINE",
"-20 579 LINE",
"507 579 LINE SMOOTH",
"507 608 LINE SMOOTH"
);
}
);
width = 487;
},
{
background = {
paths = (
{
closed = 1;
nodes = (
"303 603 LINE",
"303 336 LINE",
"439 336 LINE",
"439 603 LINE"
);
},
{
closed = 1;
nodes = (
"499 243 OFFCURVE",
"430 295 OFFCURVE",
"344 295 CURVE SMOOTH",
"247 295 OFFCURVE",
"175 229 OFFCURVE",
"175 123 CURVE",
"282 97 LINE",
"285 164 OFFCURVE",
"306 187 OFFCURVE",
"339 187 CURVE SMOOTH",
"363 187 OFFCURVE",
"377 172 OFFCURVE",
"377 153 CURVE SMOOTH",
"377 128 OFFCURVE",
"349 107 OFFCURVE",
"295 107 CURVE SMOOTH",
"225 107 OFFCURVE",
"169 144 OFFCURVE",
"169 221 CURVE SMOOTH",
"169 293 OFFCURVE",
"212 336 OFFCURVE",
"273 336 CURVE SMOOTH",
"439 336 LINE",
"439 444 LINE",
"263 444 LINE SMOOTH",
"151 444 OFFCURVE",
"32 372 OFFCURVE",
"32 218 CURVE SMOOTH",
"32 83 OFFCURVE",
"150 -11 OFFCURVE",
"288 -11 CURVE SMOOTH",
"407 -11 OFFCURVE",
"500 57 OFFCURVE",
"500 151 CURVE SMOOTH"
);
},
{
closed = 1;
nodes = (
"-20 603 LINE",
"-20 486 LINE",
"552 486 LINE",
"552 603 LINE"
);
}
);
};
layerId = "DC46B086-4DC3-4260-9EBF-C204FB70037C";
paths = (
{
closed = 1;
nodes = (
"303 603 LINE",
"303 336 LINE",
"439 336 LINE",
"439 603 LINE"
);
},
{
closed = 1;
nodes = (
"499 243 OFFCURVE",
"430 295 OFFCURVE",
"344 295 CURVE SMOOTH",
"247 295 OFFCURVE",
"175 229 OFFCURVE",
"175 123 CURVE",
"282 92 LINE",
"285 159 OFFCURVE",
"306 183 OFFCURVE",
"339 183 CURVE SMOOTH",
"363 183 OFFCURVE",
"377 167 OFFCURVE",
"377 148 CURVE SMOOTH",
"377 123 OFFCURVE",
"349 101 OFFCURVE",
"295 101 CURVE SMOOTH",
"225 101 OFFCURVE",
"169 144 OFFCURVE",
"169 221 CURVE SMOOTH",
"169 293 OFFCURVE",
"212 336 OFFCURVE",
"273 336 CURVE SMOOTH",
"439 336 LINE",
"439 444 LINE",
"263 444 LINE SMOOTH",
"151 444 OFFCURVE",
"32 372 OFFCURVE",
"32 218 CURVE SMOOTH",
"32 83 OFFCURVE",
"150 -11 OFFCURVE",
"288 -11 CURVE SMOOTH",
"407 -11 OFFCURVE",
"500 57 OFFCURVE",
"500 151 CURVE SMOOTH"
);
},
{
closed = 1;
nodes = (
"-20 603 LINE",
"-20 486 LINE",
"552 486 LINE",
"552 603 LINE"
);
}
);
width = 532;
},
{
associatedMasterId = "6FDD6D71-1703-4D62-BB36-645A25EBC0A3";
background = {
paths = (
{
closed = 1;
nodes = (
"364 608 LINE",
"364 400 LINE",
"395 400 LINE",
"395 608 LINE"
);
},
{
closed = 1;
nodes = (
"449 218 OFFCURVE",
"393 263 OFFCURVE",
"325 263 CURVE SMOOTH",
"255 263 OFFCURVE",
"206 210 OFFCURVE",
"200 143 CURVE",
"231 135 LINE",
"233 193 OFFCURVE",
"275 233 OFFCURVE",
"325 233 CURVE SMOOTH",
"374 233 OFFCURVE",
"418 202 OFFCURVE",
"418 140 CURVE SMOOTH",
"418 77 OFFCURVE",
"366 25 OFFCURVE",
"267 25 CURVE SMOOTH",
"154 25 OFFCURVE",
"69 107 OFFCURVE",
"69 221 CURVE SMOOTH",
"69 329 OFFCURVE",
"155 400 OFFCURVE",
"250 400 CURVE SMOOTH",
"395 400 LINE",
"395 429 LINE",
"250 429 LINE SMOOTH",
"134 429 OFFCURVE",
"38 344 OFFCURVE",
"38 221 CURVE SMOOTH",
"38 96 OFFCURVE",
"131 -4 OFFCURVE",
"267 -4 CURVE SMOOTH",
"391 -4 OFFCURVE",
"449 65 OFFCURVE",
"449 140 CURVE SMOOTH"
);
},
{
closed = 1;
nodes = (
"-20 608 LINE",
"-20 579 LINE",
"517 579 LINE SMOOTH",
"517 608 LINE SMOOTH"
);
}
);
};
guideLines = (
{
position = "{236, 409}";
},
{
position = "{46, 429}";
},
{
angle = 90;
position = "{315, 129}";
}
);
layerId = "95CC3328-FD33-4E47-BCA4-E20FC11239AA";
name = "Light Sep 1 15, 18:37";
paths = (
{
closed = 1;
nodes = (
"364 608 LINE",
"364 400 LINE",
"395 400 LINE",
"395 608 LINE"
);
},
{
closed = 1;
nodes = (
"439 218 OFFCURVE",
"383 263 OFFCURVE",
"315 263 CURVE SMOOTH",
"245 263 OFFCURVE",
"190 216 OFFCURVE",
"190 140 CURVE SMOOTH",
"190 65 OFFCURVE",
"258 3 OFFCURVE",
"323 3 CURVE",
"331 29 LINE",
"283 29 OFFCURVE",
"221 77 OFFCURVE",
"221 140 CURVE SMOOTH",
"221 202 OFFCURVE",
"265 233 OFFCURVE",
"315 233 CURVE SMOOTH",
"364 233 OFFCURVE",
"408 202 OFFCURVE",
"408 140 CURVE SMOOTH",
"408 77 OFFCURVE",
"356 25 OFFCURVE",
"267 25 CURVE SMOOTH",
"154 25 OFFCURVE",
"69 107 OFFCURVE",
"69 221 CURVE SMOOTH",
"69 329 OFFCURVE",
"155 400 OFFCURVE",
"250 400 CURVE SMOOTH",
"395 400 LINE",
"395 429 LINE",
"250 429 LINE SMOOTH",
"134 429 OFFCURVE",
"38 344 OFFCURVE",
"38 221 CURVE SMOOTH",
"38 96 OFFCURVE",
"131 -4 OFFCURVE",
"267 -4 CURVE SMOOTH",
"381 -4 OFFCURVE",
"439 65 OFFCURVE",
"439 140 CURVE SMOOTH"
);
},
{
closed = 1;
nodes = (
"-20 608 LINE",
"-20 579 LINE",
"517 579 LINE SMOOTH",
"517 608 LINE SMOOTH"
);
}
);
width = 600;
},
{
associatedMasterId = "6FDD6D71-1703-4D62-BB36-645A25EBC0A3";
background = {
paths = (
{
closed = 1;
nodes = (
"364 608 LINE",
"364 400 LINE",
"395 400 LINE",
"395 608 LINE"
);
},
{
closed = 1;
nodes = (
"449 218 OFFCURVE",
"393 263 OFFCURVE",
"325 263 CURVE SMOOTH",
"255 263 OFFCURVE",
"206 210 OFFCURVE",
"200 143 CURVE",
"231 135 LINE",
"233 193 OFFCURVE",
"275 233 OFFCURVE",
"325 233 CURVE SMOOTH",
"374 233 OFFCURVE",
"418 202 OFFCURVE",
"418 140 CURVE SMOOTH",
"418 77 OFFCURVE",
"366 25 OFFCURVE",
"267 25 CURVE SMOOTH",
"154 25 OFFCURVE",
"69 107 OFFCURVE",
"69 221 CURVE SMOOTH",
"69 329 OFFCURVE",
"155 400 OFFCURVE",
"250 400 CURVE SMOOTH",
"395 400 LINE",
"395 429 LINE",
"250 429 LINE SMOOTH",
"134 429 OFFCURVE",
"38 344 OFFCURVE",
"38 221 CURVE SMOOTH",
"38 96 OFFCURVE",
"131 -4 OFFCURVE",
"267 -4 CURVE SMOOTH",
"391 -4 OFFCURVE",
"449 65 OFFCURVE",
"449 140 CURVE SMOOTH"
);
},
{
closed = 1;
nodes = (
"-20 608 LINE",
"-20 579 LINE",
"517 579 LINE SMOOTH",
"517 608 LINE SMOOTH"
);
}
);
};
guideLines = (
{
position = "{236, 409}";
},
{
position = "{46, 429}";
},
{
angle = 90;
position = "{315, 129}";
}
);
layerId = "8CF9C6CD-A168-4D63-95B7-3958005CA1B8";
name = "Light Sep 1 15, 18:39";
paths = (
{
closed = 1;
nodes = (
"364 608 LINE",
"364 400 LINE",
"395 400 LINE",
"395 608 LINE"
);
},
{
closed = 1;
nodes = (
"439 218 OFFCURVE",
"383 263 OFFCURVE",
"315 263 CURVE SMOOTH",
"245 263 OFFCURVE",
"190 216 OFFCURVE",
"190 140 CURVE SMOOTH",
"190 67 OFFCURVE",
"235 18 OFFCURVE",
"255 -2 CURVE",
"267 25 LINE",
"250 45 OFFCURVE",
"221 87 OFFCURVE",
"221 140 CURVE SMOOTH",
"221 202 OFFCURVE",
"265 233 OFFCURVE",
"315 233 CURVE SMOOTH",
"364 233 OFFCURVE",
"408 202 OFFCURVE",
"408 140 CURVE SMOOTH",
"408 77 OFFCURVE",
"356 25 OFFCURVE",
"267 25 CURVE SMOOTH",
"154 25 OFFCURVE",
"69 107 OFFCURVE",
"69 221 CURVE SMOOTH",
"69 329 OFFCURVE",
"155 400 OFFCURVE",
"250 400 CURVE SMOOTH",
"395 400 LINE",
"395 429 LINE",
"250 429 LINE SMOOTH",
"134 429 OFFCURVE",
"38 344 OFFCURVE",
"38 221 CURVE SMOOTH",
"38 96 OFFCURVE",
"131 -4 OFFCURVE",
"267 -4 CURVE SMOOTH",
"381 -4 OFFCURVE",
"439 65 OFFCURVE",
"439 140 CURVE SMOOTH"
);
},
{
closed = 1;
nodes = (
"-20 608 LINE",
"-20 579 LINE",
"517 579 LINE SMOOTH",
"517 608 LINE SMOOTH"
);
}
);
width = 600;
},
{
associatedMasterId = "DC46B086-4DC3-4260-9EBF-C204FB70037C";
layerId = "402FDD6D-1A19-4A74-BEDA-71737E8E4F1E";
name = "Bold Sep 1 15, 19:01";
paths = (
{
closed = 1;
nodes = (
"308 603 LINE",
"308 326 LINE",
"444 326 LINE",
"444 603 LINE"
);
},
{
closed = 1;
nodes = (
"504 243 OFFCURVE",
"437 295 OFFCURVE",
"365 295 CURVE SMOOTH",
"289 295 OFFCURVE",
"235 249 OFFCURVE",
"219 186 CURVE",
"325 143 LINE",
"329 165 OFFCURVE",
"341 177 OFFCURVE",
"357 177 CURVE SMOOTH",
"371 177 OFFCURVE",
"382 168 OFFCURVE",
"382 149 CURVE SMOOTH",
"382 124 OFFCURVE",
"344 108 OFFCURVE",
"300 108 CURVE SMOOTH",
"225 108 OFFCURVE",
"169 144 OFFCURVE",
"169 221 CURVE SMOOTH",
"169 293 OFFCURVE",
"222 326 OFFCURVE",
"278 326 CURVE SMOOTH",
"444 326 LINE",
"444 444 LINE",
"268 444 LINE SMOOTH",
"151 444 OFFCURVE",
"32 372 OFFCURVE",
"32 218 CURVE SMOOTH",
"32 83 OFFCURVE",
"150 -11 OFFCURVE",
"293 -11 CURVE SMOOTH",
"412 -11 OFFCURVE",
"505 57 OFFCURVE",
"505 151 CURVE SMOOTH"
);
},
{
closed = 1;
nodes = (
"-20 603 LINE",
"-20 486 LINE",
"557 486 LINE",
"557 603 LINE"
);
}
);
width = 537;
}
);
unicode = 0A2B;
},
{
glyphname = grBA;
lastChange = "2015-09-07 05:40:39 +0000";
layers = (
{
layerId = "6FDD6D71-1703-4D62-BB36-645A25EBC0A3";
paths = (
{
closed = 1;
nodes = (
"426 0 LINE",
"457 0 LINE",
"457 608 LINE",
"426 608 LINE"
);
},
{
closed = 1;
nodes = (
"426 266 LINE",
"426 173 OFFCURVE",
"350 106 OFFCURVE",
"249 106 CURVE SMOOTH",
"155 106 OFFCURVE",
"90 149 OFFCURVE",
"90 219 CURVE SMOOTH",
"90 283 OFFCURVE",
"134 335 OFFCURVE",
"244 335 CURVE",
"437 335 LINE",
"437 365 LINE",
"244 365 LINE",
"120 365 OFFCURVE",
"59 303 OFFCURVE",
"59 219 CURVE SMOOTH",
"59 141 OFFCURVE",
"128 76 OFFCURVE",
"248 76 CURVE SMOOTH",
"359 76 OFFCURVE",
"438 144 OFFCURVE",
"439 219 CURVE"
);
},
{
closed = 1;
nodes = (
"212 608 LINE",
"205 608 LINE",
"114 608 OFFCURVE",
"57 546 OFFCURVE",
"57 474 CURVE SMOOTH",
"57 390 OFFCURVE",
"125 335 OFFCURVE",
"220 335 CURVE",
"241 335 LINE",
"241 365 LINE",
"212 365 LINE",
"143 365 OFFCURVE",
"88 411 OFFCURVE",
"88 475 CURVE SMOOTH",
"88 536 OFFCURVE",
"137 579 OFFCURVE",
"205 579 CURVE",
"212 579 LINE"
);
},
{
closed = 1;
nodes = (
"-20 608 LINE",
"-20 579 LINE",
"582 579 LINE SMOOTH",
"582 608 LINE SMOOTH"
);
}
);
width = 562;
},
{
layerId = "DC46B086-4DC3-4260-9EBF-C204FB70037C";
paths = (
{
closed = 1;
nodes = (
"404 0 LINE",
"541 0 LINE",
"541 603 LINE",
"404 603 LINE"
);
},
{
closed = 1;
nodes = (
"404 289 LINE",
"404 214 OFFCURVE",
"359 168 OFFCURVE",
"279 168 CURVE SMOOTH",
"215 168 OFFCURVE",
"183 191 OFFCURVE",
"183 224 CURVE SMOOTH",
"183 257 OFFCURVE",
"211 280 OFFCURVE",
"252 280 CURVE",
"409 280 LINE",
"409 393 LINE",
"251 393 LINE",
"144 393 OFFCURVE",
"46 332 OFFCURVE",
"46 224 CURVE SMOOTH",
"46 109 OFFCURVE",
"147 40 OFFCURVE",
"269 40 CURVE SMOOTH",
"359 40 OFFCURVE",
"422 82 OFFCURVE",
"462 151 CURVE"
);
},
{
closed = 1;
nodes = (
"248 598 LINE",
"231 598 LINE",
"121 598 OFFCURVE",
"46 529 OFFCURVE",
"46 442 CURVE SMOOTH",
"46 343 OFFCURVE",
"130 280 OFFCURVE",
"241 280 CURVE",
"290 280 LINE",
"290 393 LINE",
"237 393 LINE",
"202 393 OFFCURVE",
"183 415 OFFCURVE",
"183 440 CURVE SMOOTH",
"183 464 OFFCURVE",
"206 486 OFFCURVE",
"236 486 CURVE",
"248 486 LINE"
);
},
{
closed = 1;
nodes = (
"-20 603 LINE",
"-20 486 LINE",
"616 486 LINE",
"616 603 LINE"
);
}
);
width = 596;
}
);
unicode = 0A2C;
},
{
glyphname = grBHA;
lastChange = "2015-09-07 05:40:39 +0000";
layers = (
{
background = {
paths = (
{
closed = 1;
nodes = (
"209 251 OFFCURVE",
"164 282 OFFCURVE",
"164 329 CURVE SMOOTH",
"164 376 OFFCURVE",
"209 407 OFFCURVE",
"258 407 CURVE SMOOTH",
"360 407 OFFCURVE",
"437 308 OFFCURVE",
"437 207 CURVE SMOOTH",
"437 106 OFFCURVE",
"359 23 OFFCURVE",
"252 23 CURVE SMOOTH",
"145 23 OFFCURVE",
"81 100 OFFCURVE",
"63 130 CURVE",
"38 111 LINE",
"59 78 OFFCURVE",
"126 -7 OFFCURVE",
"252 -7 CURVE SMOOTH",
"380 -7 OFFCURVE",
"468 89 OFFCURVE",
"468 207 CURVE SMOOTH",
"468 325 OFFCURVE",
"381 437 OFFCURVE",
"260 437 CURVE SMOOTH",
"188 437 OFFCURVE",
"133 393 OFFCURVE",
"133 329 CURVE SMOOTH",
"133 265 OFFCURVE",
"188 221 OFFCURVE",
"260 221 CURVE SMOOTH",
"351 221 OFFCURVE",
"433 287 OFFCURVE",
"433 395 CURVE SMOOTH",
"433 600 LINE",
"402 600 LINE",
"402 391 LINE SMOOTH",
"402 299 OFFCURVE",
"330 251 OFFCURVE",
"258 251 CURVE SMOOTH"
);
},
{
closed = 1;
nodes = (
"-20 608 LINE",
"-20 579 LINE",
"528 579 LINE SMOOTH",
"528 608 LINE SMOOTH"
);
}
);
};
guideLines = (
{
angle = 90;
position = "{349, 168}";
},
{
position = "{283, 336}";
}
);
layerId = "6FDD6D71-1703-4D62-BB36-645A25EBC0A3";
paths = (
{
closed = 1;
nodes = (
"-20 608 LINE",
"-20 579 LINE",
"528 579 LINE SMOOTH",
"528 608 LINE SMOOTH"
);
},
{
closed = 1;
nodes = (
"430 350 OFFCURVE",
"433 367 OFFCURVE",
"433 390 CURVE SMOOTH",
"433 600 LINE",
"402 600 LINE",
"402 375 LINE",
"366 413 OFFCURVE",
"316 437 OFFCURVE",
"260 437 CURVE SMOOTH",
"188 437 OFFCURVE",
"133 393 OFFCURVE",
"133 329 CURVE SMOOTH",
"133 265 OFFCURVE",
"188 221 OFFCURVE",
"260 221 CURVE SMOOTH",
"323 221 OFFCURVE",
"381 252 OFFCURVE",
"411 307 CURVE",
"428 277 OFFCURVE",
"437 242 OFFCURVE",
"437 207 CURVE SMOOTH",
"437 106 OFFCURVE",
"359 23 OFFCURVE",
"252 23 CURVE SMOOTH",
"145 23 OFFCURVE",
"81 100 OFFCURVE",
"63 130 CURVE",
"38 111 LINE",
"59 78 OFFCURVE",
"126 -7 OFFCURVE",
"252 -7 CURVE SMOOTH",
"380 -7 OFFCURVE",
"468 89 OFFCURVE",
"468 207 CURVE SMOOTH",
"468 259 OFFCURVE",
"451 311 OFFCURVE",
"421 352 CURVE",
"421 330 LINE"
);
},
{
closed = 1;
nodes = (
"209 251 OFFCURVE",
"164 282 OFFCURVE",
"164 329 CURVE SMOOTH",
"164 376 OFFCURVE",
"209 407 OFFCURVE",
"258 407 CURVE SMOOTH",
"313 407 OFFCURVE",
"360 379 OFFCURVE",
"392 337 CURVE",
"370 280 OFFCURVE",
"314 251 OFFCURVE",
"258 251 CURVE SMOOTH"
);
}
);
width = 508;
},
{
background = {
paths = (
{
closed = 1;
nodes = (
"-20 603 LINE",
"-20 486 LINE",
"577 486 LINE",
"577 603 LINE"
);
},
{
closed = 1;
nodes = (
"473 324 OFFCURVE",
"487 359 OFFCURVE",
"487 401 CURVE SMOOTH",
"487 603 LINE",
"351 603 LINE",
"351 421 LINE",
"325 437 OFFCURVE",
"293 447 OFFCURVE",
"256 447 CURVE SMOOTH",
"149 447 OFFCURVE",
"99 378 OFFCURVE",
"99 314 CURVE SMOOTH",
"99 250 OFFCURVE",
"149 181 OFFCURVE",
"256 181 CURVE SMOOTH",
"305 181 OFFCURVE",
"345 199 OFFCURVE",
"372 223 CURVE",
"372 220 OFFCURVE",
"372 217 OFFCURVE",
"372 214 CURVE SMOOTH",
"372 156 OFFCURVE",
"321 112 OFFCURVE",
"247 112 CURVE SMOOTH",
"175 112 OFFCURVE",
"138 150 OFFCURVE",
"122 178 CURVE",
"12 115 LINE",
"43 46 OFFCURVE",
"125 -17 OFFCURVE",
"247 -17 CURVE SMOOTH",
"390 -17 OFFCURVE",
"502 88 OFFCURVE",
"502 214 CURVE SMOOTH",
"502 264 OFFCURVE",
"481 318 OFFCURVE",
"445 343 CURVE",
"447 304 LINE"
);
},
{
closed = 1;
nodes = (
"237 280 OFFCURVE",
"213 292 OFFCURVE",
"213 314 CURVE SMOOTH",
"213 336 OFFCURVE",
"237 348 OFFCURVE",
"261 348 CURVE SMOOTH",
"290 348 OFFCURVE",
"313 336 OFFCURVE",
"331 318 CURVE",
"317 296 OFFCURVE",
"296 280 OFFCURVE",
"261 280 CURVE SMOOTH"
);
}
);
};
guideLines = (
{
angle = 90;
position = "{341, 303}";
},
{
position = "{210, 636}";
showMeasurement = 1;
}
);
layerId = "DC46B086-4DC3-4260-9EBF-C204FB70037C";
paths = (
{
closed = 1;
nodes = (
"-20 603 LINE",
"-20 486 LINE",
"567 486 LINE",
"567 603 LINE"
);
},
{
closed = 1;
nodes = (
"453 324 OFFCURVE",
"467 359 OFFCURVE",
"467 401 CURVE SMOOTH",
"467 603 LINE",
"331 603 LINE",
"331 421 LINE",
"305 437 OFFCURVE",
"281 447 OFFCURVE",
"246 447 CURVE SMOOTH",
"139 447 OFFCURVE",
"89 378 OFFCURVE",
"89 314 CURVE SMOOTH",
"89 250 OFFCURVE",
"139 181 OFFCURVE",
"246 181 CURVE SMOOTH",
"297 181 OFFCURVE",
"325 199 OFFCURVE",
"352 223 CURVE",
"352 220 OFFCURVE",
"352 217 OFFCURVE",
"352 214 CURVE SMOOTH",
"352 156 OFFCURVE",
"317 112 OFFCURVE",
"247 112 CURVE SMOOTH",
"177 112 OFFCURVE",
"138 150 OFFCURVE",
"122 178 CURVE",
"18 108 LINE",
"54 44 OFFCURVE",
"130 -17 OFFCURVE",
"252 -17 CURVE SMOOTH",
"389 -17 OFFCURVE",
"492 88 OFFCURVE",
"492 204 CURVE SMOOTH",
"492 274 OFFCURVE",
"453 334 OFFCURVE",
"426 348 CURVE",
"427 304 LINE"
);
},
{
closed = 1;
nodes = (
"227 280 OFFCURVE",
"203 292 OFFCURVE",
"203 314 CURVE SMOOTH",
"203 336 OFFCURVE",
"227 348 OFFCURVE",
"251 348 CURVE SMOOTH",
"277 348 OFFCURVE",
"297 334 OFFCURVE",
"311 314 CURVE",
"297 294 OFFCURVE",
"277 280 OFFCURVE",
"251 280 CURVE SMOOTH"
);
}
);
width = 547;
},
{
associatedMasterId = "6FDD6D71-1703-4D62-BB36-645A25EBC0A3";
background = {
paths = (
{
closed = 1;
nodes = (
"-20 608 LINE",
"-20 579 LINE",
"620 579 LINE SMOOTH",
"620 608 LINE SMOOTH"
);
},
{
closed = 0;
nodes = (
"350 375 LINE",
"451 375 OFFCURVE",
"529 300 OFFCURVE",
"529 199 CURVE SMOOTH",
"529 98 OFFCURVE",
"451 23 OFFCURVE",
"354 23 CURVE SMOOTH",
"260 23 OFFCURVE",
"203 90 OFFCURVE",
"185 120 CURVE",
"160 101 LINE",
"181 68 OFFCURVE",
"241 -7 OFFCURVE",
"354 -7 CURVE SMOOTH",
"472 -7 OFFCURVE",
"560 81 OFFCURVE",
"560 199 CURVE SMOOTH",
"560 317 OFFCURVE",
"472 405 OFFCURVE",
"352 405 CURVE"
);
},
{
closed = 0;
nodes = (
"410 265 LINE",
"480 265 OFFCURVE",
"515 317 OFFCURVE",
"515 385 CURVE SMOOTH",
"515 600 LINE",
"484 600 LINE",
"484 386 LINE SMOOTH",
"484 326 OFFCURVE",
"456 295 OFFCURVE",
"402 295 CURVE"
);
}
);
};
guideLines = (
{
angle = 90;
position = "{451, 168}";
}
);
layerId = "E61A4CB2-8FA8-40C3-851E-4A59D8FF2529";
name = "Light Aug 31 15, 17:36";
paths = (
{
closed = 1;
nodes = (
"-20 608 LINE",
"-20 579 LINE",
"620 579 LINE SMOOTH",
"620 608 LINE SMOOTH"
);
},
{
closed = 1;
nodes = (
"472 355 OFFCURVE",
"352 355 CURVE SMOOTH",
"308 355 LINE",
"308 325 LINE",
"350 325 LINE SMOOTH",
"451 325 OFFCURVE",
"529 263 OFFCURVE",
"529 172 CURVE SMOOTH",
"529 84 OFFCURVE",
"464 23 OFFCURVE",
"364 23 CURVE SMOOTH",
"270 23 OFFCURVE",
"203 90 OFFCURVE",
"185 120 CURVE",
"160 101 LINE",
"181 68 OFFCURVE",
"251 -7 OFFCURVE",
"364 -7 CURVE SMOOTH",
"485 -7 OFFCURVE",
"560 67 OFFCURVE",
"560 172 CURVE SMOOTH",
"560 280 OFFCURVE"
);
},
{
closed = 1;
nodes = (
"356 355 LINE",
"356 325 LINE",
"410 325 LINE SMOOTH",
"480 325 OFFCURVE",
"515 377 OFFCURVE",
"515 445 CURVE SMOOTH",
"515 608 LINE",
"484 608 LINE",
"484 446 LINE SMOOTH",
"484 386 OFFCURVE",
"456 355 OFFCURVE",
"402 355 CURVE SMOOTH"
);
}
);
width = 600;
},
{
associatedMasterId = "DC46B086-4DC3-4260-9EBF-C204FB70037C";
background = {
paths = (
{
closed = 1;
nodes = (
"129 47 OFFCURVE",
"214 -10 OFFCURVE",
"306 -10 CURVE SMOOTH",
"439 -10 OFFCURVE",
"531 75 OFFCURVE",
"531 201 CURVE SMOOTH",
"531 320 OFFCURVE",
"439 396 OFFCURVE",
"316 396 CURVE",
"254 396 LINE",
"254 268 LINE",
"304 268 LINE",
"355 268 OFFCURVE",
"381 241 OFFCURVE",
"381 196 CURVE SMOOTH",
"381 155 OFFCURVE",
"356 129 OFFCURVE",
"311 129 CURVE SMOOTH",
"271 129 OFFCURVE",
"241 157 OFFCURVE",
"231 185 CURVE",
"100 135 LINE"
);
},
{
closed = 1;
nodes = (
"254 396 LINE",
"254 297 LINE",
"335 297 LINE SMOOTH",
"467 297 OFFCURVE",
"535 335 OFFCURVE",
"535 445 CURVE SMOOTH",
"535 565 LINE SMOOTH",
"399 565 LINE",
"399 482 LINE SMOOTH",
"399 425 OFFCURVE",
"387 396 OFFCURVE",
"335 396 CURVE SMOOTH"
);
},
{
closed = 1;
nodes = (
"-20 603 LINE",
"-20 486 LINE",
"715 486 LINE",
"715 603 LINE"
);
}
);
};
layerId = "4BC7C901-1EBD-472C-84AC-2F9DC7FB178C";
name = "Bold Aug 31 15, 17:52";
paths = (
{
closed = 1;
nodes = (
"129 40 OFFCURVE",
"214 -17 OFFCURVE",
"306 -17 CURVE SMOOTH",
"439 -17 OFFCURVE",
"541 78 OFFCURVE",
"541 214 CURVE SMOOTH",
"541 353 OFFCURVE",
"439 429 OFFCURVE",
"316 429 CURVE",
"254 429 LINE",
"254 341 LINE",
"304 341 LINE",
"355 341 OFFCURVE",
"391 284 OFFCURVE",
"391 209 CURVE SMOOTH",
"391 158 OFFCURVE",
"356 122 OFFCURVE",
"311 122 CURVE SMOOTH",
"271 122 OFFCURVE",
"241 150 OFFCURVE",
"231 178 CURVE",
"100 128 LINE"
);
},
{
closed = 1;
nodes = (
"254 309 LINE",
"254 220 LINE",
"316 220 LINE SMOOTH",
"448 220 OFFCURVE",
"516 258 OFFCURVE",
"516 368 CURVE SMOOTH",
"516 538 LINE SMOOTH",
"380 538 LINE",
"380 395 LINE SMOOTH",
"380 338 OFFCURVE",
"368 309 OFFCURVE",
"316 309 CURVE SMOOTH"
);
},
{
closed = 1;
nodes = (
"-20 603 LINE",
"-20 486 LINE",
"715 486 LINE",
"715 603 LINE"
);
}
);
width = 600;
},
{
associatedMasterId = "6FDD6D71-1703-4D62-BB36-645A25EBC0A3";
background = {
paths = (
{
closed = 1;
nodes = (
"-20 608 LINE",
"-20 579 LINE",
"620 579 LINE SMOOTH",
"620 608 LINE SMOOTH"
);
},
{
closed = 1;
nodes = (
"311 258 OFFCURVE",
"266 282 OFFCURVE",
"266 329 CURVE SMOOTH",
"266 376 OFFCURVE",
"311 400 OFFCURVE",
"360 400 CURVE SMOOTH",
"456 400 OFFCURVE",
"529 308 OFFCURVE",
"529 207 CURVE SMOOTH",
"529 106 OFFCURVE",
"461 23 OFFCURVE",
"354 23 CURVE SMOOTH",
"247 23 OFFCURVE",
"183 100 OFFCURVE",
"165 130 CURVE",
"140 111 LINE",
"161 78 OFFCURVE",
"228 -7 OFFCURVE",
"354 -7 CURVE SMOOTH",
"482 -7 OFFCURVE",
"560 89 OFFCURVE",
"560 207 CURVE SMOOTH",
"560 325 OFFCURVE",
"477 430 OFFCURVE",
"362 430 CURVE SMOOTH",
"290 430 OFFCURVE",
"235 393 OFFCURVE",
"235 329 CURVE SMOOTH",
"235 265 OFFCURVE",
"290 228 OFFCURVE",
"362 228 CURVE SMOOTH",
"447 228 OFFCURVE",
"515 287 OFFCURVE",
"515 395 CURVE SMOOTH",
"515 600 LINE",
"484 600 LINE",
"484 391 LINE SMOOTH",
"484 299 OFFCURVE",
"426 258 OFFCURVE",
"360 258 CURVE SMOOTH"
);
}
);
};
guideLines = (
{
angle = 90;
position = "{451, 168}";
}
);
layerId = "7DDFFC80-40B9-4B84-A9E3-03EE4EA94DB8";
name = "Light Aug 31 15, 17:53";
paths = (
{
closed = 1;
nodes = (
"-20 608 LINE",
"-20 579 LINE",
"620 579 LINE SMOOTH",
"620 608 LINE SMOOTH"
);
},
{
closed = 1;
nodes = (
"311 258 OFFCURVE",
"266 282 OFFCURVE",
"266 329 CURVE SMOOTH",
"266 376 OFFCURVE",
"311 400 OFFCURVE",
"360 400 CURVE SMOOTH",
"456 400 OFFCURVE",
"529 308 OFFCURVE",
"529 207 CURVE SMOOTH",
"529 106 OFFCURVE",
"461 23 OFFCURVE",
"354 23 CURVE SMOOTH",
"247 23 OFFCURVE",
"183 100 OFFCURVE",
"165 130 CURVE",
"140 111 LINE",
"161 78 OFFCURVE",
"228 -7 OFFCURVE",
"354 -7 CURVE SMOOTH",
"482 -7 OFFCURVE",
"560 89 OFFCURVE",
"560 207 CURVE SMOOTH",
"560 325 OFFCURVE",
"477 430 OFFCURVE",
"362 430 CURVE SMOOTH",
"290 430 OFFCURVE",
"235 393 OFFCURVE",
"235 329 CURVE SMOOTH",
"235 265 OFFCURVE",
"290 228 OFFCURVE",
"362 228 CURVE SMOOTH",
"447 228 OFFCURVE",
"515 287 OFFCURVE",
"515 395 CURVE SMOOTH",
"515 600 LINE",
"484 600 LINE",
"484 391 LINE SMOOTH",
"484 299 OFFCURVE",
"426 258 OFFCURVE",
"360 258 CURVE SMOOTH"
);
}
);
width = 600;
},
{
associatedMasterId = "6FDD6D71-1703-4D62-BB36-645A25EBC0A3";
background = {
paths = (
{
closed = 1;
nodes = (
"-20 608 LINE",
"-20 579 LINE",
"508 579 LINE SMOOTH",
"508 608 LINE SMOOTH"
);
},
{
closed = 1;
nodes = (
"403 334 LINE",
"411 355 OFFCURVE",
"412 372 OFFCURVE",
"413 427 CURVE SMOOTH",
"413 600 LINE",
"382 600 LINE",
"382 383 LINE",
"349 412 OFFCURVE",
"307 430 OFFCURVE",
"260 430 CURVE SMOOTH",
"188 430 OFFCURVE",
"133 393 OFFCURVE",
"133 329 CURVE SMOOTH",
"133 265 OFFCURVE",
"188 228 OFFCURVE",
"260 228 CURVE SMOOTH",
"321 228 OFFCURVE",
"373 258 OFFCURVE",
"398 315 CURVE",
"416 283 OFFCURVE",
"427 246 OFFCURVE",
"427 207 CURVE SMOOTH",
"427 106 OFFCURVE",
"359 23 OFFCURVE",
"252 23 CURVE SMOOTH",
"155 23 OFFCURVE",
"91 100 OFFCURVE",
"73 130 CURVE",
"48 111 LINE",
"69 78 OFFCURVE",
"136 -7 OFFCURVE",
"252 -7 CURVE SMOOTH",
"380 -7 OFFCURVE",
"458 89 OFFCURVE",
"458 207 CURVE SMOOTH",
"458 267 OFFCURVE",
"437 325 OFFCURVE",
"399 366 CURVE"
);
},
{
closed = 1;
nodes = (
"209 258 OFFCURVE",
"164 282 OFFCURVE",
"164 329 CURVE SMOOTH",
"164 376 OFFCURVE",
"209 400 OFFCURVE",
"258 400 CURVE SMOOTH",
"305 400 OFFCURVE",
"346 378 OFFCURVE",
"376 344 CURVE",
"360 285 OFFCURVE",
"312 258 OFFCURVE",
"258 258 CURVE SMOOTH"
);
}
);
};
guideLines = (
{
angle = 90;
position = "{349, 168}";
},
{
position = "{283, 336}";
}
);
layerId = "94A564C8-9CFF-45D5-892C-127C158AA5D5";
name = "Light Aug 31 15, 18:53";
paths = (
{
closed = 1;
nodes = (
"209 251 OFFCURVE",
"164 282 OFFCURVE",
"164 329 CURVE SMOOTH",
"164 376 OFFCURVE",
"209 407 OFFCURVE",
"258 407 CURVE SMOOTH",
"360 407 OFFCURVE",
"437 308 OFFCURVE",
"437 207 CURVE SMOOTH",
"437 106 OFFCURVE",
"359 23 OFFCURVE",
"252 23 CURVE SMOOTH",
"145 23 OFFCURVE",
"81 100 OFFCURVE",
"63 130 CURVE",
"38 111 LINE",
"59 78 OFFCURVE",
"126 -7 OFFCURVE",
"252 -7 CURVE SMOOTH",
"380 -7 OFFCURVE",
"468 89 OFFCURVE",
"468 207 CURVE SMOOTH",
"468 325 OFFCURVE",
"381 437 OFFCURVE",
"260 437 CURVE SMOOTH",
"188 437 OFFCURVE",
"133 393 OFFCURVE",
"133 329 CURVE SMOOTH",
"133 265 OFFCURVE",
"188 221 OFFCURVE",
"260 221 CURVE SMOOTH",
"351 221 OFFCURVE",
"433 287 OFFCURVE",
"433 395 CURVE SMOOTH",
"433 600 LINE",
"402 600 LINE",
"402 391 LINE SMOOTH",
"402 299 OFFCURVE",
"330 251 OFFCURVE",
"258 251 CURVE SMOOTH"
);
},
{
closed = 1;
nodes = (
"-20 608 LINE",
"-20 579 LINE",
"528 579 LINE SMOOTH",
"528 608 LINE SMOOTH"
);
}
);
width = 508;
},
{
associatedMasterId = "DC46B086-4DC3-4260-9EBF-C204FB70037C";
background = {
paths = (
{
closed = 1;
nodes = (
"-104 603 LINE",
"-104 486 LINE",
"631 486 LINE",
"631 603 LINE"
);
},
{
closed = 0;
nodes = (
"220 261 LINE",
"271 261 OFFCURVE",
"297 234 OFFCURVE",
"297 189 CURVE SMOOTH",
"297 148 OFFCURVE",
"272 122 OFFCURVE",
"227 122 CURVE SMOOTH",
"187 122 OFFCURVE",
"157 150 OFFCURVE",
"147 178 CURVE",
"16 128 LINE",
"45 40 OFFCURVE",
"130 -17 OFFCURVE",
"222 -17 CURVE SMOOTH",
"355 -17 OFFCURVE",
"447 68 OFFCURVE",
"447 194 CURVE SMOOTH",
"447 261 OFFCURVE",
"417 315 OFFCURVE",
"370 350 CURVE"
);
},
{
closed = 0;
nodes = (
"370 316 LINE",
"410 337 OFFCURVE",
"432 377 OFFCURVE",
"432 438 CURVE SMOOTH",
"432 558 LINE",
"296 558 LINE",
"296 475 LINE SMOOTH",
"296 418 OFFCURVE",
"284 389 OFFCURVE",
"232 389 CURVE"
);
}
);
};
guideLines = (
{
angle = 90;
position = "{296, 303}";
},
{
position = "{165, 331}";
showMeasurement = 1;
}
);
layerId = "04046605-4F75-414A-85F7-63E61DFD81E9";
name = "Bold Sep 1 15, 14:52";
paths = (
{
closed = 1;
nodes = (
"-20 603 LINE",
"-20 486 LINE",
"522 486 LINE",
"522 603 LINE"
);
},
{
closed = 1;
nodes = (
"430 337 OFFCURVE",
"432 377 OFFCURVE",
"432 428 CURVE SMOOTH",
"432 558 LINE",
"296 558 LINE",
"296 433 LINE",
"272 445 OFFCURVE",
"254 454 OFFCURVE",
"215 454 CURVE SMOOTH",
"140 454 OFFCURVE",
"74 404 OFFCURVE",
"74 322 CURVE SMOOTH",
"74 241 OFFCURVE",
"143 184 OFFCURVE",
"215 184 CURVE SMOOTH",
"260 184 OFFCURVE",
"284 199 OFFCURVE",
"300 208 CURVE",
"307 200 OFFCURVE",
"312 187 OFFCURVE",
"312 174 CURVE SMOOTH",
"312 142 OFFCURVE",
"286 112 OFFCURVE",
"232 112 CURVE SMOOTH",
"177 112 OFFCURVE",
"152 140 OFFCURVE",
"137 168 CURVE",
"12 121 LINE",
"46 33 OFFCURVE",
"125 -17 OFFCURVE",
"222 -17 CURVE SMOOTH",
"355 -17 OFFCURVE",
"457 68 OFFCURVE",
"457 194 CURVE SMOOTH",
"457 261 OFFCURVE",
"437 316 OFFCURVE",
"389 352 CURVE",
"390 316 LINE"
);
},
{
closed = 1;
nodes = (
"216 285 OFFCURVE",
"202 299 OFFCURVE",
"202 319 CURVE SMOOTH",
"202 339 OFFCURVE",
"216 353 OFFCURVE",
"242 353 CURVE SMOOTH",
"272 353 OFFCURVE",
"297 325 OFFCURVE",
"297 319 CURVE",
"297 313 OFFCURVE",
"272 285 OFFCURVE",
"242 285 CURVE SMOOTH"
);
}
);
width = 502;
},
{
associatedMasterId = "DC46B086-4DC3-4260-9EBF-C204FB70037C";
background = {
paths = (
{
closed = 1;
nodes = (
"-59 603 LINE",
"-59 486 LINE",
"676 486 LINE",
"676 603 LINE"
);
},
{
closed = 0;
nodes = (
"265 261 LINE",
"316 261 OFFCURVE",
"342 234 OFFCURVE",
"342 189 CURVE SMOOTH",
"342 148 OFFCURVE",
"317 122 OFFCURVE",
"272 122 CURVE SMOOTH",
"232 122 OFFCURVE",
"202 150 OFFCURVE",
"192 178 CURVE",
"61 128 LINE",
"90 40 OFFCURVE",
"175 -17 OFFCURVE",
"267 -17 CURVE SMOOTH",
"400 -17 OFFCURVE",
"492 68 OFFCURVE",
"492 194 CURVE SMOOTH",
"492 261 OFFCURVE",
"462 315 OFFCURVE",
"415 350 CURVE"
);
},
{
closed = 0;
nodes = (
"425 316 LINE",
"465 337 OFFCURVE",
"487 377 OFFCURVE",
"487 438 CURVE SMOOTH",
"487 558 LINE",
"351 558 LINE",
"351 475 LINE SMOOTH",
"351 418 OFFCURVE",
"339 389 OFFCURVE",
"287 389 CURVE"
);
}
);
};
guideLines = (
{
angle = 90;
position = "{341, 303}";
},
{
position = "{210, 331}";
showMeasurement = 1;
}
);
layerId = "A7339D4E-A16D-49A7-9CF3-4D0A34F650D3";
name = "Bold Sep 1 15, 15:11";
paths = (
{
closed = 1;
nodes = (
"-20 603 LINE",
"-20 486 LINE",
"577 486 LINE",
"577 603 LINE"
);
},
{
closed = 1;
nodes = (
"341 181 OFFCURVE",
"398 233 OFFCURVE",
"407 284 CURVE",
"458 300 OFFCURVE",
"487 333 OFFCURVE",
"487 409 CURVE SMOOTH",
"487 558 LINE",
"351 558 LINE",
"351 414 LINE SMOOTH",
"351 357 OFFCURVE",
"338 280 OFFCURVE",
"261 280 CURVE SMOOTH",
"237 280 OFFCURVE",
"213 292 OFFCURVE",
"213 314 CURVE SMOOTH",
"213 336 OFFCURVE",
"237 348 OFFCURVE",
"261 348 CURVE SMOOTH",
"338 348 OFFCURVE",
"372 264 OFFCURVE",
"372 219 CURVE SMOOTH",
"372 146 OFFCURVE",
"307 112 OFFCURVE",
"242 112 CURVE SMOOTH",
"175 112 OFFCURVE",
"138 150 OFFCURVE",
"122 178 CURVE",
"12 115 LINE",
"43 46 OFFCURVE",
"125 -17 OFFCURVE",
"247 -17 CURVE SMOOTH",
"390 -17 OFFCURVE",
"502 88 OFFCURVE",
"502 214 CURVE SMOOTH",
"502 285 OFFCURVE",
"454 348 OFFCURVE",
"401 373 CURVE",
"372 414 OFFCURVE",
"323 447 OFFCURVE",
"256 447 CURVE SMOOTH",
"149 447 OFFCURVE",
"99 378 OFFCURVE",
"99 314 CURVE SMOOTH",
"99 250 OFFCURVE",
"149 181 OFFCURVE",
"256 181 CURVE SMOOTH"
);
}
);
width = 557;
},
{
associatedMasterId = "6FDD6D71-1703-4D62-BB36-645A25EBC0A3";
background = {
paths = (
{
closed = 1;
nodes = (
"-20 608 LINE",
"-20 579 LINE",
"508 579 LINE SMOOTH",
"508 608 LINE SMOOTH"
);
},
{
closed = 1;
nodes = (
"403 334 LINE",
"411 355 OFFCURVE",
"412 372 OFFCURVE",
"413 427 CURVE SMOOTH",
"413 600 LINE",
"382 600 LINE",
"382 383 LINE",
"349 412 OFFCURVE",
"307 430 OFFCURVE",
"260 430 CURVE SMOOTH",
"188 430 OFFCURVE",
"133 393 OFFCURVE",
"133 329 CURVE SMOOTH",
"133 265 OFFCURVE",
"188 228 OFFCURVE",
"260 228 CURVE SMOOTH",
"321 228 OFFCURVE",
"373 258 OFFCURVE",
"398 315 CURVE",
"416 283 OFFCURVE",
"427 246 OFFCURVE",
"427 207 CURVE SMOOTH",
"427 106 OFFCURVE",
"359 23 OFFCURVE",
"252 23 CURVE SMOOTH",
"155 23 OFFCURVE",
"91 100 OFFCURVE",
"73 130 CURVE",
"48 111 LINE",
"69 78 OFFCURVE",
"136 -7 OFFCURVE",
"252 -7 CURVE SMOOTH",
"380 -7 OFFCURVE",
"458 89 OFFCURVE",
"458 207 CURVE SMOOTH",
"458 267 OFFCURVE",
"437 325 OFFCURVE",
"399 366 CURVE"
);
},
{
closed = 1;
nodes = (
"209 258 OFFCURVE",
"164 282 OFFCURVE",
"164 329 CURVE SMOOTH",
"164 376 OFFCURVE",
"209 400 OFFCURVE",
"258 400 CURVE SMOOTH",
"305 400 OFFCURVE",
"346 378 OFFCURVE",
"376 344 CURVE",
"360 285 OFFCURVE",
"312 258 OFFCURVE",
"258 258 CURVE SMOOTH"
);
}
);
};
guideLines = (
{
angle = 90;
position = "{349, 168}";
},
{
position = "{283, 336}";
}
);
layerId = "A84C8BFB-4AA0-4CF7-9627-2486DF080041";
name = "Light Sep 1 15, 16:07";
paths = (
{
closed = 1;
nodes = (
"-20 608 LINE",
"-20 579 LINE",
"518 579 LINE SMOOTH",
"518 608 LINE SMOOTH"
);
},
{
closed = 1;
nodes = (
"422 351 OFFCURVE",
"423 379 OFFCURVE",
"423 398 CURVE SMOOTH",
"423 608 LINE",
"392 608 LINE",
"392 375 LINE",
"358 414 OFFCURVE",
"313 437 OFFCURVE",
"260 437 CURVE SMOOTH",
"184 437 OFFCURVE",
"133 393 OFFCURVE",
"133 329 CURVE SMOOTH",
"133 265 OFFCURVE",
"184 221 OFFCURVE",
"260 221 CURVE SMOOTH",
"313 221 OFFCURVE",
"373 248 OFFCURVE",
"402 307 CURVE",
"418 277 OFFCURVE",
"427 243 OFFCURVE",
"427 207 CURVE SMOOTH",
"427 106 OFFCURVE",
"359 23 OFFCURVE",
"252 23 CURVE SMOOTH",
"145 23 OFFCURVE",
"86 100 OFFCURVE",
"63 140 CURVE",
"38 121 LINE",
"64 78 OFFCURVE",
"124 -7 OFFCURVE",
"252 -7 CURVE SMOOTH",
"380 -7 OFFCURVE",
"458 89 OFFCURVE",
"458 207 CURVE SMOOTH",
"458 260 OFFCURVE",
"441 311 OFFCURVE",
"412 351 CURVE",
"412 328 LINE"
);
},
{
closed = 1;
nodes = (
"205 251 OFFCURVE",
"164 282 OFFCURVE",
"164 329 CURVE SMOOTH",
"164 376 OFFCURVE",
"205 407 OFFCURVE",
"258 407 CURVE SMOOTH",
"308 407 OFFCURVE",
"352 382 OFFCURVE",
"382 337 CURVE",
"362 276 OFFCURVE",
"308 251 OFFCURVE",
"258 251 CURVE SMOOTH"
);
}
);
width = 498;
}
);
unicode = 0A2D;
},
